<svg xmlns="http://www.w3.org/2000/svg">
<defs>
<font id="Galyon-Italic" horiz-adv-x="610" >
  <font-face 
    font-family="Galyon Italic"
    font-weight="400"
    font-style="italic"
    font-stretch="normal"
    units-per-em="1000"
    panose-1="1 0 0 0 0 0 0 0 0 0"
    ascent="800"
    descent="-200"
    x-height="493"
    cap-height="670"
    bbox="-175 -209.234 1256.99 1077.3"
    underline-thickness="50"
    underline-position="-125"
    stemh="71"
    stemv="79"
    unicode-range="U+0020-FB02"
  />
<missing-glyph horiz-adv-x="792" 
d="M517 684c100 0 179 -42.001 227 -100.001c38.04 -45.1729 64.7754 -109.188 64.7754 -187.066c0 -20.3906 -1.83301 -41.7314 -5.77539 -63.9336c-19 -104 -78 -191 -147 -249c-64 -53 -155 -99 -263 -99c-100 0 -179 42 -227 99
c-38.04 45.1729 -64.7754 108.56 -64.7754 185.68c0 20.1924 1.83301 41.3262 5.77539 63.3213c18 105 78 193 147 251c64 54 155 100 263 100zM510 646.999c-95 0 -175.999 -40.999 -232.999 -87.999c-62 -53 -114 -131 -130 -225
c-3.7832 -21.0986 -5.57617 -41.2441 -5.57617 -60.4004c0 -112.495 61.8359 -190.857 145.576 -227.601c34 -16 72 -24 113 -24c95 0 176 42 233 89c61 52 114 130 130 223c3.82129 21.46 5.63379 41.9482 5.63379 61.4229c0 113.016 -61.0391 191.897 -144.635 228.577
c-35 15 -73 23 -114 23zM333.001 396c11 66 76.001 122 156.001 122c61.1279 0 110.942 -33.9404 110.942 -96.0098c0 -6.97754 -0.629883 -14.3105 -1.94336 -21.9902c-11 -62 -69 -104 -134 -110l-7 -43h-44l14 81h26c48 0 91 31 99 72
c0.828125 4.9668 1.22754 9.71973 1.22754 14.25c0 39.2451 -29.9873 61.75 -71.2275 61.75c-56 0 -95 -40 -105 -88zM426.002 202c13.9697 0 26.2041 -12.1436 26.2041 -25.9277c0 -1.0166 -0.0664062 -2.04297 -0.204102 -3.07324c-3 -16 -19 -32 -37 -32
c-14.0166 0 -25.7305 11.5117 -25.7305 25.7949c0 2.02148 0.234375 4.09863 0.730469 6.20605c2 14 19 29 36 29z" />
    <glyph glyph-name="uniFB01" unicode="fi" horiz-adv-x="620" 
d="M610.93 493l-86.9316 -492.999h-77l75.6445 429h-265l-75.6445 -429h-76l75.6445 429h-86l11.2852 64h86l12.8711 73c17.082 96.8652 89.9551 171 200.153 171c33.333 0 62.5898 -8 87.7686 -24l-30.9326 -62c-19.335 11.333 -40.6689 17 -64.002 17
c-64.0527 0 -107.019 -45.4746 -116.985 -102.001l-12.8711 -73h342zM589.207 591.001c-27.9365 0 -48.1318 21.9375 -43.0068 51c4.50488 25.5518 31.2012 50.999 60.9922 50.999c27.377 0 48.9805 -22.7939 44.0078 -50.999c-4.65137 -26.377 -31.6025 -51 -61.9932 -51z
" />
    <glyph glyph-name="uniFB02" unicode="fl" horiz-adv-x="608" 
d="M268.93 493l179.001 0.000976562l-11.2852 -64h-179l-75.6445 -429h-76l75.6445 429h-86l11.2852 64h86l12.8711 73c16.9922 96.3584 89.8359 171 199.151 171c29.333 0 54.9424 -6 76.8262 -18l-29.9326 -62c-17.374 7.33301 -35.3945 11 -54.0615 11
c-63.1621 0 -106.109 -45.9932 -115.984 -102.001zM646.957 720.001l-126.956 -720h-76l126.956 720h76z" />
    <glyph glyph-name=".notdef" horiz-adv-x="792" 
d="M517 684c100 0 179 -42.001 227 -100.001c38.04 -45.1729 64.7754 -109.188 64.7754 -187.066c0 -20.3906 -1.83301 -41.7314 -5.77539 -63.9336c-19 -104 -78 -191 -147 -249c-64 -53 -155 -99 -263 -99c-100 0 -179 42 -227 99
c-38.04 45.1729 -64.7754 108.56 -64.7754 185.68c0 20.1924 1.83301 41.3262 5.77539 63.3213c18 105 78 193 147 251c64 54 155 100 263 100zM510 646.999c-95 0 -175.999 -40.999 -232.999 -87.999c-62 -53 -114 -131 -130 -225
c-3.7832 -21.0986 -5.57617 -41.2441 -5.57617 -60.4004c0 -112.495 61.8359 -190.857 145.576 -227.601c34 -16 72 -24 113 -24c95 0 176 42 233 89c61 52 114 130 130 223c3.82129 21.46 5.63379 41.9482 5.63379 61.4229c0 113.016 -61.0391 191.897 -144.635 228.577
c-35 15 -73 23 -114 23zM333.001 396c11 66 76.001 122 156.001 122c61.1279 0 110.942 -33.9404 110.942 -96.0098c0 -6.97754 -0.629883 -14.3105 -1.94336 -21.9902c-11 -62 -69 -104 -134 -110l-7 -43h-44l14 81h26c48 0 91 31 99 72
c0.828125 4.9668 1.22754 9.71973 1.22754 14.25c0 39.2451 -29.9873 61.75 -71.2275 61.75c-56 0 -95 -40 -105 -88zM426.002 202c13.9697 0 26.2041 -12.1436 26.2041 -25.9277c0 -1.0166 -0.0664062 -2.04297 -0.204102 -3.07324c-3 -16 -19 -32 -37 -32
c-14.0166 0 -25.7305 11.5117 -25.7305 25.7949c0 2.02148 0.234375 4.09863 0.730469 6.20605c2 14 19 29 36 29z" />
    <glyph glyph-name="space" unicode=" " horiz-adv-x="252" 
 />
    <glyph glyph-name="exclam" unicode="!" horiz-adv-x="269" 
d="M295 670c-28 -157 -57.2881 -313.939 -85.9111 -471h-78c27.0518 156.965 53.7988 314.234 81.0498 471h82.8613zM152.28 98c24.6504 0 43.7529 -18.4043 43.7529 -42.6172c0 -2.72656 -0.242188 -5.52637 -0.746094 -8.38184
c-4.65723 -26.4189 -30.3965 -50 -60.8164 -50c-25.0068 0 -43.9746 16.793 -43.9746 41.1885c0 2.83887 0.256836 5.78125 0.791016 8.81152c4.50684 25.5518 31.2012 50.999 60.9932 50.999z" />
    <glyph glyph-name="quotedbl" unicode="&#x22;" horiz-adv-x="338" 
d="M124.12 392l49.0186 278h78l-49.0186 -278h-78zM274.12 392l49.0186 278h78l-49.0186 -278h-78z" />
    <glyph glyph-name="numbersign" unicode="#" horiz-adv-x="679" 
d="M599.233 421l-78.6201 -185h107l-29.4609 -65h-106l-73.1523 -171h-69l73.1523 171h-188l-73.1523 -171h-69l73.1523 171h-107l28.4609 65h107l79.6201 185h-108l29.4619 65h106l79.4434 184h69l-79.4434 -184h188l78.4434 184h69l-78.4434 -184h108l-30.4619 -65h-106z
M530.233 421h-187l-79.6201 -185h188z" />
    <glyph glyph-name="dollar" unicode="$" horiz-adv-x="588" 
d="M568.736 197c-12.8711 -72.999 -57.4961 -120.863 -117.391 -152.499c-33.4482 -17.667 -72.7412 -27.834 -117.878 -30.501l-20.1016 -114h-67l20.4541 116c-102.368 13.2373 -188.164 77.7676 -178.146 192l79.8213 16c-5.86523 -80.498 44.5488 -128.626 113.313 -140
l39.8496 226l-43.2363 10c-76.0977 16.8232 -141.87 57.4463 -124.316 157.001c18.2061 103.253 111.812 170.961 225.738 180l19.9248 113h67l-20.2773 -115c96.1309 -11.9814 169.611 -74.458 161.263 -180.001l-78.6445 -15
c6.2793 73.5293 -36.0352 115.638 -97.4297 128l-38.4395 -218l48.0605 -11c100.12 -22 142.599 -76 127.435 -162zM334.709 384.003l36.5 207c-65.4639 -7.69238 -126.053 -45.668 -137.221 -109c-10.3389 -58.6387 30.542 -80.0381 77.7783 -92zM380.192 296.003
l-37.9092 -215.001c73.3105 4.99414 138.958 45.1377 150.924 113.001c10.8662 61.626 -30.7305 83.8809 -83.249 95z" />
    <glyph glyph-name="percent" unicode="%" horiz-adv-x="847" 
d="M705.172 375.58c102.98 0 144.473 -89.6094 125.22 -198.79c-14.8242 -84.0713 -59.376 -153.824 -127.356 -184.224c-21.751 -9.72656 -44.5342 -14.5664 -67.9668 -14.5664c-103.049 0 -145.039 89.4697 -125.763 198.79
c14.8779 84.3721 59.6641 153.709 127.899 184.224c21.752 9.72656 44.5352 14.5664 67.9668 14.5664zM643.585 38.1445c74.8574 0 111.766 72.6006 123.41 138.646c12.2305 69.3643 -4.58789 139.187 -72.3311 139.187c-73.5908 0 -110.487 -74.125 -121.958 -139.188
c-10.0049 -56.7432 0.303711 -107.979 35.4814 -128.997c10.7686 -6.43359 21.0107 -9.64746 35.3975 -9.64746zM331.068 692.58c102.98 0 144.472 -89.6094 125.219 -198.79c-14.8242 -84.0713 -59.376 -153.824 -127.356 -184.224
c-21.751 -9.72656 -44.5342 -14.5664 -67.9668 -14.5664c-103.048 0 -145.039 89.4688 -125.763 198.79c14.8779 84.3721 59.665 153.709 127.9 184.224c21.7529 9.72656 44.5352 14.5664 67.9668 14.5664zM269.481 355.145c74.8574 0 111.767 72.6006 123.411 138.646
c12.2305 69.3643 -4.58789 139.187 -72.3311 139.187c-73.5928 0 -110.484 -74.126 -121.958 -139.188c-10.0059 -56.7432 0.303711 -107.977 35.4805 -128.997c10.7686 -6.43359 21.0107 -9.64746 35.3975 -9.64746zM129.003 0l619.139 670h75l-619.139 -670h-75z" />
    <glyph glyph-name="ampersand" unicode="&#x26;" horiz-adv-x="711" 
d="M539.93 493c6.35742 78.4111 -28.9775 125.001 -101.96 125.001c-72.2139 0 -127.458 -47.9707 -138.748 -112c-5.52539 -31.333 0.0771484 -61 16.8066 -89s47.9404 -63.667 93.6328 -107l134.725 -132c22.2305 35.333 37.2246 75 44.9834 119l7.58203 43h68
l-7.58203 -43c-11.0498 -62.667 -33.415 -117.667 -67.0938 -165l101.543 -99l-54.3447 -53l-96.0732 95.999c-54.4141 -49.1748 -136.025 -89 -231.691 -89c-103.887 0 -186.007 39.7568 -209.518 119.002c-15.7842 53.208 -1.51855 103.486 19.9795 144.5
c26.041 49.6816 82.9971 94.3828 137.895 118.499c-25.5479 37.7598 -43.2344 78.0674 -32.666 137.999c17.5713 99.6533 108.872 176 224.034 176c108.54 0 169.591 -66.3496 164.964 -176zM321.345 53c71.1016 0 132.868 31.1426 173.993 68.001
c-67.1914 66.9951 -134.501 133.871 -201.559 201c-57.4971 -24.293 -111.363 -70.1084 -122.806 -135.001c-15.8926 -90.1328 60.0312 -134 150.371 -134z" />
    <glyph glyph-name="quotesingle" unicode="'" horiz-adv-x="188" 
d="M124.12 392l49.0186 278h78l-49.0186 -278h-78z" />
    <glyph glyph-name="parenleft" unicode="(" horiz-adv-x="353" 
d="M422.133 704c-113.224 -95.0088 -197.3 -205.892 -226.063 -369c-12.3428 -70 -11.5791 -134.667 2.29199 -194s45.0264 -118 93.4658 -176l-62.2871 -47c-105.546 116 -144.036 255 -115.472 417c28.5654 162 116.074 301 262.528 417z" />
    <glyph glyph-name="parenright" unicode=")" horiz-adv-x="353" 
d="M179.134 704l62.4629 47.999c105.546 -116 144.037 -255 115.472 -417c-28.5645 -162 -116.074 -301 -262.528 -417l-45.7129 47c68.8945 58 120.739 116.667 155.534 176s58.3643 124 70.707 194c14.5576 82.5498 11.5264 163.516 -16.5332 238.001
c-16.5742 44 -43.042 87.667 -79.4014 131z" />
    <glyph glyph-name="asterisk" unicode="*" horiz-adv-x="427" 
d="M360.922 544l107.833 -69l-33.7578 -44l-106.01 68l-23.2754 -132h-55l23.2754 132l-129.99 -68l-18.2422 44l132.167 69l-107.833 69l33.7578 44l106.01 -68l23.0986 131h55l-23.0986 -131l129.99 68l18.2422 -44z" />
    <glyph glyph-name="plus" unicode="+" horiz-adv-x="580" 
d="M557.784 271h-186l-33.1494 -188h-68l33.1494 188h-186l11.9902 68h186l33.1504 188h68l-33.1504 -188h186z" />
    <glyph glyph-name="comma" unicode="," horiz-adv-x="210" 
d="M51.7246 -132h-60l112.374 263h90l-0.352539 -2z" />
    <glyph glyph-name="hyphen" unicode="-" horiz-adv-x="443" 
d="M422.145 222h-323l11.8145 67h323z" />
    <glyph glyph-name="period" unicode="." horiz-adv-x="204" 
d="M119.28 98c27.4258 0 47.9834 -22.7822 43.0068 -50.999c-4.65723 -26.4189 -30.3965 -50 -60.8164 -50c-27.917 0 -48.3076 20.9287 -43.1836 50c4.50684 25.5518 31.2012 50.999 60.9932 50.999z" />
    <glyph glyph-name="slash" unicode="/" horiz-adv-x="368" 
d="M491.658 741l-431.354 -813h-65l431.354 813h65z" />
    <glyph glyph-name="zero" unicode="0" horiz-adv-x="665" 
d="M453.432 683c179.684 0 249.181 -157.767 215.635 -348c-17.915 -101.604 -62.0957 -190.382 -120.846 -251.5c-50.7725 -52.8174 -122.758 -96.5 -217.514 -96.5c-179.812 0 -250.229 157.491 -216.639 348c26.0547 147.752 103.389 269.758 222.455 323
c37.2715 16.667 76.2412 25 116.908 25zM343.756 61c21.333 0 44.0967 4.33203 68.292 12.999c95.7021 34.2812 157.12 148.116 177.023 261.001c19.8682 112.667 -1.94043 213.119 -72.0352 254.999c-22.3164 13.333 -47.8076 20 -76.4746 20
c-21.333 0 -44.2637 -4.33301 -68.792 -13c-96.4355 -34.0752 -157.722 -148.694 -177.699 -262.001c-19.8203 -112.414 2.25781 -212.202 72.2119 -253.998c22.3164 -13.333 48.1406 -20 77.4736 -20z" />
    <glyph glyph-name="one" unicode="1" horiz-adv-x="355" 
d="M386.139 670l-118.139 -670h-77l101.388 575l-196.633 -100l12.8721 73l228.512 122h49z" />
    <glyph glyph-name="two" unicode="2" horiz-adv-x="515" 
d="M361.265 614c-95.6396 0 -155.697 -64.124 -177.566 -145.001h-73.999c26.0312 119.647 124.187 214 264.734 214c118.738 0 208.499 -70.8945 184.852 -204.999c-11.499 -65.2109 -42.4346 -110.31 -86.8301 -155.001c-27.1533 -27.333 -65.5898 -61 -115.31 -101
l-187.449 -150h325l-12.6943 -72h-451l8.99316 51l278.32 223c40.9756 32 71.2461 57.167 90.8115 75.5c35.7217 33.4717 64.1709 71.8682 73.9824 127.501c15.0039 85.1025 -39.8125 137 -121.845 137z" />
    <glyph glyph-name="three" unicode="3" horiz-adv-x="586" 
d="M148.227 472c28.7051 117.036 125.4 211 269.204 211c94.9238 0 163.173 -40.8594 181.957 -116.498c17.0264 -68.5713 -8.07715 -131.137 -41.7998 -169.001c-22.8584 -25.667 -50.5615 -43.834 -83.1094 -54.501c61.1221 -18.208 101.654 -70.0078 87.3721 -151.002
c-16.9453 -96.0967 -83.5342 -162.493 -169.59 -190.499c-29.7051 -9.66699 -61.2236 -14.5 -94.5566 -14.5c-133.615 0 -221.201 82.1289 -205.56 218.001h75.4375c-3.71191 -93.543 49.7236 -148.001 142.465 -148.001c92.2305 0 165.74 55.2432 179.629 134
c14.4561 81.9922 -46.2607 117.001 -128.37 117.001h-93l12.167 69h88c81.0713 0 146.993 39.6553 159.573 110.999c14.3291 81.2744 -44.0996 125 -123.96 125c-100.438 0 -158.094 -63.0488 -181.531 -140.999h-74.3281zM167.582 205z" />
    <glyph glyph-name="four" unicode="4" horiz-adv-x="620" 
d="M617.389 161h-104l-28.3887 -161h-77l28.3887 161h-373l13.4004 76c154.562 179 426.35 433 426.35 433h100l-76.3496 -433h104zM449.789 237l61.7148 350s-214.797 -186 -348.715 -350h287z" />
    <glyph glyph-name="five" unicode="5" horiz-adv-x="563" 
d="M165.707 217c-7.66406 -64.8535 13.2754 -107.681 51.3408 -134.499c22.2373 -15.667 41.3564 -23.5 77.3564 -23.5c47.333 0 97.9883 13.167 133.728 49.5c30.1699 30.6709 46.5479 71.166 54.1895 114.499c7.52344 42.667 6.2959 75.4482 -22.4268 102.5
c-32.1816 30.3096 -58.4346 38.5 -103.712 38.5c-104 0 -154.637 -66 -171.105 -80h-74l97.0615 386h402l-12.5186 -71h-327l-53.7344 -214c33.3506 19 67.8164 49.998 157.817 49.998c92.9053 0 164.712 -34.5156 182.84 -111.499
c6.6709 -28.333 5.48047 -68.166 -0.0449219 -99.499c-11.2852 -64 -37.8242 -121.637 -84.3584 -166.5c-52.208 -50.333 -122.431 -70.5 -192.431 -70.5c-100.105 0 -169.62 53.5049 -189.784 134.5c-7.21973 29 -7.77246 60.833 -1.66113 95.5h76.4434z" />
    <glyph glyph-name="six" unicode="6" horiz-adv-x="609" 
d="M187.482 326c38.4072 55.0156 119.52 107 213.867 107c125.506 0 215.207 -78.2129 190.207 -220c-18.2012 -103.233 -86.6592 -176.375 -176.853 -208.998c-31.3311 -11.333 -63.9971 -17 -97.9971 -17c-175.767 0 -239.814 137.175 -205.813 329.999
c23.3926 132.667 70.9473 230.334 142.664 293.001c45.1465 39.3633 111.211 73 189.873 73c104.237 0 176.831 -53.3008 187.08 -147.001h-81.4209c-12.7393 51.4951 -57.0225 77 -121 77c-90.0215 0 -140.29 -52.1787 -178.721 -109
c-30.5928 -45.2334 -52.8916 -111.21 -61.8867 -178.001zM328.402 59.001c94.6826 0 170.782 72.4941 185.331 155c15.8613 89.9531 -44.6201 152.999 -131.021 152.999c-99.1104 0 -173.638 -71.6797 -188.507 -156c-11.0303 -62.5596 14.2402 -103.615 51.666 -129.499
c21.6875 -15 49.1982 -22.5 82.5312 -22.5z" />
    <glyph glyph-name="seven" unicode="7" horiz-adv-x="495" 
d="M595.139 670l-9.52148 -54l-370.617 -616h-87l367.62 599h-367l12.5186 71h454z" />
    <glyph glyph-name="eight" unicode="8" horiz-adv-x="578" 
d="M450.48 343c46.4336 -12.667 78.8848 -34.665 97.3594 -65.998c41.5791 -70.5146 14.7158 -145.397 -28.8242 -197.499c-46.0801 -55.1416 -134.181 -92.5 -231.31 -92.5c-102.816 0 -185.075 36.3994 -209.485 113.5c-29.9307 94.5225 34.876 178.295 95.4688 212.5
c24.8018 14 49.7324 24 74.79 30c-62.1494 19.8975 -113.125 73.0146 -97.2588 162.999c19.2207 108.997 128.178 177.001 259.211 177.001c118.63 0 216.683 -58.5186 195.79 -177.001c-14.3291 -81.2715 -77.4746 -140.246 -155.741 -163.002zM397.967 618.003
c-89.1797 0 -157.168 -46.083 -170.405 -121.169c-13.8535 -78.5752 55.001 -114.831 128.792 -114.831c86.2598 0 158.248 46.7715 170.984 119c13.7031 77.7178 -53.5566 117 -129.371 117zM298.693 55.0029c89.3115 0 168.406 47.667 182.219 126.001
c14.7871 83.8623 -53.8955 125.999 -137.784 125.999c-91.9541 0 -167.772 -49.7539 -181.393 -127c-15.2031 -86.2246 56.2568 -125 136.958 -125z" />
    <glyph glyph-name="nine" unicode="9" horiz-adv-x="609" 
d="M539.656 344.001c-40.0615 -55.7988 -123.141 -107 -213.867 -107c-102.526 0 -171.131 49.7051 -189.461 133.5c-14.6367 66.9111 6.20312 131.917 32.0342 176c44.1562 75.3613 125.448 136.499 242.068 136.499c101.664 0 161.22 -43.4961 193.633 -115.496
c25.251 -56.0947 24.9385 -142.128 12.1777 -214.501c-23.3926 -132.667 -70.9473 -230.334 -142.664 -293.001c-45.1465 -39.3633 -111.211 -73 -189.873 -73c-103.676 0 -176.948 53.8516 -185.902 148h81.0029c11.4541 -51.3389 57.752 -78 120.245 -78
c55.457 0 100.746 25.1504 132.345 53c56.0371 51.832 95.0889 136.767 108.262 233.999zM345.425 303.003c95.1777 0 174.079 74.1768 188.507 156c12.0752 68.4834 -19.4814 113.376 -64.2549 137.5c-19.1777 10.333 -42.4336 15.5 -69.7666 15.5
c-96.3379 0 -170.36 -70.0986 -185.331 -155c-16.0117 -90.8037 43.9111 -154 130.846 -154z" />
    <glyph glyph-name="colon" unicode=":" horiz-adv-x="204" 
d="M183.463 462c27.4268 0 47.9805 -22.7812 43.0059 -50.999c-4.6582 -26.418 -30.3945 -50 -60.8154 -50c-27.916 0 -48.3096 20.9287 -43.1826 50c4.50488 25.5518 31.2012 50.999 60.9922 50.999zM119.278 98c27.4258 0 47.9834 -22.7822 43.0068 -50.999
c-4.65723 -26.4189 -30.3965 -50 -60.8164 -50c-27.917 0 -48.3076 20.9287 -43.1836 50c4.50684 25.5518 31.2012 50.999 60.9932 50.999z" />
    <glyph glyph-name="semicolon" unicode=";" horiz-adv-x="231" 
d="M210.463 462c27.4268 0 47.9805 -22.7812 43.0059 -50.999c-4.6582 -26.418 -30.3945 -50 -60.8154 -50c-27.916 0 -48.3096 20.9287 -43.1826 50c4.50488 25.5518 31.2012 50.999 60.9922 50.999zM51.7227 -132h-60l112.374 263h90l-0.352539 -2z" />
    <glyph glyph-name="less" unicode="&#x3c;" horiz-adv-x="437" 
d="M419.159 120l-337.964 159l13.4004 76l394.213 160l-14.459 -82l-294.454 -116l253.37 -117z" />
    <glyph glyph-name="equal" unicode="=" horiz-adv-x="580" 
d="M576.828 379h-440l11.9902 68h440zM543.502 190h-440l11.9902 68h440z" />
    <glyph glyph-name="greater" unicode="&#x3e;" horiz-adv-x="437" 
d="M369.896 317l-253.546 116l14.459 82l338.787 -160l-13.4004 -76l-395.036 -159l14.1064 80z" />
    <glyph glyph-name="question" unicode="?" horiz-adv-x="522" 
d="M387.432 683c125.829 0 209.105 -78.7705 186.144 -209c-12.3252 -69.9014 -54.3779 -122.27 -113.684 -156.999c-36.4287 -21.333 -118.584 -26 -125.99 -68l-8.28711 -47h-71l8.46387 48c13.4004 76 84.6953 89 127.573 102.5
c53.6123 16.877 97.666 63.3213 107.924 121.499c15.3984 87.333 -39.4395 140 -123.313 140c-45.333 0 -84.6934 -14.333 -118.081 -43s-53.4521 -52.667 -65.1318 -100h-74c12.0469 58.2891 39.6504 100.492 81.1855 140c42.8701 40.7764 111.259 72 188.197 72z
M271.276 98c27.4258 0 47.9834 -22.7822 43.0068 -50.999c-4.6582 -26.418 -30.3945 -50 -60.8164 -50c-27.916 0 -48.3096 20.9287 -43.1836 50c4.50684 25.5518 31.2012 50.999 60.9932 50.999z" />
    <glyph glyph-name="at" unicode="@" horiz-adv-x="959" 
d="M543.814 480.999c65.7207 0 114.16 -31.1064 137.774 -75l11.8135 67h53l-52.0107 -295.001c-7.13672 -40.4834 21.3848 -65.999 60.3643 -65.999c22 0 42.4395 8.16699 61.3193 24.5c60.0107 51.916 104.561 182.714 74.6934 296
c-32.6953 124.002 -140.197 202.499 -295.794 202.499c-115.114 0 -210.994 -45.1875 -278.397 -101.5c-71.3711 -59.627 -130.491 -147.407 -149.375 -254.5c-19.1484 -108.594 10.1436 -196.981 58.5352 -255c48.7051 -58.3945 129.183 -101 231.688 -101
c91.3262 0 191.397 32.5469 251.343 70l19.418 -43c-64.04 -40.625 -178.643 -77 -278.576 -77c-118.214 0 -210.206 48.1279 -267.312 114.5c-56.374 65.5215 -90.1426 166.496 -68.2773 290.499c21.4502 121.648 89.4834 222.668 171.135 290
c77.6582 64.0381 186.46 115 318.277 115c161.36 0 279.946 -79.0742 326.852 -196.5c22.1113 -55.3584 28.1104 -121.308 16.6143 -186.499c-15.8828 -90.0859 -59.1934 -175.674 -128.233 -214c-24.0186 -13.333 -50.3604 -20 -79.0273 -20
c-56.9785 0 -98.7939 27.3311 -100.894 80c-36.3164 -41.7061 -93.748 -76 -166.401 -76c-111.887 0 -185.586 81.7373 -163.854 205c15.4971 87.8818 69.2158 150.627 141.71 185.501c28.4102 13.667 59.6152 20.5 93.6152 20.5zM487.518 121.998
c63.9844 0 112.496 37.9014 140.165 77.501c33.7783 48.3408 49.9668 134.805 8.20898 185.5c-23.0625 28 -54.5938 42 -94.5938 42c-91.9795 0 -157.53 -71.0645 -171.626 -151c-15.667 -88.8545 34.0664 -154.001 117.846 -154.001z" />
    <glyph glyph-name="A" unicode="A" horiz-adv-x="693" 
d="M683 0h-85l-45.0244 170h-353l-104.976 -170h-85l418.139 670h73zM534.495 241l-86.6357 331l-204.364 -331h291z" />
    <glyph glyph-name="B" unicode="B" horiz-adv-x="668" 
d="M542.128 341c73.5898 -9.40723 122.718 -69.6436 106.963 -159c-19.1494 -108.603 -111.321 -182 -240.092 -182h-321l118.139 670h308c113.574 0 188.358 -60.3594 167.968 -176c-9.77734 -55.4463 -48.4229 -109.51 -89.1865 -131.5
c-19.1553 -10.333 -35.9102 -16.5 -50.2627 -18.5zM273.147 602.001l-40.9053 -232h228c76.8389 0 134.167 51.9932 146.159 120c12.6738 71.8916 -39.6348 112 -111.254 112h-222zM178.991 68.001l235 -0.00195312c82.3799 0 143.65 49.0527 156.335 121.001
c13.0068 73.7607 -41.7793 117.001 -113.369 117.001h-236z" />
    <glyph glyph-name="C" unicode="C" horiz-adv-x="777" 
d="M759.736 213.999c-58.0371 -122.338 -188.581 -226.999 -359.026 -226.999c-102.233 0 -180.99 42.4805 -229.191 101c-46.9482 56.999 -75.9541 142.04 -57.4473 247c18.1318 102.834 76.0957 188.804 144.553 246.999c64.4424 54.7822 155.162 101 264.81 101
c152.233 0 262.304 -87.6133 279.856 -221.999h-76c-7.26367 53.333 -33.9629 73 -72.3398 103s-86.5654 45 -144.565 45c-84.8271 0 -154.388 -36.8242 -204.02 -79.5c-53.1543 -45.7041 -98.0977 -113.974 -112.297 -194.5
c-22.2217 -126.023 35.8848 -214.479 119.891 -253c30.5312 -14 63.7969 -21 99.7969 -21c58.667 0 112.147 14.999 160.438 44.999s82.6885 54 109.543 108h76z" />
    <glyph glyph-name="D" unicode="D" horiz-adv-x="736" 
d="M206.139 670h222.001c163.401 0 280.312 -71.251 310.207 -203c22.7383 -100.209 -7.7168 -197.023 -46.4619 -263.5c-48.1914 -82.6836 -124.283 -144.42 -222.388 -178c-49.6641 -17 -102.83 -25.5 -159.497 -25.5h-222zM179.696 72l142 0.000976562
c145.089 0 246.884 66.5869 300.624 159.5c30.3047 52.3945 54.2764 128.253 36.5 206.999c-23.6309 104.68 -114.354 160.5 -244.199 160.5h-142z" />
    <glyph glyph-name="E" unicode="E" horiz-adv-x="637" 
d="M589.695 72l-12.6953 -72h-489l118.139 670h488l-12.5186 -71h-409l-40.0264 -227h380l-12.5195 -71h-380l-40.3789 -229h410z" />
    <glyph glyph-name="F" unicode="F" horiz-adv-x="590" 
d="M272.62 599l-41.2607 -234h366l-12.5195 -71h-366l-51.8398 -294h-79l118.139 670h480l-12.5186 -71h-401z" />
    <glyph glyph-name="G" unicode="G" horiz-adv-x="795" 
d="M721.46 479c-24.5146 79.2383 -106.038 130.001 -212.076 130.001c-83.6982 0 -154.768 -37.0957 -203.518 -79.5c-52.6377 -45.7852 -97.6387 -114.21 -111.796 -194.5c-22.1631 -125.688 37.1973 -214.811 121.39 -253c30.8643 -14 64.6299 -21 101.297 -21
c121.763 0 205.968 66.6719 256.038 142c19.0557 28.667 33.5215 59.667 43.3984 93h-296l12.6963 72l370.998 0.00195312l-4.99512 -34c-17.8633 -101.311 -71.9375 -188.187 -137.466 -246.502c-61.9971 -55.1729 -150.739 -100.501 -259.721 -100.501
c-102.117 0 -182.057 42.5596 -230.191 101c-46.9482 56.998 -75.9541 142.04 -57.4473 247c18.1338 102.833 76.0947 188.804 144.553 247c64.0732 54.4688 155.089 101 263.811 101c73.333 0 135.306 -17.167 185.919 -51.5s80.8076 -91.833 94.1104 -152.5h-81z" />
    <glyph glyph-name="H" unicode="H" horiz-adv-x="736" 
d="M766.139 670l-118.139 -670h-79l53.251 302h-402l-53.251 -302h-79l118.139 670h79l-52.3691 -297h402l52.3691 297h79z" />
    <glyph glyph-name="I" unicode="I" horiz-adv-x="254" 
d="M167 0h-79l118.139 670h79z" />
    <glyph glyph-name="J" unicode="J" horiz-adv-x="595" 
d="M634.139 670l-75.1143 -426.004c-19.0508 -108.024 -87.9092 -198.651 -183.525 -235.497c-37.1943 -14.333 -73.791 -21.5 -109.791 -21.5c-130.067 0 -210.087 85.5986 -205.914 216.001h75c-2.58105 -48.667 11.54 -70.667 36.3682 -100
c24.8271 -29.333 60.5742 -44 107.241 -44c109.006 0 184.523 88.0361 201.62 185l75.1152 426h79z" />
    <glyph glyph-name="K" unicode="K" horiz-adv-x="704" 
d="M689 0h-100l-200.518 326l-195.21 -177l-26.2725 -149h-79l118.139 670h79l-74.7627 -424l464.763 424h92l-315.605 -287z" />
    <glyph glyph-name="L" unicode="L" horiz-adv-x="586" 
d="M563.695 72l-12.6953 -72h-463l118.139 670h79l-105.443 -598h384z" />
    <glyph glyph-name="M" unicode="M" horiz-adv-x="898" 
d="M928.139 670l-118.139 -670h-76l88.5166 502l-352.517 -502h-41l-176.483 502l-88.5166 -502h-76l118.139 670h69l194.668 -552l389.332 552h69z" />
    <glyph glyph-name="N" unicode="N" horiz-adv-x="760" 
d="M791.139 670l-118.139 -670h-68l-344.194 532l-93.8057 -532h-79l118.139 670h68l343.137 -538l94.8633 538h79z" />
    <glyph glyph-name="O" unicode="O" horiz-adv-x="803" 
d="M522.432 683c100.82 0 180.073 -43.7949 227.604 -101.5c46.3096 -56.2236 75.3047 -142.893 57.0361 -246.5c-18.0898 -102.598 -76.1123 -188.728 -144.054 -247c-63.5957 -54.5459 -154.796 -101 -263.311 -101c-101.902 0 -181.045 42.4121 -228.692 101
c-46.4355 57.0977 -75.4043 142.322 -56.9473 247c17.8867 101.443 76.4473 189.103 143.966 246.5c63.8701 54.2959 155.386 101.5 264.398 101.5zM412.932 62c83.8096 0 153.473 35.9951 202.341 78.502c52.6377 45.7852 97.6387 114.21 111.796 194.5
c22.084 125.258 -35.1943 214.431 -118.39 253c-30.1982 14 -63.2969 21 -99.2969 21c-83.6982 0 -154.769 -37.0957 -203.519 -79.5c-52.6367 -45.7852 -97.6396 -114.21 -111.795 -194.5c-20.7383 -117.604 30.9844 -211.601 113.006 -249.502
c33.9043 -15.667 69.1904 -23.5 105.857 -23.5z" />
    <glyph glyph-name="P" unicode="P" horiz-adv-x="651" 
d="M206.139 670l292.003 0.000976562c95.8574 0 173.758 -40.4932 193.427 -119.501c26.2012 -105.243 -28.542 -192.268 -87.0547 -238.5c-43.4512 -34.334 -105.107 -58 -179.727 -58h-213l-44.7871 -254h-79zM224.309 325.001l212.999 -0.000976562
c94.5811 0 164.967 56.5273 179.157 137.001c15.5254 88.0566 -44.3076 137 -130.843 137h-213z" />
    <glyph glyph-name="Q" unicode="Q" horiz-adv-x="803" 
d="M644.024 -170l-114.264 180c-42.7041 -15.333 -86.0557 -23 -130.056 -23c-101.902 0 -181.045 42.4121 -228.692 101c-46.4355 57.0977 -75.4043 142.322 -56.9473 247c17.8867 101.443 76.4473 189.103 143.966 246.5c63.8701 54.2959 155.386 101.5 264.398 101.5
c100.82 0 180.074 -43.7949 227.604 -101.5c46.3096 -56.2236 75.3047 -142.893 57.0361 -246.5c-21.4893 -121.87 -104.348 -227.486 -195.254 -285l141.208 -220h-109zM233.346 441.5c-31.2041 -53.5898 -50.8447 -112.98 -41.2969 -194.499
c3.59277 -30.667 15.1855 -61.334 34.7783 -92.001c34.4951 -53.9932 103.074 -93.001 186.103 -93.001c83.8115 0 153.473 35.9922 202.342 78.5c52.6367 45.7871 97.6367 114.209 111.795 194.5c22.0869 125.257 -35.1943 214.432 -118.389 253.001
c-30.1992 14 -63.2979 21 -99.2979 21c-83.6982 0 -154.768 -37.0957 -203.518 -79.5c-28.7412 -25 -52.9131 -54.333 -72.5166 -88z" />
    <glyph glyph-name="R" unicode="R" horiz-adv-x="670" 
d="M645 0h-98.999l-205.395 287h-123l-50.6055 -287h-79l118.139 670h310c94.2549 0 164.149 -39.207 183.486 -113.5c13.4258 -51.5791 -0.823242 -102.82 -19.9502 -141.5c-24.4316 -49.4082 -69.083 -86.1934 -124.72 -109c-30.9004 -12.667 -66.3506 -19 -106.351 -19
h-12zM230.303 359h231c83.7959 0 148.583 48.6748 161.159 120c13.7441 77.9502 -42.3281 120 -118.841 120h-231z" />
    <glyph glyph-name="S" unicode="S" horiz-adv-x="627" 
d="M431.432 683c66 0 118.533 -16.834 157.597 -50.501s57.9736 -86.167 59.5498 -141.5h-79c-0.160156 29.333 -9.92773 44.833 -25.7744 66.5c-26.1787 35.7959 -71.5078 56.5 -126.537 56.5c-85.166 0 -160.213 -46.5771 -173.336 -121
c-11.2402 -63.752 29.7402 -88.6465 83.3662 -100l140.182 -33c21.8438 -4.66699 45.208 -13 70.0918 -25c48.8057 -23.5361 81.7773 -72.1494 68.2266 -149c-16.1611 -91.6387 -79.7021 -148.655 -162.651 -179.5c-34.959 -13 -75.4375 -19.5 -121.438 -19.5
c-107.722 0 -189.595 41.2979 -222.457 116.5c-10.9248 25 -15.6846 52.833 -14.2773 83.5h83c-0.777344 -46 17.2051 -65 47.9531 -91c30.749 -26 72.457 -39 125.124 -39c94.5361 0 171.261 46.8535 185.04 125c5.28906 30 0.648438 52.833 -13.9219 68.5
s-40.0928 27.834 -76.5645 36.501l-145.181 33c-103.102 24 -146.718 81 -130.849 171c16.4912 93.5186 86.6602 152.3 172.887 178c31.3125 9.33301 64.3027 14 98.9697 14z" />
    <glyph glyph-name="T" unicode="T" horiz-adv-x="627" 
d="M707.62 599h-248l-105.62 -599h-80l105.62 599h-249l12.5186 71h577z" />
    <glyph glyph-name="U" unicode="U" horiz-adv-x="721" 
d="M210.663 292.998c-23.0811 -130.901 35.2324 -230 162.445 -230c127.925 0 217.732 100.564 240.556 230.002l66.4746 377h79l-66.4736 -377.002c-25.085 -142.265 -107.715 -241.336 -216.077 -284c-37.2539 -14.667 -76.2139 -22 -116.881 -22
c-138.143 0 -211.715 77.7637 -229.908 182c-6.63281 38 -6.01172 79.333 1.86426 124l66.4756 377h79z" />
    <glyph glyph-name="V" unicode="V" horiz-adv-x="696" 
d="M796.139 670l-410.139 -670h-76l-173.861 670h86l144.904 -562l343.096 562h86z" />
    <glyph glyph-name="W" unicode="W" horiz-adv-x="953" 
d="M1054.14 670l-324.139 -670h-83l-74.0781 544l-266.922 -544h-82l-87.8613 670h82l70.1973 -549l267.803 549h77l74.1973 -549l263.803 549h83z" />
    <glyph glyph-name="X" unicode="X" horiz-adv-x="632" 
d="M518 0l-151.57 286l-251.43 -286h-97l298.422 337l-175.283 333h96l147.276 -282l246.724 282h97l-293.717 -333l180.578 -337h-97z" />
    <glyph glyph-name="Y" unicode="Y" horiz-adv-x="671" 
d="M415.437 235l-41.4365 -235h-79l41.2607 234l-200.122 436h88l165.052 -357l290.948 357h91z" />
    <glyph glyph-name="Z" unicode="Z" horiz-adv-x="626" 
d="M586.99 68l-11.9902 -68h-516l8.81641 50l507.332 552h-398l11.9902 68h500l-10.0498 -57l-497.099 -545h405z" />
    <glyph glyph-name="bracketleft" unicode="[" horiz-adv-x="391" 
d="M280.845 674l-121.666 -690h174l-11.6377 -66h-248l145.117 823h248l-11.8135 -67h-174z" />
    <glyph glyph-name="backslash" unicode="\" horiz-adv-x="368" 
d="M348.305 -72h-65l-144.646 813h65z" />
    <glyph glyph-name="bracketright" unicode="]" horiz-adv-x="391" 
d="M434.658 741l-145.117 -823h-249l11.6377 66h174l121.666 690h-174l11.8135 67h249z" />
    <glyph glyph-name="asciicircum" unicode="^" horiz-adv-x="394" 
d="M175.405 456h-70l182.733 214h54l107.267 -214h-70l-75.9033 148z" />
    <glyph glyph-name="underscore" unicode="_" horiz-adv-x="505" 
d="M463.664 -121h-465l11.4619 65h465z" />
    <glyph glyph-name="grave" unicode="`" horiz-adv-x="600" 
d="M383.663 707l54.3145 -140h-66l-77.3145 140h89z" />
    <glyph glyph-name="a" unicode="a" horiz-adv-x="545" 
d="M132.597 354.999c29.8779 84.0605 122.198 150.001 233.449 150.001c117.744 0 192.979 -62.502 171.38 -185l-56.4248 -320h-74l13.2246 75c-44.2949 -47.8184 -113.029 -88 -200.517 -88c-96.2148 0 -169.607 53.2725 -152.376 151
c17.1104 97.0342 107.199 154 225.155 154h166l4.05566 23c13.3955 75.9639 -29.5625 123 -104.312 123c-37.333 0 -69.8906 -8.83301 -97.6729 -26.5s-44.2227 -25.834 -54.9629 -56.501h-73zM241.816 50c65.6035 0 119.047 28.6797 156.579 68.498
c24.1924 25.667 39.1689 54.834 44.9287 87.501l4.58398 26h-167c-71.6387 0 -130.084 -34.5088 -140.397 -92.999c-10.4355 -59.1729 41.5986 -89 101.306 -89z" />
    <glyph glyph-name="b" unicode="b" horiz-adv-x="649" 
d="M236.999 414c47.1133 49.9209 121.467 90.998 212.046 90.998c107.942 0 179.001 -64.7676 199.258 -154.502c17.7686 -78.7109 -6.75293 -156.958 -36.8516 -208.997c-35.3438 -61.1074 -89.7588 -110.041 -157.48 -135.999
c-32.1748 -12.333 -64.2617 -18.5 -96.2617 -18.5c-83.7773 0 -148.012 36.9609 -179.955 91l-13.7539 -78h-76l126.955 720h76zM357.697 54.9961c52 0 98.7803 17.6699 140.344 53.0029c41.5625 35.333 67.3408 81.333 77.333 138
c14.7812 83.8252 -15.5166 143.227 -69.9082 173.499c-22.1582 12.333 -48.9033 18.5 -80.2363 18.5c-55.0557 0 -102.865 -24.5801 -136.256 -52.5c-53.8623 -45.04 -110.349 -139.696 -73.376 -237.501c20.1084 -53.1992 74.1104 -93.001 142.1 -93.001z" />
    <glyph glyph-name="c" unicode="c" horiz-adv-x="576" 
d="M516.012 329c-7.74023 64.5146 -68.6133 106 -139.311 106c-76.3486 0 -140.35 -42.8271 -175.31 -92.5c-21.3477 -30.333 -35.0205 -62.5 -41.0156 -96.5c-14.5039 -82.2705 17.0547 -139.518 70.1133 -169.5c21.8252 -12.333 48.4043 -18.5 79.7373 -18.5
c55.3193 0 97.21 19.0908 131.694 46.5029c20.5469 16.333 32.7412 27.833 46.1104 54.5l73.1768 1c-22.0322 -49.333 -59.0928 -98.833 -107.657 -128.5s-100.513 -44.5 -155.846 -44.5c-111.581 0 -187.928 62.7998 -209.846 154
c-15.584 64.8457 1.52441 137.822 24.1211 185c27.0107 56.3926 71.3008 105.39 127.246 137.499c45.8408 26.3096 92.71 41.5 149.819 41.5c70.876 0 125.971 -25.6631 163.833 -69.001c23.2979 -26.667 34.9307 -70.334 39.1328 -107.001h-76z" />
    <glyph glyph-name="d" unicode="d" horiz-adv-x="649" 
d="M378.045 505c83.7773 0 148.011 -36.96 179.954 -90.999l53.9561 306h76l-126.955 -719.998h-76l13.7539 78c-47.1133 -49.9209 -121.467 -91 -212.046 -91c-107.944 0 -179.001 64.7646 -199.258 154.5c-17.7686 78.7119 6.75293 156.959 36.8525 208.998
c35.3438 61.1074 89.7588 110.041 157.48 135.999c32.1748 12.333 64.2617 18.5 96.2617 18.5zM310.697 55.0029c74.4336 0 139.409 44.4248 174.9 92.9971c22.4072 30.667 36.667 63.334 42.7793 98.001c14.748 83.6318 -20.5693 142.201 -73.4951 173.001
c-21.7666 12.667 -47.3164 19 -76.6494 19c-86.5762 0 -144.192 -45.7158 -182.311 -101c-17.4678 -25.333 -29.3154 -55.666 -35.5459 -90.999c-19.7246 -111.86 45.8096 -191 150.321 -191z" />
    <glyph glyph-name="e" unicode="e" horiz-adv-x="583" 
d="M554.392 144.001c-49.1709 -88.1338 -136.221 -157.001 -263.685 -157.001c-71.0488 0 -126.991 30.6787 -161.98 71c-36.1709 41.6807 -56.6328 107.004 -42.5273 187c19.4844 110.494 96.3516 202.273 194.642 239c37.4688 14 72.8701 21 106.203 21
c106.541 0 174.416 -59.7119 195.08 -147c7.25977 -30.667 8.44043 -63.667 3.54395 -99l-4.93652 -27.999h-423c-8.63867 -78.7754 23.3125 -131.591 74.2881 -160c20.335 -11.333 43.835 -17 70.502 -17c37.333 0 71.999 8.5 103.997 25.5
c31.9971 17 51.7402 27.833 74.873 64.5h73zM513.783 288c3.62207 90.6543 -50.6953 150 -138.552 150c-18.667 0 -41.7637 -4.33301 -69.292 -13c-60.4971 -19.0469 -114.445 -74.2734 -135.156 -137h343z" />
    <glyph glyph-name="f" unicode="f" horiz-adv-x="356" 
d="M436.645 429l-178.999 0.000976562l-75.6445 -429h-76l75.6445 429h-86l11.2852 64h86l12.8711 73c16.9922 96.3584 89.8359 171 199.151 171c29.333 0 54.9424 -6 76.8262 -18l-29.9326 -62c-17.374 7.33301 -35.3945 11 -54.0615 11
c-63.1621 0 -106.109 -45.9932 -115.984 -102.001l-12.8711 -73h179z" />
    <glyph glyph-name="g" unicode="g" horiz-adv-x="633" 
d="M375.045 505c80.4561 0 140.215 -29.9668 170.894 -80.001l11.9902 68h74l-78.876 -453.002c-25.0986 -135.172 -132.47 -230 -288.556 -230c-82.7402 0 -151.72 24.3564 -186.333 69.001c-16.0225 20.667 -34.3115 48.334 -37.1025 93.001h75
c12.0049 -34 32.2432 -49.667 57.1865 -67s59.415 -26 103.415 -26c110.173 0 186.075 74.1494 203.152 171l10.5791 60c-44.6367 -47.208 -111.898 -81 -199.282 -81c-105.13 0 -175.899 60.0381 -198.02 144.502c-18.7402 71.5684 3.67285 140.776 33.2373 188.5
c34.8193 56.2021 88.6318 101.341 153.629 125.499c31.3906 11.667 63.0859 17.5 95.0859 17.5zM313.751 94.9971c57.1709 0 98.7207 22.1895 133.404 50.502c46.3799 37.8594 90.5371 112.741 67.2646 199.998c-14.1299 52.9707 -72.208 93.5 -140.013 93.5
c-78.1328 0 -139.984 -40.0537 -174.164 -86c-29.2197 -39.2803 -53.1914 -110.218 -30.0625 -170.5c19.6865 -51.3105 71.1133 -87.5 143.57 -87.5z" />
    <glyph glyph-name="h" unicode="h" horiz-adv-x="625" 
d="M236.47 411c44.625 52.9385 111.327 94 202.575 94c85.9033 0 138.449 -42.0352 158.839 -111.499c8.12207 -27.667 8.83203 -60.5 2.13184 -98.5l-52.0166 -295h-76l49.5479 281c15.7598 89.376 -26.7256 154 -109.846 154
c-118.46 0 -186.766 -89.4199 -205.913 -198.001l-41.7891 -237h-76l126.955 720h76z" />
    <glyph glyph-name="i" unicode="i" horiz-adv-x="295" 
d="M273.194 693c27.4268 0 47.9834 -22.7832 43.0088 -51c-4.65039 -26.375 -30.5928 -51 -60.9932 -51c-29.2422 0 -49.376 20.5488 -44.0068 51.001c4.50391 25.5498 32.2168 50.999 61.9912 50.999zM178 0h-77l86.9297 493h77z" />
    <glyph glyph-name="j" unicode="j" horiz-adv-x="285" 
d="M273.194 693c27.4268 0 47.9834 -22.7832 43.0088 -51c-4.65039 -26.375 -30.5928 -51 -60.9932 -51c-29.2422 0 -49.376 20.5488 -44.0068 51.001c4.50391 25.5498 32.2168 50.999 61.9912 50.999zM-27.7402 -163.001l11.6367 66
c15.374 -7.33301 30.3936 -11 45.0605 -11c39.8145 0 69.6816 26.5537 75.7568 61l95.2158 540h77l-96.8027 -549c-11.7461 -66.6074 -66.1309 -124 -145.865 -124c-28.667 0 -38.001 5.66699 -62.002 17z" />
    <glyph glyph-name="k" unicode="k" horiz-adv-x="599" 
d="M589 0h-97l-169.092 232l-139.865 -124l-19.043 -108h-76l126.955 720h76l-89.9268 -510l324.901 283h92l-233.5 -207z" />
    <glyph glyph-name="l" unicode="l" horiz-adv-x="252" 
d="M164 0h-76l126.955 720h76z" />
    <glyph glyph-name="m" unicode="m" horiz-adv-x="946" 
d="M571.412 405c43.3467 53.7285 112.65 100 203.634 100c103.804 0 170.594 -76.0439 151.204 -186.002l-56.248 -319h-76l53.9561 306c13.4102 76.0557 -30.0088 129 -104.255 129c-105.955 0 -166.025 -85.2119 -183.268 -182.999l-44.4346 -252h-76l53.9561 306
c13.6357 77.3369 -30.4727 129.001 -103.255 129.001c-105.902 0 -165.03 -85.2441 -182.268 -182.999l-44.4346 -252h-76l86.9297 493h76l-13.2246 -75c40.0791 48.0078 101.006 86.999 183.341 86.999c75.752 0 133.626 -40.248 150.366 -100z" />
    <glyph glyph-name="n" unicode="n" horiz-adv-x="624" 
d="M236.47 411c44.625 52.9385 111.327 94 202.575 94c85.9033 0 138.449 -42.0352 158.839 -111.499c8.12207 -27.667 8.83203 -60.5 2.13184 -98.5l-52.0166 -295h-76l49.5479 281c15.7598 89.376 -26.7256 154 -109.846 154
c-118.46 0 -186.766 -89.4199 -205.913 -198.001l-41.7891 -237h-76l86.9297 493h76z" />
    <glyph glyph-name="o" unicode="o" horiz-adv-x="608" 
d="M393.869 504c113.334 0 191.258 -62.5479 213.758 -154.496c18.8926 -77.2061 -5.75293 -154.096 -36.2354 -205.501c-36.5781 -61.6846 -93.6787 -110.923 -164.157 -137c-34.2334 -12.667 -69.0166 -19 -104.35 -19c-114.831 0 -192.05 62.6123 -214.493 156
c-16.7402 69.6553 1.57617 136.102 26.6494 187.999c30.3682 62.8564 96.3135 124.188 167.037 150.498c38.5273 14.333 75.791 21.5 111.791 21.5zM314.698 55.0039c57.7373 0 106.032 24.7324 140.435 53.499c38.0156 31.7871 69.2676 80.9102 79.4219 138.5
c15.8223 89.7354 -23.998 149.377 -83.9668 176.002c-21.0215 9.33301 -43.8652 14 -68.5322 14c-54.2793 0 -96.665 -20.0283 -130.257 -44c-57.5908 -41.0957 -121.277 -141.178 -83.5244 -244.001c20.0566 -54.626 76.0713 -94 146.424 -94z" />
    <glyph glyph-name="p" unicode="p" horiz-adv-x="649" 
d="M236.999 414c47.1133 49.9209 121.467 90.998 212.046 90.998c107.942 0 179.001 -64.7676 199.258 -154.502c17.7686 -78.7109 -6.75293 -156.958 -36.8516 -208.997c-35.3438 -61.1074 -89.7588 -110.041 -157.48 -135.999
c-32.1748 -12.333 -64.2617 -18.5 -96.2617 -18.5c-83.7773 0 -148.012 36.9609 -179.955 91l-43.7295 -248h-76l116.905 663h76zM357.697 54.9961c52 0 98.7803 17.6699 140.344 53.0029c41.5625 35.333 67.3408 81.333 77.333 138
c14.7812 83.8252 -15.5166 143.227 -69.9082 173.499c-22.1582 12.333 -48.9033 18.5 -80.2363 18.5c-55.0557 0 -102.865 -24.5801 -136.256 -52.5c-53.8623 -45.04 -110.349 -139.696 -73.376 -237.501c20.1084 -53.1992 74.1104 -93.001 142.1 -93.001z" />
    <glyph glyph-name="q" unicode="q" horiz-adv-x="649" 
d="M378.045 505c83.7773 0 148.011 -36.96 179.954 -90.999l13.9307 79h76l-116.905 -662.998h-76l43.7295 248c-47.1133 -49.9209 -121.467 -91 -212.046 -91c-107.944 0 -179.001 64.7646 -199.258 154.5c-17.7686 78.7119 6.75293 156.959 36.8525 208.998
c35.3438 61.1074 89.7588 110.041 157.48 135.999c32.1748 12.333 64.2617 18.5 96.2617 18.5zM310.697 55.0029c74.4336 0 139.409 44.4248 174.9 92.9971c22.4072 30.667 36.667 63.334 42.7793 98.001c14.748 83.6318 -20.5693 142.201 -73.4951 173.001
c-21.7666 12.667 -47.3164 19 -76.6494 19c-86.5762 0 -144.192 -45.7158 -182.311 -101c-17.4678 -25.333 -29.3154 -55.666 -35.5459 -90.999c-19.7246 -111.86 45.8096 -191 150.321 -191z" />
    <glyph glyph-name="r" unicode="r" horiz-adv-x="412" 
d="M230.594 371.999c46.9062 64.4287 118.979 126.001 220.217 126.001c14 0 25.4336 -1.33301 34.2959 -4l-18.8721 -73l-28.8232 1c-101.396 0 -162.388 -55.502 -201.866 -124.001c-17.2891 -30 -29.6377 -66 -37.043 -108l-33.502 -190h-77l86.9287 493h77z" />
    <glyph glyph-name="s" unicode="s" horiz-adv-x="506" 
d="M69.4512 133l76.0029 0.00195312c0.981445 -13.333 11.6523 -38.833 35.5371 -56.5s55.4941 -26.5 94.8271 -26.5c65.5508 0 123.325 30.1963 132.812 83.999c8.10352 45.9541 -29.1455 61.5371 -68.4805 71l-108.592 25c-65.6006 14.2832 -119.354 49.0303 -105.783 126
c16.0527 91.041 104.741 149 213.272 149c98.4912 0 172.116 -48.1416 176.843 -137h-73c-2.62988 15.333 -13.623 33.333 -33.6836 50c-20.0615 16.667 -47.7588 25 -83.0918 25c-60.4971 0 -114.083 -28.8252 -123.283 -80.999c-2.46777 -14 -0.09375 -27 7.12402 -39
c7.2168 -12 25.8457 -21.667 55.8848 -29l114.416 -26c61.9258 -13.791 118.328 -49.1699 104.254 -129.002c-17.1035 -96.9941 -109.994 -152 -225.802 -152c-104.438 0 -194.101 44.5762 -189.257 146z" />
    <glyph glyph-name="t" unicode="t" horiz-adv-x="394" 
d="M374.693 89l-12.873 -73.001c-41.5654 -24 -55.4463 -29 -94.1133 -29c-99.8662 0 -152.317 60.585 -133.553 167l48.4902 275h-107l11.2842 64h107l27.6836 157h77l-27.6836 -157h175l-11.2842 -64h-175l-47.6084 -270c-10.708 -60.7207 17.1855 -100 73.3662 -100
c31.209 0 68.1201 16.4385 89.291 30.001z" />
    <glyph glyph-name="u" unicode="u" horiz-adv-x="624" 
d="M474.282 80.9971c-44.2803 -51.5977 -112.638 -92.999 -202.397 -92.999c-85.9014 0 -138.449 42.0391 -158.839 111.502c-8.12207 27.667 -8.83301 60.5 -2.13184 98.5l52.0166 295h77l-49.5488 -281c-15.7617 -89.3965 25.8867 -153 109.022 -153
c118.506 0 186.575 88.334 205.735 197l41.79 237h77l-86.7539 -492.003h-77z" />
    <glyph glyph-name="v" unicode="v" horiz-adv-x="555" 
d="M623.93 493l-304.93 -493h-83l-131.07 493h83l105.939 -403l247.061 403h83z" />
    <glyph glyph-name="w" unicode="w" horiz-adv-x="769" 
d="M837.93 493l-253.282 -495h-71l-63.0537 374l-195.946 -374h-71l-78.7178 495h77l59.6426 -382l199.357 382h61l64.6426 -382l194.357 382h77z" />
    <glyph glyph-name="x" unicode="x" horiz-adv-x="578" 
d="M387.848 243l145.152 -243h-92l-117.264 197l-186.736 -197h-92l230.848 243l-143.918 250h92l116.205 -203l187.795 203h92z" />
    <glyph glyph-name="y" unicode="y" horiz-adv-x="563" 
d="M631.93 493l-418.905 -663h-85l112.21 177l-135.305 486h86l106.526 -394l249.474 394h85z" />
    <glyph glyph-name="z" unicode="z" horiz-adv-x="506" 
d="M477.285 64l-11.2852 -64h-426l9.16895 52l387.476 377h-312l11.2852 64h407l-9.3457 -53l-387.299 -376h331z" />
    <glyph glyph-name="braceleft" unicode="{" horiz-adv-x="430" 
d="M411.021 675c-41.4541 0 -70.3467 -30.335 -76.8115 -67.001l-29.6211 -168.002c-9.14258 -51.8428 -42.6758 -93.8594 -86.5742 -111.001c35.1855 -17.2637 57.1289 -55.9795 47.6045 -109.997l-29.623 -168c-7.10059 -40.2715 14.8809 -68 53.0098 -68h83l-11.4609 -65
h-92c-70.8428 0 -121.795 46.5488 -107.783 126.001l29.4463 167c8.99023 50.9961 -25.8164 77.4961 -70.1904 84l-22.1182 5l10.4033 59l23.8809 5c51.6992 6.48145 91.1846 35.0703 99.8115 83.999l29.4473 167c12.1807 69.0869 72.9248 126.001 152.217 126.001h92
l-11.6377 -66h-83z" />
    <glyph glyph-name="bar" unicode="|" horiz-adv-x="250" 
d="M149.305 -72h-74l143.354 813h74z" />
    <glyph glyph-name="braceright" unicode="}" horiz-adv-x="430" 
d="M448.302 359l-10.4023 -58.999l-23.8818 -5c-51.0342 -7.1123 -91.4102 -36.3428 -99.8125 -84.001l-29.4463 -167c-12.0771 -68.4824 -69.9551 -126 -152.219 -126h-92l11.4619 65h83c41.4229 0 70.5352 31.3916 76.9902 68l29.623 168
c9.08887 51.5479 43.1592 91.9131 86.3955 109.998c-36.1035 16.3496 -57.0371 56.5117 -47.4277 111.002l29.623 168c7.10449 40.2939 -15.0693 67 -53.1865 67h-83l11.6377 66h92c72.7637 0 121.163 -50.1123 107.783 -126.001l-29.4473 -167
c-9.2373 -52.3945 24.5635 -78.0146 70.1895 -83.999z" />
    <glyph glyph-name="asciitilde" unicode="~" horiz-adv-x="476" 
d="M214.722 299c-36.3018 0 -61.251 -26.7695 -64.7559 -61.002l-62.999 -0.00195312c9.28516 52.6602 34.2197 91.0264 73.3369 112.501c18.8213 10.333 38.8994 15.5 60.2324 15.5c20.3877 0 40.5449 -5.72754 54.1201 -13.499
c7.56836 -4.33301 20.7266 -13.833 39.4736 -28.5s36.1211 -22 52.1211 -22c36.4189 0 59.3984 29.502 64.1094 63.002h67c-9.46777 -53.6885 -36.1846 -92.9199 -76.1895 -114.5c-19.1553 -10.333 -39.7334 -15.5 -61.7334 -15.5c-17.333 0 -31.8623 2.66699 -43.5889 8
s-27.5127 16 -47.3584 32s-37.7686 24 -53.7686 24z" />
    <glyph glyph-name="exclamdown" unicode="&#xa1;" horiz-adv-x="269" 
d="M206.236 404c-27.4014 0 -48.1602 21.7812 -43.1836 50c4.6582 26.418 30.3945 50 60.8164 50c27.916 0 48.3096 -20.9287 43.1836 -50c-4.5127 -25.5889 -31.0078 -50 -60.8164 -50zM64.2021 -169c28.1113 157.238 56.7402 313.96 85.0498 471h78
c-26.7363 -156.946 -53.0146 -314.352 -80.0498 -471h-83z" />
    <glyph glyph-name="cent" unicode="&#xa2;" horiz-adv-x="576" 
d="M335.403 58.999c73.0889 8.18945 130.882 56.3867 157.395 110.002l66.6504 -19c-28.8311 -63.1729 -70.9141 -102.068 -136.216 -134.5c-28.8604 -14.333 -61.6436 -23.5 -98.3496 -27.5l-20.8066 -118h-66l21.1592 120
c-84.8945 12.8174 -145.683 65.8105 -167.99 138.998c-26.0439 85.4473 3.83691 176.348 41.084 233c44.2158 67.251 121.376 126.267 217.187 140.001l22.5693 128h66l-22.2168 -126c93.9688 -10.3555 167.386 -70.6963 178.259 -163l-76.8799 -22
c-7.32031 63.4785 -53.3691 106.008 -115.897 114zM340.174 432c-90.248 -16.3799 -163.543 -93.8096 -179.799 -186c-17.7471 -100.656 34.4209 -169.495 114.382 -185z" />
    <glyph glyph-name="sterling" unicode="&#xa3;" horiz-adv-x="560" 
d="M592.113 658.5c-29.1201 16.333 -64.3467 24.5 -105.68 24.5c-113.107 0 -190.562 -58.7969 -232.864 -132.502c-15.8779 -27.667 -26.6387 -57.5 -32.2812 -89.5l-20.8066 -118h-85l-12.5186 -71h85l-36.3232 -206l-87.998 -17l-8.63965 -49h450l12.6934 72.002h-286
l35.2656 200h174l12.5195 71h-174l20.8066 118c14.4434 81.918 79.5332 146 172.743 146c44.667 0 80.8652 -14 102.596 -42z" />
    <glyph glyph-name="yen" unicode="&#xa5;" horiz-adv-x="666" 
d="M459.19 313h161l-10.5801 -60h-194l-13.2246 -75h194l-10.5791 -60h-194l-20.8066 -118h-79l20.8066 118h-190l10.5791 60h190l13.2246 75h-190l10.5801 60h157l-166.052 357h88l154.402 -338l272.598 338h91z" />
    <glyph glyph-name="section" unicode="&#xa7;" horiz-adv-x="532" 
d="M519.748 319.001c34.5381 -52.1777 7.96973 -128.087 -24.5938 -164.998c-19.9961 -22.667 -42.9941 -39.667 -68.9922 -51c38.6719 -51.7881 19.7461 -126.494 -14.7988 -169c-35.5713 -43.7705 -97.583 -75 -177.225 -75c-115.784 0 -193.604 58.958 -172.966 176
l69.4688 14c-12.3711 -85.5527 28.79 -130 111.077 -130c66.1162 0 119.821 38.6826 129.398 93.001c6.23047 35.333 -11.5 63.333 -53.1885 84l-136.539 65c-38.8262 18 -65.7402 38.333 -80.7441 61c-25.9893 39.2646 -16.3428 93.5039 3.53906 133.5
c17.3926 34.9883 54.2666 66.8027 91.0469 82.501c-18.377 22.3115 -27.5293 53.709 -20.6016 92.998c16.3438 92.6904 102.954 152 211.802 152c105.146 0 183.864 -56.6602 166.495 -173.001l-70.4678 -14c12.6143 79.1641 -27.7627 125 -102.961 125
c-64.8008 0 -120.257 -35.4834 -130.222 -92c-7.91699 -44.8955 19.6504 -66.7422 53.3652 -83.001l136.363 -66c38.8252 -18 65.7402 -38.333 80.7432 -61zM361.625 151.003l18.2363 -9.99902c42.3701 17.8301 73.4521 42.2666 81.8691 89.999
c3.29199 18.667 0.201172 35.167 -9.27148 49.5s-27.9746 28.5 -55.5059 42.5l-137.187 67l-20.0605 11c-46.624 -18.667 -73.6396 -49 -81.0459 -91c-3.29102 -18.667 -0.170898 -35 9.36035 -49s28.0625 -28 55.5947 -42z" />
    <glyph glyph-name="dieresis" unicode="&#xa8;" horiz-adv-x="600" 
d="M320.726 679c27.376 0 48.9814 -22.7939 44.0068 -50.999c-4.65137 -26.376 -31.6016 -51 -61.9922 -51c-27.9365 0 -48.1328 21.9365 -43.0078 51c4.50684 25.5518 31.2002 50.999 60.9932 50.999zM518.726 679c27.376 0 48.9814 -22.7939 44.0068 -50.999
c-4.65137 -26.376 -31.6016 -51 -61.9922 -51c-27.9365 0 -48.1328 21.9365 -43.0078 51c4.50684 25.5518 31.2002 50.999 60.9932 50.999z" />
    <glyph glyph-name="copyright" unicode="&#xa9;" horiz-adv-x="775" 
d="M506.432 683c100.065 0 179.541 -42.1895 227.544 -98.999c48.0869 -56.9111 76.6377 -143.827 57.7422 -250.997c-18.3301 -103.948 -76.5342 -190.223 -145.729 -248.001c-63.8535 -53.3164 -154.839 -98 -262.28 -98c-100.141 0 -179.671 41.1338 -227.72 98
c-47.8438 56.6211 -77.0107 141.727 -58.2705 248.001c18.4756 104.786 76.7236 192.938 146.258 250.997c63.7646 53.2441 155.145 98.999 262.456 98.999zM499.73 645c-95.0352 0 -174.627 -40.5449 -231.016 -88.001c-61.333 -51.6182 -113.508 -130.486 -129.82 -223
c-25.3359 -143.669 42.1572 -242.232 138.745 -284.999c34.6299 -15.333 72.2783 -23 112.945 -23c94.7314 0 174.551 40.5352 230.927 87.5c61.4365 51.1797 113.1 128.173 129.381 220.5c25.4355 144.257 -41.3018 245.088 -138.217 288
c-34.6299 15.333 -72.2783 23 -112.945 23zM426.913 197.999c65.083 0 121.504 45.7314 140.75 95l51.2363 -10c-21.1914 -59.1699 -70.876 -106.688 -133.806 -126.5c-22.2334 -7 -44.6836 -10.5 -67.3506 -10.5c-78.3721 0 -128.448 40.2041 -150.779 100.5
c-18.1973 49.1367 -3.67383 110.095 16.125 151c22.875 47.2607 63.1367 83.1768 113.28 106.5c27.2334 12.667 56.5166 19 87.8496 19c84.5449 0 155.052 -51.4033 153.548 -133.002l-54.9404 -11c-4.63867 53.4844 -47.7002 92.002 -107.777 92.002
c-79.0508 0 -143.63 -65.957 -155.98 -136c-13.7578 -78.0264 34.6602 -137 107.845 -137z" />
    <glyph glyph-name="ordfeminine" unicode="&#xaa;" horiz-adv-x="387" 
d="M169.683 571c21.6221 56.2139 72.4014 102 150.985 102c79.1426 0 130.563 -42.1748 115.96 -125.001l-36.1465 -205h-58l6.87598 39c-32.1914 -31.333 -73.6211 -47 -124.288 -47c-60.7559 0 -108.837 34.957 -97.3672 100.001c11.4902 65.1641 81.6943 98 157.28 98h91
l3.17383 18c8.25586 46.8174 -18.7207 76 -63.5996 76c-45.333 0 -77.3291 -22.667 -95.9902 -68zM244.83 378.999c59.4727 0 110.692 37.9619 119.869 90l4.4082 25h-86c-48.4209 0 -89.4863 -19.7686 -96.4033 -59c-6.6748 -37.8516 20.8398 -56 58.126 -56z" />
    <glyph glyph-name="guillemotleft" unicode="&#xab;" horiz-adv-x="415" 
d="M71.1973 262l153.387 178h78l-153.387 -178l90.6143 -178h-78zM236.197 262l153.387 178h78l-153.387 -178l90.6143 -178h-78z" />
    <glyph glyph-name="registered" unicode="&#xae;" horiz-adv-x="500" 
d="M370.432 683c107.587 0 186.006 -79.3418 164.557 -200.999c-13.54 -76.7852 -68.3027 -143.672 -131.77 -174.5c-34.9971 -17 -69.4961 -25.5 -103.496 -25.5c-107.74 0 -185.596 81.6963 -164.734 200c14.9453 84.7744 75.5225 155.186 150.944 183.999
c29.665 11.333 57.832 17 84.499 17zM304.658 310.001c79.4189 0 134.044 43.2373 169.895 93c30.7812 42.7256 49.6338 118.931 20.7109 177.001c-23.2578 46.6943 -68.4277 76 -129.597 76c-79.4707 0 -133.312 -43.4316 -168.986 -93.5
c-23.8076 -33.4121 -41.2588 -79.1201 -33.5693 -136.5c6.07617 -45.3438 32.2764 -77.3047 67.7197 -98.001c20.5518 -12 45.1602 -18 73.8271 -18zM415.12 565.001c25.2881 -24.5615 11.751 -64.1826 -9.81152 -84c-12.3311 -11.333 -26.7324 -18.333 -43.2031 -21
l54.1865 -67h-36l-51.5391 65h-41l-11.4609 -65h-28l33.3252 189h83c22 0 38.834 -5.66699 50.5029 -17zM292.337 484l54 -0.000976562c26.6338 0 49.625 14.8828 53.5244 37c4.25977 24.1572 -15.3516 36.001 -39.6523 36.001h-55z" />
    <glyph glyph-name="macron" unicode="&#xaf;" horiz-adv-x="600" 
d="M544.975 584h-284l10.9326 62h284z" />
    <glyph glyph-name="degree" unicode="&#xb0;" horiz-adv-x="407" 
d="M324.432 683c71.543 0 126.763 -52.376 112.549 -132.998c-12.25 -69.4619 -76.5195 -131 -159.099 -131c-70.6504 0 -126.919 51.5107 -112.901 131c8.72363 49.4863 39.0732 87.8672 81.1602 111.498c25.5273 14.333 51.624 21.5 78.291 21.5zM286.697 469.002
c47.7764 0 87.9111 39.1719 95.4609 82c8.1084 45.9707 -21.9316 82 -66.543 82c-47.7773 0 -87.9072 -39.1729 -95.46 -82c-8.10449 -45.9707 21.9307 -82 66.542 -82z" />
    <glyph glyph-name="plusminus" unicode="&#xb1;" horiz-adv-x="580" 
d="M579.473 394l-11.9902 -68h-186l-29.623 -168h-68l29.623 168h-186l11.9902 68h186l31.3867 178h68l-31.3867 -178h186zM81.9902 68h440l-11.9902 -68h-440z" />
    <glyph glyph-name="acute" unicode="&#xb4;" horiz-adv-x="600" 
d="M413.978 567h-67l104.686 140h89z" />
    <glyph glyph-name="paragraph" unicode="&#xb6;" horiz-adv-x="561" 
d="M340 0l-60.999 -0.00195312l52.7217 299h-50c-110.393 0 -197.636 64.457 -175.674 189.002c19.4609 110.366 101.596 182 227.09 182h125zM473.001 -0.00195312h-61l118.139 670h61z" />
    <glyph glyph-name="periodcentered" unicode="&#xb7;" horiz-adv-x="204" 
d="M157.366 314c27.4268 0 47.9844 -22.7822 43.0078 -50.999c-4.6582 -26.418 -30.3945 -50 -60.8164 -50c-27.916 0 -48.3096 20.9287 -43.1836 50c4.50684 25.5518 31.2002 50.999 60.9922 50.999z" />
    <glyph glyph-name="cedilla" unicode="&#xb8;" horiz-adv-x="600" 
d="M293 0h59l-106.976 -170h-83z" />
    <glyph glyph-name="ordmasculine" unicode="&#xba;" horiz-adv-x="439" 
d="M337.668 673c92.9961 0 161.215 -66.8369 143.202 -168.998c-11.624 -65.9141 -58.4883 -122.399 -113.597 -148.001c-30.1357 -14 -59.8701 -21 -89.2031 -21c-74.4619 0 -124.109 41.8438 -140.103 101.5c-12.2451 45.6758 0.0136719 89.2422 17.2764 123.499
c21.2334 42.1367 57.9785 75.1182 103.427 96c24.665 11.333 50.9971 17 78.9971 17zM287.415 388.002c68.3945 0 124.714 55.0869 135.453 115.999c11.4902 65.1523 -30.9316 115.999 -94.5459 115.999c-67.0508 0 -122.887 -56.0801 -133.453 -115.999
c-11.5469 -65.4912 32.0273 -115.999 92.5459 -115.999z" />
    <glyph glyph-name="guillemotright" unicode="&#xbb;" horiz-adv-x="415" 
d="M39.8115 84l153.386 178l-90.6133 178h78l90.6133 -178l-153.386 -178h-78zM204.812 84l153.386 178l-90.6133 178h78l90.6133 -178l-153.386 -178h-78z" />
    <glyph glyph-name="onequarter" unicode="&#xbc;" horiz-adv-x="702" 
d="M211.562 593l-91.9922 -51l10.9326 62l114.637 66h38l-65.0645 -369h-58zM739.139 670l-619.139 -670h-55l619.139 670h55zM691.635 83h-58l-14.6348 -83h-55l14.6348 83h-203l9.52246 54l231.907 232h67l-41.9658 -238h58zM587.099 131l31.0342 176l-177.034 -176h146z
" />
    <glyph glyph-name="onehalf" unicode="&#xbd;" horiz-adv-x="777" 
d="M211.562 593l-91.9922 -51l10.9326 62l114.637 66h38l-65.0645 -369h-58zM730.139 670l-619.139 -670h-55l619.139 670h55zM518.494 240.998c13.0908 74.2393 70.9609 135 157.805 135c68.5107 0 123.874 -40.4189 110.369 -117
c-4.4668 -25.333 -15.8252 -48.166 -34.0781 -68.499c-18.252 -20.333 -44.6113 -43.166 -79.0781 -68.499l-96.5186 -71h175l-9.16992 -52.002h-268l6.87695 39l161.159 120c29.8789 22 51.2197 40 64.0215 54c21.5039 23.5176 37.6426 67.7793 11.4277 96
c-11.7666 12.667 -28.6504 19 -50.6504 19c-52.8193 0 -85.8027 -39.6562 -95.1641 -86h-54z" />
    <glyph glyph-name="threequarters" unicode="&#xbe;" horiz-adv-x="793" 
d="M280.616 632.999c-51.8594 0 -87.9453 -34.9443 -97.1084 -80.001l-52.8242 1c8.23047 35.333 30.293 73.5 58.6631 94.5s61.5547 31.5 99.5547 31.5c67.9697 0 123.283 -38.085 111.133 -107c-6.34766 -36 -29.2061 -61.667 -68.5771 -77
c31.5859 -12.8389 56.0449 -39.4326 48.1875 -83.998c-11.4424 -64.9072 -76.3291 -114.002 -155.101 -114.002c-77.3018 0 -132.417 48.6182 -119.195 135.001h51c-6.48535 -52.4434 24.792 -86.002 76.835 -86.002c45.2051 0 84.9531 28.0859 91.6377 66.001
c7.37695 41.8311 -26.542 60.001 -68.4199 60.001h-37l7.40625 42h33c42.4395 0 80.6982 20.9668 86.875 56c6.99316 39.6592 -26.9658 62 -66.0664 62zM831.137 669.998l-619.139 -670h-55l619.139 670h55zM783.633 82.998h-58l-14.6348 -83h-55l14.6348 83h-203
l9.52148 54l231.908 232h67l-41.9658 -238h58zM679.097 130.998l31.0332 176l-177.033 -176h146z" />
    <glyph glyph-name="questiondown" unicode="&#xbf;" horiz-adv-x="522" 
d="M222.908 -182c-125.829 0 -209.105 78.7705 -186.144 209c12.3252 69.9014 54.3779 122.27 113.684 156.999c36.4287 21.333 118.584 26 125.99 68l8.28711 47h71l-8.46387 -48c-13.4004 -76 -84.6953 -89 -127.573 -102.5
c-53.6123 -16.877 -97.666 -63.3213 -107.924 -121.499c-15.3984 -87.333 39.4395 -140 123.313 -140c45.333 0 84.6934 14.333 118.081 43s53.4521 52.667 65.1318 100h74c-12.0469 -58.2881 -39.6504 -100.492 -81.1855 -140c-42.8701 -40.7764 -111.259 -72 -188.197 -72
zM339.063 403c-27.4258 0 -47.9834 22.7822 -43.0068 50.999c4.6582 26.418 30.3945 50 60.8164 50c27.916 0 48.3096 -20.9287 43.1836 -50c-4.50684 -25.5518 -31.2012 -50.999 -60.9932 -50.999z" />
    <glyph glyph-name="Agrave" unicode="&#xc0;" horiz-adv-x="693" 
d="M425.163 883l54.3145 -140h-66l-77.3145 140h89zM683 0h-85l-45.0244 170h-353l-104.976 -170h-85l418.139 670h73zM534.495 241l-86.6357 331l-204.364 -331h291z" />
    <glyph glyph-name="Aacute" unicode="&#xc1;" horiz-adv-x="693" 
d="M479.978 743h-67l104.686 140h89zM683 0h-85l-45.0244 170h-353l-104.976 -170h-85l418.139 670h73zM534.495 241l-86.6357 331l-204.364 -331h291z" />
    <glyph glyph-name="Acircumflex" unicode="&#xc2;" horiz-adv-x="693" 
d="M520.066 743l-58.6016 93l-92.3984 -93h-77l141.039 142h73l91.9609 -142h-78zM683 0h-85l-45.0244 170h-353l-104.976 -170h-85l418.139 670h73zM534.495 241l-86.6357 331l-204.364 -331h291z" />
    <glyph glyph-name="Atilde" unicode="&#xc3;" horiz-adv-x="693" 
d="M399.998 791c-25.46 0 -40.8613 -21.9014 -44.9346 -44.999l-54.001 -0.000976562c9.88086 56.04 46.1299 102 104.985 102c21.333 0 40.9316 -7 58.7959 -21c17.8652 -14 30.4541 -22 37.7686 -24s12.9707 -3 16.9707 -3c25.9043 0 41.0967 23.2354 45.2881 47h54
c-9.47168 -53.707 -43.6299 -104 -105.337 -104c-21.333 0 -40.9326 7 -58.7969 21s-30.4531 22 -37.7676 24s-12.9717 3 -16.9717 3zM683 0h-85l-45.0244 170h-353l-104.976 -170h-85l418.139 670h73zM534.495 241l-86.6357 331l-204.364 -331h291z" />
    <glyph glyph-name="Adieresis" unicode="&#xc4;" horiz-adv-x="693" 
d="M366.726 844.999c27.376 0 48.9824 -22.7939 44.0078 -50.999c-4.65137 -26.376 -31.6016 -51 -61.9922 -51c-27.9365 0 -48.1328 21.9365 -43.0078 51c4.50684 25.5518 31.1992 50.999 60.9922 50.999zM564.726 844.999c27.376 0 48.9824 -22.7939 44.0078 -50.999
c-4.65137 -26.376 -31.6016 -51 -61.9922 -51c-27.9365 0 -48.1328 21.9365 -43.0078 51c4.50684 25.5518 31.1992 50.999 60.9922 50.999zM683 0h-85l-45.0244 170h-353l-104.976 -170h-85l418.139 670h73zM534.495 241l-86.6357 331l-204.364 -331h291z" />
    <glyph glyph-name="Aring" unicode="&#xc5;" horiz-adv-x="693" 
d="M556.81 832.3c32.5293 -62.1133 -22.2266 -128.668 -67.7441 -146c-17.5078 -6.66699 -32.9287 -10 -46.2617 -10c-52.793 0 -95.5557 42.2158 -85.1914 101c9.06641 51.4209 59.0674 100.001 120.633 100.001c35.5361 0 64.5752 -18.2871 78.5645 -45.001z
M451.09 723.299c42.2812 0 89.0352 53.0352 55.7227 92.002c-9.11914 10.667 -21.3457 16 -36.6787 16c-42.2822 0 -89.0342 -53.0352 -55.7227 -92.002c9.11914 -10.667 21.3457 -16 36.6787 -16zM683 0h-85l-45.0244 170h-353l-104.976 -170h-85l418.139 670h73z
M534.495 241l-86.6357 331l-204.364 -331h291z" />
    <glyph glyph-name="AE" unicode="&#xc6;" horiz-adv-x="1040" 
d="M1000 72v-72h-489v155h-300l-109 -155h-92l480 670h509v-71h-409v-227h380v-71h-380v-229h410zM511 226v355l-250 -355h250z" />
    <glyph glyph-name="Ccedilla" unicode="&#xc7;" horiz-adv-x="777" 
d="M373.501 -7.33398h59l-106.976 -170h-83zM759.736 213.999c-58.0371 -122.338 -188.582 -227 -359.027 -227c-102.233 0 -180.99 42.4805 -229.191 101c-46.9482 56.999 -75.9541 142.04 -57.4473 247c18.1318 102.834 76.0957 188.805 144.553 247
c64.4424 54.7822 155.162 101 264.81 101c152.233 0 262.305 -87.6133 279.857 -221.999h-76c-7.26367 53.333 -33.9629 73 -72.3398 103s-86.5654 45 -144.565 45c-84.8271 0 -154.388 -36.8242 -204.02 -79.5c-53.1543 -45.7041 -98.0977 -113.974 -112.297 -194.5
c-22.2217 -126.023 35.8848 -214.479 119.891 -253c30.5312 -14 63.7969 -21 99.7969 -21c58.667 0 112.147 14.999 160.438 44.999s82.6885 54 109.543 108h76z" />
    <glyph glyph-name="Egrave" unicode="&#xc8;" horiz-adv-x="637" 
d="M410.663 883l54.3145 -140h-66l-77.3145 140h89zM589.695 72l-12.6953 -72h-489l118.139 670h488l-12.5186 -71h-409l-40.0264 -227h380l-12.5195 -71h-380l-40.3789 -229h410z" />
    <glyph glyph-name="Eacute" unicode="&#xc9;" horiz-adv-x="637" 
d="M465.478 743h-67l104.686 140h89zM589.695 72l-12.6953 -72h-489l118.139 670h488l-12.5186 -71h-409l-40.0264 -227h380l-12.5195 -71h-380l-40.3789 -229h410z" />
    <glyph glyph-name="Ecircumflex" unicode="&#xca;" horiz-adv-x="637" 
d="M505.566 743l-58.6016 93l-92.3984 -93h-77l141.039 142h73l91.9609 -142h-78zM589.695 72l-12.6953 -72h-489l118.139 670h488l-12.5186 -71h-409l-40.0264 -227h380l-12.5195 -71h-380l-40.3789 -229h410z" />
    <glyph glyph-name="Edieresis" unicode="&#xcb;" horiz-adv-x="637" 
d="M352.226 844.999c27.376 0 48.9824 -22.7939 44.0078 -50.999c-4.65137 -26.376 -31.6016 -51 -61.9922 -51c-27.9365 0 -48.1328 21.9365 -43.0078 51c4.50684 25.5518 31.1992 50.999 60.9922 50.999zM550.226 844.999c27.376 0 48.9824 -22.7939 44.0078 -50.999
c-4.65137 -26.376 -31.6016 -51 -61.9922 -51c-27.9365 0 -48.1328 21.9365 -43.0078 51c4.50684 25.5518 31.1992 50.999 60.9922 50.999zM589.695 72l-12.6953 -72h-489l118.139 670h488l-12.5186 -71h-409l-40.0264 -227h380l-12.5195 -71h-380l-40.3789 -229h410z" />
    <glyph glyph-name="Igrave" unicode="&#xcc;" horiz-adv-x="254" 
d="M206.163 883l54.3145 -140h-66l-77.3145 140h89zM167 0h-79l118.139 670h79z" />
    <glyph glyph-name="Iacute" unicode="&#xcd;" horiz-adv-x="254" 
d="M260.978 743h-67l104.686 140h89zM167 0h-79l118.139 670h79z" />
    <glyph glyph-name="Icircumflex" unicode="&#xce;" horiz-adv-x="254" 
d="M301.066 743l-58.6016 93l-92.3984 -93h-77l141.039 142h73l91.9609 -142h-78zM167 0h-79l118.139 670h79z" />
    <glyph glyph-name="Idieresis" unicode="&#xcf;" horiz-adv-x="254" 
d="M147.726 844.999c27.376 0 48.9824 -22.7939 44.0078 -50.999c-4.65137 -26.376 -31.6016 -51 -61.9922 -51c-27.9365 0 -48.1328 21.9365 -43.0078 51c4.50684 25.5518 31.1992 50.999 60.9922 50.999zM345.726 844.999c27.376 0 48.9824 -22.7939 44.0078 -50.999
c-4.65137 -26.376 -31.6016 -51 -61.9922 -51c-27.9365 0 -48.1328 21.9365 -43.0078 51c4.50684 25.5518 31.1992 50.999 60.9922 50.999zM167 0h-79l118.139 670h79z" />
    <glyph glyph-name="Eth" unicode="&#xd0;" horiz-adv-x="743" 
d="M223.139 670h222.001c163.401 0 280.312 -71.251 310.207 -203c22.7383 -100.209 -7.7168 -197.023 -46.4619 -263.5c-48.1914 -82.6836 -124.283 -144.42 -222.388 -178c-49.6641 -17 -102.83 -25.5 -159.497 -25.5h-222l53.251 302h-75l12.5186 71h75zM196.696 72
h142.999c144.934 0 246.801 67.459 300.714 160c30.2705 51.96 54.127 128.02 36.4111 206.5c-23.6309 104.68 -114.354 160.5 -244.199 160.5h-143l-39.8506 -226h164l-12.5186 -71h-164z" />
    <glyph glyph-name="Ntilde" unicode="&#xd1;" horiz-adv-x="760" 
d="M433.998 791c-25.46 0 -40.8613 -21.9014 -44.9346 -44.999l-54.001 -0.000976562c9.88086 56.04 46.1299 102 104.985 102c21.333 0 40.9316 -7 58.7959 -21c17.8652 -14 30.4541 -22 37.7686 -24s12.9707 -3 16.9707 -3c25.9043 0 41.0967 23.2354 45.2881 47h54
c-9.47168 -53.707 -43.6299 -104 -105.337 -104c-21.333 0 -40.9326 7 -58.7969 21s-30.4531 22 -37.7676 24s-12.9717 3 -16.9717 3zM791.139 670l-118.139 -670h-68l-344.194 532l-93.8057 -532h-79l118.139 670h68l343.137 -538l94.8633 538h79z" />
    <glyph glyph-name="Ograve" unicode="&#xd2;" horiz-adv-x="803" 
d="M480.663 883l54.3145 -140h-66l-77.3145 140h89zM522.432 683c100.82 0 180.074 -43.7949 227.604 -101.5c46.3096 -56.2236 75.3047 -142.893 57.0361 -246.5c-18.0898 -102.598 -76.1123 -188.728 -144.054 -247c-63.5957 -54.5459 -154.796 -101 -263.311 -101
c-101.902 0 -181.045 42.4121 -228.692 101c-46.4355 57.0977 -75.4053 142.322 -56.9482 247c17.8867 101.443 76.4473 189.103 143.966 246.5c63.8701 54.2959 155.386 101.5 264.398 101.5zM412.933 62c83.8096 0 153.473 35.9951 202.341 78.502
c52.6377 45.7852 97.6387 114.21 111.796 194.5c22.084 125.258 -35.1943 214.431 -118.39 253c-30.1982 14 -63.2969 21 -99.2969 21c-83.6982 0 -154.769 -37.0957 -203.519 -79.5c-52.6367 -45.7852 -97.6396 -114.21 -111.795 -194.5
c-20.7383 -117.604 30.9844 -211.601 113.006 -249.502c33.9043 -15.667 69.1904 -23.5 105.857 -23.5z" />
    <glyph glyph-name="Oacute" unicode="&#xd3;" horiz-adv-x="803" 
d="M535.478 743h-67l104.686 140h89zM522.432 683c100.82 0 180.074 -43.7949 227.604 -101.5c46.3096 -56.2236 75.3047 -142.893 57.0361 -246.5c-18.0898 -102.598 -76.1123 -188.728 -144.054 -247c-63.5957 -54.5459 -154.796 -101 -263.311 -101
c-101.902 0 -181.045 42.4121 -228.692 101c-46.4355 57.0977 -75.4053 142.322 -56.9482 247c17.8867 101.443 76.4473 189.103 143.966 246.5c63.8701 54.2959 155.386 101.5 264.398 101.5zM412.933 62c83.8096 0 153.473 35.9951 202.341 78.502
c52.6377 45.7852 97.6387 114.21 111.796 194.5c22.084 125.258 -35.1943 214.431 -118.39 253c-30.1982 14 -63.2969 21 -99.2969 21c-83.6982 0 -154.769 -37.0957 -203.519 -79.5c-52.6367 -45.7852 -97.6396 -114.21 -111.795 -194.5
c-20.7383 -117.604 30.9844 -211.601 113.006 -249.502c33.9043 -15.667 69.1904 -23.5 105.857 -23.5z" />
    <glyph glyph-name="Ocircumflex" unicode="&#xd4;" horiz-adv-x="803" 
d="M575.566 743l-58.6016 93l-92.3984 -93h-77l141.039 142h73l91.9609 -142h-78zM522.432 683c100.82 0 180.074 -43.7949 227.604 -101.5c46.3096 -56.2236 75.3047 -142.893 57.0361 -246.5c-18.0898 -102.598 -76.1123 -188.728 -144.054 -247
c-63.5957 -54.5459 -154.796 -101 -263.311 -101c-101.902 0 -181.045 42.4121 -228.692 101c-46.4355 57.0977 -75.4053 142.322 -56.9482 247c17.8867 101.443 76.4473 189.103 143.966 246.5c63.8701 54.2959 155.386 101.5 264.398 101.5zM412.933 62
c83.8096 0 153.473 35.9951 202.341 78.502c52.6377 45.7852 97.6387 114.21 111.796 194.5c22.084 125.258 -35.1943 214.431 -118.39 253c-30.1982 14 -63.2969 21 -99.2969 21c-83.6982 0 -154.769 -37.0957 -203.519 -79.5
c-52.6367 -45.7852 -97.6396 -114.21 -111.795 -194.5c-20.7383 -117.604 30.9844 -211.601 113.006 -249.502c33.9043 -15.667 69.1904 -23.5 105.857 -23.5z" />
    <glyph glyph-name="Otilde" unicode="&#xd5;" horiz-adv-x="803" 
d="M455.498 791c-25.46 0 -40.8613 -21.9014 -44.9346 -44.999l-54.001 -0.000976562c9.88086 56.04 46.1299 102 104.985 102c21.333 0 40.9316 -7 58.7959 -21c17.8652 -14 30.4541 -22 37.7686 -24s12.9707 -3 16.9707 -3c25.9043 0 41.0967 23.2354 45.2881 47h54
c-9.47168 -53.707 -43.6299 -104 -105.337 -104c-21.333 0 -40.9326 7 -58.7969 21s-30.4531 22 -37.7676 24s-12.9717 3 -16.9717 3zM522.432 683c100.82 0 180.074 -43.7949 227.604 -101.5c46.3096 -56.2236 75.3047 -142.893 57.0361 -246.5
c-18.0898 -102.598 -76.1123 -188.728 -144.054 -247c-63.5957 -54.5459 -154.796 -101 -263.311 -101c-101.902 0 -181.045 42.4121 -228.692 101c-46.4355 57.0977 -75.4053 142.322 -56.9482 247c17.8867 101.443 76.4473 189.103 143.966 246.5
c63.8701 54.2959 155.386 101.5 264.398 101.5zM412.933 62c83.8096 0 153.473 35.9951 202.341 78.502c52.6377 45.7852 97.6387 114.21 111.796 194.5c22.084 125.258 -35.1943 214.431 -118.39 253c-30.1982 14 -63.2969 21 -99.2969 21
c-83.6982 0 -154.769 -37.0957 -203.519 -79.5c-52.6367 -45.7852 -97.6396 -114.21 -111.795 -194.5c-20.7383 -117.604 30.9844 -211.601 113.006 -249.502c33.9043 -15.667 69.1904 -23.5 105.857 -23.5z" />
    <glyph glyph-name="Odieresis" unicode="&#xd6;" horiz-adv-x="803" 
d="M422.226 844.999c27.376 0 48.9824 -22.7939 44.0078 -50.999c-4.65137 -26.376 -31.6016 -51 -61.9922 -51c-27.9365 0 -48.1328 21.9365 -43.0078 51c4.50684 25.5518 31.1992 50.999 60.9922 50.999zM620.226 844.999c27.376 0 48.9824 -22.7939 44.0078 -50.999
c-4.65137 -26.376 -31.6016 -51 -61.9922 -51c-27.9365 0 -48.1328 21.9365 -43.0078 51c4.50684 25.5518 31.1992 50.999 60.9922 50.999zM522.432 683c100.82 0 180.074 -43.7949 227.604 -101.5c46.3096 -56.2236 75.3047 -142.893 57.0361 -246.5
c-18.0898 -102.598 -76.1123 -188.728 -144.054 -247c-63.5957 -54.5459 -154.796 -101 -263.311 -101c-101.902 0 -181.045 42.4121 -228.692 101c-46.4355 57.0977 -75.4053 142.322 -56.9482 247c17.8867 101.443 76.4473 189.103 143.966 246.5
c63.8701 54.2959 155.386 101.5 264.398 101.5zM412.933 62c83.8096 0 153.473 35.9951 202.341 78.502c52.6377 45.7852 97.6387 114.21 111.796 194.5c22.084 125.258 -35.1943 214.431 -118.39 253c-30.1982 14 -63.2969 21 -99.2969 21
c-83.6982 0 -154.769 -37.0957 -203.519 -79.5c-52.6367 -45.7852 -97.6396 -114.21 -111.795 -194.5c-20.7383 -117.604 30.9844 -211.601 113.006 -249.502c33.9043 -15.667 69.1904 -23.5 105.857 -23.5z" />
    <glyph glyph-name="multiply" unicode="&#xd7;" horiz-adv-x="507" 
d="M356.779 305l116.139 -141l-57.6406 -49l-116.138 141l-166.862 -141l-40.3594 49l165.861 141l-116.138 141l57.8164 50l117.138 -141l165.862 141l40.1836 -50z" />
    <glyph glyph-name="Oslash" unicode="&#xd8;" horiz-adv-x="803" 
d="M402 683c92.873 0 171.704 -36.9941 225 -81.999l60 60l46 -46l-61.001 -61c42.8428 -52.3633 76 -128.992 76 -219.001c0 -105.652 -44.5703 -190.481 -100.501 -247c-55.6807 -56.2656 -140.621 -101 -245.502 -101c-89.8213 0 -167.798 34.2891 -219.999 77l-65 -65
l-46 46l65 65c-45.1094 53.4199 -80.999 131.952 -80.999 225c0 104.527 44.833 190.832 100.501 246.5c56.0264 56.0264 141.073 101.5 246.501 101.5zM572.998 547.001c-41.4219 34.3213 -99.7695 62 -170.999 62c-80.9141 0 -146.887 -35.7188 -189.5 -79.5
c-43.292 -44.4785 -77.5 -111.69 -77.5 -194.5c0 -64 18.666 -120.667 55.999 -170zM236.998 119.001c40.3721 -32.0596 96.7988 -57 165 -57c81.0088 0 145.797 34.627 188.5 78.5c43.292 44.4785 77.5 111.69 77.5 194.5c0 62 -17 116.667 -51 164z" />
    <glyph glyph-name="Ugrave" unicode="&#xd9;" horiz-adv-x="721" 
d="M450.163 883l54.3145 -140h-66l-77.3145 140h89zM210.663 292.998c-23.0811 -130.901 35.2324 -230 162.445 -230c127.925 0 217.732 100.564 240.556 230.002l66.4746 377h79l-66.4736 -377.002c-25.085 -142.265 -107.715 -241.336 -216.077 -284
c-37.2539 -14.667 -76.2139 -22 -116.881 -22c-138.143 0 -211.715 77.7637 -229.908 182c-6.63281 38 -6.01172 79.333 1.86426 124l66.4756 377h79z" />
    <glyph glyph-name="Uacute" unicode="&#xda;" horiz-adv-x="721" 
d="M484.978 743h-67l104.686 140h89zM210.663 292.998c-23.0811 -130.901 35.2324 -230 162.445 -230c127.925 0 217.732 100.564 240.556 230.002l66.4746 377h79l-66.4736 -377.002c-25.085 -142.265 -107.715 -241.336 -216.077 -284
c-37.2539 -14.667 -76.2139 -22 -116.881 -22c-138.143 0 -211.715 77.7637 -229.908 182c-6.63281 38 -6.01172 79.333 1.86426 124l66.4756 377h79z" />
    <glyph glyph-name="Ucircumflex" unicode="&#xdb;" horiz-adv-x="721" 
d="M535.066 743l-58.6016 93l-92.3984 -93h-77l141.039 142h73l91.9609 -142h-78zM210.663 292.998c-23.0811 -130.901 35.2324 -230 162.445 -230c127.925 0 217.732 100.564 240.556 230.002l66.4746 377h79l-66.4736 -377.002
c-25.085 -142.265 -107.715 -241.336 -216.077 -284c-37.2539 -14.667 -76.2139 -22 -116.881 -22c-138.143 0 -211.715 77.7637 -229.908 182c-6.63281 38 -6.01172 79.333 1.86426 124l66.4756 377h79z" />
    <glyph glyph-name="Udieresis" unicode="&#xdc;" horiz-adv-x="721" 
d="M314 806c0 -28.2881 -24.4453 -51 -53 -51c-28.5908 0 -52 22.7051 -52 51c0 27.4443 23.9482 50.999 52 50.999c28.0176 0 53 -23.5605 53 -50.999zM512 806c0 -28.2881 -24.4453 -51 -53 -51c-28.5908 0 -52 22.7051 -52 51c0 27.4443 23.9482 50.999 52 50.999
c28.0176 0 53 -23.5605 53 -50.999zM159 292.998c0 -130.901 75.7881 -229.999 203 -229.999c127.925 0 200 100.564 200 230.002v377h79l0.00195312 -377.002c0 -142.265 -65.1611 -241.337 -166.001 -284.001c-34.667 -14.667 -72.334 -22 -113.001 -22
c-138.144 0 -225.427 77.7637 -262 182c-13.333 38 -20 79.333 -20 124v377h79v-377z" />
    <glyph glyph-name="Yacute" unicode="&#xdd;" horiz-adv-x="671" 
d="M468.978 743h-67l104.686 140h89zM415.437 235l-41.4365 -235h-79l41.2607 234l-200.122 436h88l165.052 -357l290.948 357h91z" />
    <glyph glyph-name="Thorn" unicode="&#xde;" horiz-adv-x="628" 
d="M167 549l192.999 -0.00195312c108.711 0 184.213 -51.2041 216.501 -128.498c11 -26.333 16.5 -54.833 16.5 -85.5c0 -104.413 -59.8301 -169.469 -138.5 -197.5c-29 -10.333 -60.5 -15.5 -94.5 -15.5h-193v-122h-79v670h79v-121zM514.998 334.998
c0 86.6807 -69.7646 142 -158.999 142h-189v-284h189c89.2588 0 158.999 55.3027 158.999 142z" />
    <glyph glyph-name="germandbls" unicode="&#xdf;" horiz-adv-x="656" 
d="M566.001 545c0 -79.6299 -44.6006 -137.812 -105.002 -160c86.499 -20.1172 150.001 -80.5654 150.001 -186c0 -124.239 -90.4863 -206.999 -216.001 -206.999c-55.9697 0 -120.424 14.3701 -161.999 31l14 64c36.3867 -15.2598 93.6543 -30.001 143 -30.001
c86.9678 0 155 58.3281 155 142c0 101.764 -88.0117 148 -194.999 148h-47v64h37c84.168 0 153 44.4961 153 125c0 84.0361 -67.4629 134 -154 134c-107.06 0 -175 -77.8945 -175 -187v-483h-76v478c0 153.361 96.2295 259 251 259c88.1152 0 164.482 -38.293 199 -95
c18.667 -30.667 28 -63 28 -97z" />
    <glyph glyph-name="agrave" unicode="&#xe0;" horiz-adv-x="545" 
d="M355.663 705l54.3145 -140h-66l-77.3145 140h89zM132.597 354.999c29.8779 84.0605 122.197 150.001 233.448 150.001c117.744 0 192.979 -62.502 171.38 -185l-56.4248 -320h-74l13.2246 75c-44.2949 -47.8184 -113.029 -88 -200.517 -88
c-96.2148 0 -169.606 53.2725 -152.375 151c17.1104 97.0342 107.199 154 225.155 154h166l4.05566 23c13.3955 75.9639 -29.5625 123 -104.312 123c-37.333 0 -69.8906 -8.83301 -97.6729 -26.5s-44.2227 -25.834 -54.9629 -56.501h-73zM241.816 50
c65.6035 0 119.047 28.6797 156.579 68.498c24.1924 25.667 39.1689 54.834 44.9287 87.501l4.58398 26h-167c-71.6387 0 -130.084 -34.5088 -140.397 -92.999c-10.4355 -59.1729 41.5986 -89 101.306 -89z" />
    <glyph glyph-name="aacute" unicode="&#xe1;" horiz-adv-x="545" 
d="M410.478 565h-67l104.686 140h89zM132.597 354.999c29.8779 84.0605 122.197 150.001 233.448 150.001c117.744 0 192.979 -62.502 171.38 -185l-56.4248 -320h-74l13.2246 75c-44.2949 -47.8184 -113.029 -88 -200.517 -88c-96.2148 0 -169.606 53.2725 -152.375 151
c17.1104 97.0342 107.199 154 225.155 154h166l4.05566 23c13.3955 75.9639 -29.5625 123 -104.312 123c-37.333 0 -69.8906 -8.83301 -97.6729 -26.5s-44.2227 -25.834 -54.9629 -56.501h-73zM241.816 50c65.6035 0 119.047 28.6797 156.579 68.498
c24.1924 25.667 39.1689 54.834 44.9287 87.501l4.58398 26h-167c-71.6387 0 -130.084 -34.5088 -140.397 -92.999c-10.4355 -59.1729 41.5986 -89 101.306 -89z" />
    <glyph glyph-name="acircumflex" unicode="&#xe2;" horiz-adv-x="545" 
d="M450.566 565l-58.6016 93l-92.3984 -93h-77l141.039 142h73l91.9609 -142h-78zM132.597 354.999c29.8779 84.0605 122.197 150.001 233.448 150.001c117.744 0 192.979 -62.502 171.38 -185l-56.4248 -320h-74l13.2246 75c-44.2949 -47.8184 -113.029 -88 -200.517 -88
c-96.2148 0 -169.606 53.2725 -152.375 151c17.1104 97.0342 107.199 154 225.155 154h166l4.05566 23c13.3955 75.9639 -29.5625 123 -104.312 123c-37.333 0 -69.8906 -8.83301 -97.6729 -26.5s-44.2227 -25.834 -54.9629 -56.501h-73zM241.816 50
c65.6035 0 119.047 28.6797 156.579 68.498c24.1924 25.667 39.1689 54.834 44.9287 87.501l4.58398 26h-167c-71.6387 0 -130.084 -34.5088 -140.397 -92.999c-10.4355 -59.1729 41.5986 -89 101.306 -89z" />
    <glyph glyph-name="atilde" unicode="&#xe3;" horiz-adv-x="545" 
d="M330.498 613c-25.46 0 -40.8613 -21.9014 -44.9346 -44.999l-54.001 -0.000976562c9.88086 56.04 46.1299 102 104.985 102c21.333 0 40.9316 -7 58.7959 -21c17.8652 -14 30.4541 -22 37.7686 -24s12.9707 -3 16.9707 -3c25.9043 0 41.0967 23.2354 45.2881 47h54
c-9.47168 -53.707 -43.6299 -104 -105.337 -104c-21.333 0 -40.9326 7 -58.7969 21s-30.4531 22 -37.7676 24s-12.9717 3 -16.9717 3zM132.597 354.999c29.8779 84.0605 122.197 150.001 233.448 150.001c117.744 0 192.979 -62.502 171.38 -185l-56.4248 -320h-74
l13.2246 75c-44.2949 -47.8184 -113.029 -88 -200.517 -88c-96.2148 0 -169.606 53.2725 -152.375 151c17.1104 97.0342 107.199 154 225.155 154h166l4.05566 23c13.3955 75.9639 -29.5625 123 -104.312 123c-37.333 0 -69.8906 -8.83301 -97.6729 -26.5
s-44.2227 -25.834 -54.9629 -56.501h-73zM241.816 50c65.6035 0 119.047 28.6797 156.579 68.498c24.1924 25.667 39.1689 54.834 44.9287 87.501l4.58398 26h-167c-71.6387 0 -130.084 -34.5088 -140.397 -92.999c-10.4355 -59.1729 41.5986 -89 101.306 -89z" />
    <glyph glyph-name="adieresis" unicode="&#xe4;" horiz-adv-x="545" 
d="M297.226 666.999c27.376 0 48.9824 -22.7939 44.0078 -50.999c-4.65137 -26.376 -31.6016 -51 -61.9922 -51c-27.9365 0 -48.1328 21.9365 -43.0078 51c4.50684 25.5518 31.1992 50.999 60.9922 50.999zM495.226 666.999c27.376 0 48.9824 -22.7939 44.0078 -50.999
c-4.65137 -26.376 -31.6016 -51 -61.9922 -51c-27.9365 0 -48.1328 21.9365 -43.0078 51c4.50684 25.5518 31.1992 50.999 60.9922 50.999zM132.597 354.999c29.8779 84.0605 122.197 150.001 233.448 150.001c117.744 0 192.979 -62.502 171.38 -185l-56.4248 -320h-74
l13.2246 75c-44.2949 -47.8184 -113.029 -88 -200.517 -88c-96.2148 0 -169.606 53.2725 -152.375 151c17.1104 97.0342 107.199 154 225.155 154h166l4.05566 23c13.3955 75.9639 -29.5625 123 -104.312 123c-37.333 0 -69.8906 -8.83301 -97.6729 -26.5
s-44.2227 -25.834 -54.9629 -56.501h-73zM241.816 50c65.6035 0 119.047 28.6797 156.579 68.498c24.1924 25.667 39.1689 54.834 44.9287 87.501l4.58398 26h-167c-71.6387 0 -130.084 -34.5088 -140.397 -92.999c-10.4355 -59.1729 41.5986 -89 101.306 -89z" />
    <glyph glyph-name="aring" unicode="&#xe5;" horiz-adv-x="545" 
d="M487.31 721c32.5293 -62.1143 -22.2266 -128.668 -67.7441 -146c-17.5078 -6.66699 -32.9287 -10 -46.2617 -10c-52.793 0 -95.5557 42.2158 -85.1914 101c9.06641 51.4199 59.0674 100.001 120.633 100.001c35.5361 0 64.5752 -18.2871 78.5645 -45.001zM381.59 611.999
c42.2812 0 89.0352 53.0352 55.7227 92.002c-9.11914 10.667 -21.3457 16 -36.6787 16c-42.2822 0 -89.0342 -53.0352 -55.7227 -92.002c9.11914 -10.667 21.3457 -16 36.6787 -16zM132.597 354.999c29.8779 84.0605 122.197 150.001 233.448 150.001
c117.744 0 192.979 -62.502 171.38 -185l-56.4248 -320h-74l13.2246 75c-44.2949 -47.8184 -113.029 -88 -200.517 -88c-96.2148 0 -169.606 53.2725 -152.375 151c17.1104 97.0342 107.199 154 225.155 154h166l4.05566 23c13.3955 75.9639 -29.5625 123 -104.312 123
c-37.333 0 -69.8906 -8.83301 -97.6729 -26.5s-44.2227 -25.834 -54.9629 -56.501h-73zM241.816 50c65.6035 0 119.047 28.6797 156.579 68.498c24.1924 25.667 39.1689 54.834 44.9287 87.501l4.58398 26h-167c-71.6387 0 -130.084 -34.5088 -140.397 -92.999
c-10.4355 -59.1729 41.5986 -89 101.306 -89z" />
    <glyph glyph-name="ae" unicode="&#xe6;" horiz-adv-x="927" 
d="M456.999 408.997c39.0088 54.377 103.238 96 190.999 96c66.4463 0 113.72 -22.9775 155.501 -59.999c46.8154 -41.4814 80.0098 -114.016 81.501 -195.998v-27l-405 -0.00292969c8.6543 -96.4297 69.9268 -168 171 -168c46.249 0 82.4014 18.6348 111.498 43.501
c18.333 15.667 32.5 36.5 42.5 62.5h72c-23.4238 -78.0791 -56.7012 -117.656 -123.5 -150c-31.667 -15.333 -66.167 -23 -103.5 -23c-100.974 0 -171.38 52.041 -209 119.999c-34.873 -67.2549 -112.594 -120 -212.001 -120c-104.881 0 -185.999 51.2549 -185.999 149
c0 99.0557 85.6504 143 191 143h175v41c0 74.4473 -57.582 120 -130 120c-18.667 0 -38.167 -3 -58.5 -9s-36.1396 -18.8633 -52.5 -33.5c-12.667 -11.333 -25 -30.833 -26 -43.5h-72c12.1689 97.3496 98.0928 151 210.001 151c84.2119 0 150.532 -40.4209 177 -96z
M806.998 278.998c-9.42871 87.2217 -65.1289 161 -156.001 161c-99.0439 0 -162.132 -70.2197 -171.998 -161.002zM115.996 138.998c0 -59.4805 56.6592 -89 121 -89c73.499 0 123.865 37.9326 153 87c12.667 21.333 19 46.333 19 75v10h-175
c-62.9131 0 -118 -25.0127 -118 -83z" />
    <glyph glyph-name="ccedilla" unicode="&#xe7;" horiz-adv-x="576" 
d="M270.497 -7.33008h59l-106.976 -170h-83zM516.012 329c-7.74023 64.5146 -68.6133 106 -139.311 106c-76.3486 0 -140.35 -42.8271 -175.31 -92.5c-21.3477 -30.333 -35.0205 -62.5 -41.0156 -96.5c-14.5039 -82.2705 17.0547 -139.518 70.1133 -169.5
c21.8252 -12.333 48.4043 -18.5 79.7373 -18.5c55.3193 0 97.21 19.0908 131.694 46.5029c20.5469 16.333 32.7412 27.833 46.1104 54.5l73.1768 1c-22.0322 -49.333 -59.0928 -98.833 -107.657 -128.5s-100.513 -44.5 -155.846 -44.5
c-111.581 0 -187.928 62.7998 -209.846 154c-15.584 64.8457 1.52441 137.822 24.1211 185c27.0107 56.3926 71.3008 105.39 127.246 137.499c45.8408 26.3096 92.71 41.5 149.819 41.5c70.876 0 125.971 -25.6631 163.833 -69.001
c23.2979 -26.667 34.9307 -70.334 39.1328 -107.001h-76z" />
    <glyph glyph-name="egrave" unicode="&#xe8;" horiz-adv-x="583" 
d="M376.663 705l54.3145 -140h-66l-77.3145 140h89zM554.392 144.001c-49.1709 -88.1338 -136.22 -157 -263.684 -157c-71.0488 0 -126.991 30.6787 -161.98 71c-36.1709 41.6807 -56.6328 107.003 -42.5273 186.999c19.4844 110.494 96.3516 202.273 194.642 239
c37.4688 14 72.8701 21 106.203 21c106.541 0 174.416 -59.7119 195.08 -147c7.25977 -30.667 8.44043 -63.667 3.54395 -99l-4.93652 -27.999h-423c-8.63867 -78.7754 23.3115 -131.591 74.2871 -160c20.335 -11.333 43.835 -17 70.502 -17
c37.333 0 71.999 8.5 103.997 25.5c31.9971 17 51.7402 27.833 74.873 64.5h73zM513.784 288.001c3.62207 90.6543 -50.6953 150 -138.552 150c-18.667 0 -41.7637 -4.33301 -69.292 -13c-60.4971 -19.0469 -114.445 -74.2734 -135.156 -137h343z" />
    <glyph glyph-name="eacute" unicode="&#xe9;" horiz-adv-x="583" 
d="M431.478 565h-67l104.686 140h89zM554.392 144.001c-49.1709 -88.1338 -136.22 -157 -263.684 -157c-71.0488 0 -126.991 30.6787 -161.98 71c-36.1709 41.6807 -56.6328 107.003 -42.5273 186.999c19.4844 110.494 96.3516 202.273 194.642 239
c37.4688 14 72.8701 21 106.203 21c106.541 0 174.416 -59.7119 195.08 -147c7.25977 -30.667 8.44043 -63.667 3.54395 -99l-4.93652 -27.999h-423c-8.63867 -78.7754 23.3115 -131.591 74.2871 -160c20.335 -11.333 43.835 -17 70.502 -17
c37.333 0 71.999 8.5 103.997 25.5c31.9971 17 51.7402 27.833 74.873 64.5h73zM513.784 288.001c3.62207 90.6543 -50.6953 150 -138.552 150c-18.667 0 -41.7637 -4.33301 -69.292 -13c-60.4971 -19.0469 -114.445 -74.2734 -135.156 -137h343z" />
    <glyph glyph-name="ecircumflex" unicode="&#xea;" horiz-adv-x="583" 
d="M471.566 565l-58.6016 93l-92.3984 -93h-77l141.039 142h73l91.9609 -142h-78zM554.392 144.001c-49.1709 -88.1338 -136.22 -157 -263.684 -157c-71.0488 0 -126.991 30.6787 -161.98 71c-36.1709 41.6807 -56.6328 107.003 -42.5273 186.999
c19.4844 110.494 96.3516 202.273 194.642 239c37.4688 14 72.8701 21 106.203 21c106.541 0 174.416 -59.7119 195.08 -147c7.25977 -30.667 8.44043 -63.667 3.54395 -99l-4.93652 -27.999h-423c-8.63867 -78.7754 23.3115 -131.591 74.2871 -160
c20.335 -11.333 43.835 -17 70.502 -17c37.333 0 71.999 8.5 103.997 25.5c31.9971 17 51.7402 27.833 74.873 64.5h73zM513.784 288.001c3.62207 90.6543 -50.6953 150 -138.552 150c-18.667 0 -41.7637 -4.33301 -69.292 -13
c-60.4971 -19.0469 -114.445 -74.2734 -135.156 -137h343z" />
    <glyph glyph-name="edieresis" unicode="&#xeb;" horiz-adv-x="583" 
d="M318.226 666.999c27.376 0 48.9824 -22.7939 44.0078 -50.999c-4.65137 -26.376 -31.6016 -51 -61.9922 -51c-27.9365 0 -48.1328 21.9365 -43.0078 51c4.50684 25.5518 31.1992 50.999 60.9922 50.999zM516.226 666.999c27.376 0 48.9824 -22.7939 44.0078 -50.999
c-4.65137 -26.376 -31.6016 -51 -61.9922 -51c-27.9365 0 -48.1328 21.9365 -43.0078 51c4.50684 25.5518 31.1992 50.999 60.9922 50.999zM554.392 144.001c-49.1709 -88.1338 -136.22 -157 -263.684 -157c-71.0488 0 -126.991 30.6787 -161.98 71
c-36.1709 41.6807 -56.6328 107.003 -42.5273 186.999c19.4844 110.494 96.3516 202.273 194.642 239c37.4688 14 72.8701 21 106.203 21c106.541 0 174.416 -59.7119 195.08 -147c7.25977 -30.667 8.44043 -63.667 3.54395 -99l-4.93652 -27.999h-423
c-8.63867 -78.7754 23.3115 -131.591 74.2871 -160c20.335 -11.333 43.835 -17 70.502 -17c37.333 0 71.999 8.5 103.997 25.5c31.9971 17 51.7402 27.833 74.873 64.5h73zM513.784 288.001c3.62207 90.6543 -50.6953 150 -138.552 150
c-18.667 0 -41.7637 -4.33301 -69.292 -13c-60.4971 -19.0469 -114.445 -74.2734 -135.156 -137h343z" />
    <glyph glyph-name="igrave" unicode="&#xec;" horiz-adv-x="279" 
d="M218.163 704l54.3145 -140h-66l-77.3145 140h89zM178 0h-77v493h77v-493z" />
    <glyph glyph-name="iacute" unicode="&#xed;" horiz-adv-x="279" 
d="M272.978 564h-67l104.686 140h89zM178 0h-77v493h77v-493z" />
    <glyph glyph-name="icircumflex" unicode="&#xee;" horiz-adv-x="279" 
d="M313.066 564l-58.6016 93l-92.3984 -93h-77l141.039 142h73l91.9609 -142h-78zM178 0h-77v493h77v-493z" />
    <glyph glyph-name="idieresis" unicode="&#xef;" horiz-adv-x="279" 
d="M159.726 665.999c27.376 0 48.9824 -22.7939 44.0078 -50.999c-4.65137 -26.376 -31.6016 -51 -61.9922 -51c-27.9365 0 -48.1328 21.9365 -43.0078 51c4.50684 25.5518 31.1992 50.999 60.9922 50.999zM357.726 665.999c27.376 0 48.9824 -22.7939 44.0078 -50.999
c-4.65137 -26.376 -31.6016 -51 -61.9922 -51c-27.9365 0 -48.1328 21.9365 -43.0078 51c4.50684 25.5518 31.1992 50.999 60.9922 50.999zM178 0h-77v493h77v-493z" />
    <glyph glyph-name="eth" unicode="&#xf0;" horiz-adv-x="607" 
d="M455 656l-79 -34.998c54 -49.333 99 -107 135 -173s54 -132 54 -198c0 -89.1387 -35.1279 -152.182 -84.001 -198.001c-38.3525 -35.9561 -102.915 -65 -174 -65c-121.711 0 -205.074 68.3145 -242.999 154.999c-14 32 -21 66.667 -21 104
c0 121.5 66.1289 204.976 153.5 240.499c30.333 12.333 62.5 18.5 96.5 18.5c44.917 0 93.8682 -18.2451 122 -37c-29.333 45.333 -65.333 86 -108 122l-134 -59l-23 54l102 46c-44.667 28.667 -93.667 53.334 -147 74.001v15h125c30 -14 61.333 -33 94 -57l107 48z
M307 55.002c78.5898 0 129.213 43.0234 158 97c16 30 24 62.667 24 98c0 87.0342 -52.0859 146.917 -114.5 173c-22.333 9.33301 -45.5 14 -69.5 14c-83.2188 0 -145.65 -47.333 -171.5 -110c-11 -26.667 -16.5 -53.667 -16.5 -81c0 -85.542 49.6553 -149.928 114 -175.5
c26 -10.333 51.333 -15.5 76 -15.5z" />
    <glyph glyph-name="ntilde" unicode="&#xf1;" horiz-adv-x="624" 
d="M371.497 613c-25.46 0 -40.8613 -21.9014 -44.9346 -44.999l-54.001 -0.000976562c9.88086 56.04 46.1299 102 104.985 102c21.333 0 40.9316 -7 58.7959 -21c17.8652 -14 30.4541 -22 37.7686 -24s12.9707 -3 16.9707 -3c25.9043 0 41.0967 23.2354 45.2881 47h54
c-9.47168 -53.707 -43.6299 -104 -105.337 -104c-21.333 0 -40.9326 7 -58.7969 21s-30.4531 22 -37.7676 24s-12.9717 3 -16.9717 3zM236.47 411c44.625 52.9385 111.327 94 202.575 94c85.9033 0 138.449 -42.0352 158.839 -111.499
c8.12207 -27.667 8.83203 -60.5 2.13184 -98.5l-52.0166 -295h-76l49.5479 281c15.7598 89.376 -26.7256 154 -109.846 154c-118.46 0 -186.766 -89.4199 -205.913 -198.001l-41.7891 -237h-76l86.9297 493h76z" />
    <glyph glyph-name="ograve" unicode="&#xf2;" horiz-adv-x="608" 
d="M383.663 704l54.3145 -140h-66l-77.3145 140h89zM393.869 504c113.334 0 191.258 -62.5479 213.758 -154.496c18.8926 -77.2061 -5.75293 -154.096 -36.2354 -205.501c-36.5781 -61.6846 -93.6787 -110.923 -164.157 -137c-34.2334 -12.667 -69.0166 -19 -104.35 -19
c-114.831 0 -192.05 62.6123 -214.493 156c-16.7402 69.6553 1.57617 136.102 26.6494 187.999c30.3682 62.8564 96.3135 124.188 167.037 150.498c38.5273 14.333 75.791 21.5 111.791 21.5zM314.698 55.0039c57.7373 0 106.032 24.7334 140.435 53.5
c38.0156 31.7871 69.2676 80.9102 79.4219 138.5c15.8223 89.7354 -23.998 149.376 -83.9668 176.001c-21.0215 9.33301 -43.8652 14 -68.5322 14c-54.2793 0 -96.665 -20.0283 -130.257 -44c-57.5908 -41.0957 -121.277 -141.178 -83.5244 -244.001
c20.0566 -54.626 76.0713 -94 146.424 -94z" />
    <glyph glyph-name="oacute" unicode="&#xf3;" horiz-adv-x="608" 
d="M438.478 564h-67l104.686 140h89zM393.869 504c113.334 0 191.258 -62.5479 213.758 -154.496c18.8926 -77.2061 -5.75293 -154.096 -36.2354 -205.501c-36.5781 -61.6846 -93.6787 -110.923 -164.157 -137c-34.2334 -12.667 -69.0166 -19 -104.35 -19
c-114.831 0 -192.05 62.6123 -214.493 156c-16.7402 69.6553 1.57617 136.102 26.6494 187.999c30.3682 62.8564 96.3135 124.188 167.037 150.498c38.5273 14.333 75.791 21.5 111.791 21.5zM314.698 55.0039c57.7373 0 106.032 24.7334 140.435 53.5
c38.0156 31.7871 69.2676 80.9102 79.4219 138.5c15.8223 89.7354 -23.998 149.376 -83.9668 176.001c-21.0215 9.33301 -43.8652 14 -68.5322 14c-54.2793 0 -96.665 -20.0283 -130.257 -44c-57.5908 -41.0957 -121.277 -141.178 -83.5244 -244.001
c20.0566 -54.626 76.0713 -94 146.424 -94z" />
    <glyph glyph-name="ocircumflex" unicode="&#xf4;" horiz-adv-x="608" 
d="M478.566 564l-58.6016 93l-92.3984 -93h-77l141.039 142h73l91.9609 -142h-78zM393.869 504c113.334 0 191.258 -62.5479 213.758 -154.496c18.8926 -77.2061 -5.75293 -154.096 -36.2354 -205.501c-36.5781 -61.6846 -93.6787 -110.923 -164.157 -137
c-34.2334 -12.667 -69.0166 -19 -104.35 -19c-114.831 0 -192.05 62.6123 -214.493 156c-16.7402 69.6553 1.57617 136.102 26.6494 187.999c30.3682 62.8564 96.3135 124.188 167.037 150.498c38.5273 14.333 75.791 21.5 111.791 21.5zM314.698 55.0039
c57.7373 0 106.032 24.7334 140.435 53.5c38.0156 31.7871 69.2676 80.9102 79.4219 138.5c15.8223 89.7354 -23.998 149.376 -83.9668 176.001c-21.0215 9.33301 -43.8652 14 -68.5322 14c-54.2793 0 -96.665 -20.0283 -130.257 -44
c-57.5908 -41.0957 -121.277 -141.178 -83.5244 -244.001c20.0566 -54.626 76.0713 -94 146.424 -94z" />
    <glyph glyph-name="otilde" unicode="&#xf5;" horiz-adv-x="608" 
d="M358.497 612c-25.459 0 -40.8604 -21.9014 -44.9346 -44.999l-54.001 -0.000976562c9.88184 56.04 46.1309 102 104.985 102c21.333 0 40.9316 -7 58.7959 -21c17.8652 -14 30.4541 -22 37.7686 -24s12.9707 -3 16.9707 -3c25.9053 0 41.0977 23.2354 45.2881 47h54
c-9.4707 -53.707 -43.6289 -104 -105.337 -104c-21.333 0 -40.9326 7 -58.7969 21s-30.4531 22 -37.7676 24s-12.9717 3 -16.9717 3zM393.869 504c113.334 0 191.258 -62.5479 213.758 -154.496c18.8926 -77.2061 -5.75293 -154.096 -36.2354 -205.501
c-36.5781 -61.6846 -93.6787 -110.923 -164.157 -137c-34.2334 -12.667 -69.0166 -19 -104.35 -19c-114.831 0 -192.05 62.6123 -214.493 156c-16.7402 69.6553 1.57617 136.102 26.6494 187.999c30.3682 62.8564 96.3135 124.188 167.037 150.498
c38.5273 14.333 75.791 21.5 111.791 21.5zM314.698 55.0039c57.7373 0 106.032 24.7334 140.435 53.5c38.0156 31.7871 69.2676 80.9102 79.4219 138.5c15.8223 89.7354 -23.998 149.376 -83.9668 176.001c-21.0215 9.33301 -43.8652 14 -68.5322 14
c-54.2793 0 -96.665 -20.0283 -130.257 -44c-57.5908 -41.0957 -121.277 -141.178 -83.5244 -244.001c20.0566 -54.626 76.0713 -94 146.424 -94z" />
    <glyph glyph-name="odieresis" unicode="&#xf6;" horiz-adv-x="608" 
d="M325.226 665.999c27.376 0 48.9824 -22.7939 44.0078 -50.999c-4.65137 -26.376 -31.6016 -51 -61.9922 -51c-27.9365 0 -48.1328 21.9365 -43.0078 51c4.50684 25.5518 31.1992 50.999 60.9922 50.999zM523.226 665.999c27.376 0 48.9824 -22.7939 44.0078 -50.999
c-4.65137 -26.376 -31.6016 -51 -61.9922 -51c-27.9365 0 -48.1328 21.9365 -43.0078 51c4.50684 25.5518 31.1992 50.999 60.9922 50.999zM393.869 504c113.334 0 191.258 -62.5479 213.758 -154.496c18.8926 -77.2061 -5.75293 -154.096 -36.2354 -205.501
c-36.5781 -61.6846 -93.6787 -110.923 -164.157 -137c-34.2334 -12.667 -69.0166 -19 -104.35 -19c-114.831 0 -192.05 62.6123 -214.493 156c-16.7402 69.6553 1.57617 136.102 26.6494 187.999c30.3682 62.8564 96.3135 124.188 167.037 150.498
c38.5273 14.333 75.791 21.5 111.791 21.5zM314.698 55.0039c57.7373 0 106.032 24.7334 140.435 53.5c38.0156 31.7871 69.2676 80.9102 79.4219 138.5c15.8223 89.7354 -23.998 149.376 -83.9668 176.001c-21.0215 9.33301 -43.8652 14 -68.5322 14
c-54.2793 0 -96.665 -20.0283 -130.257 -44c-57.5908 -41.0957 -121.277 -141.178 -83.5244 -244.001c20.0566 -54.626 76.0713 -94 146.424 -94z" />
    <glyph glyph-name="divide" unicode="&#xf7;" horiz-adv-x="580" 
d="M382.335 535c27.4023 0 48.1582 -21.7812 43.1836 -50c-4.6582 -26.418 -30.3945 -50 -60.8164 -50c-27.916 0 -48.3096 20.9287 -43.1836 50c4.51074 25.5889 31.0088 50 60.8164 50zM557.783 271h-440l11.9902 68h440zM319.032 176
c27.4014 0 48.1611 -21.7812 43.1846 -50c-4.65723 -26.4189 -30.3965 -50 -60.8164 -50c-27.917 0 -48.3076 20.9287 -43.1836 50c4.5127 25.5889 31.0078 50 60.8154 50z" />
    <glyph glyph-name="oslash" unicode="&#xf8;" horiz-adv-x="606" 
d="M305 503.999c67.3389 0 123.312 -22.7305 163 -53.999l55 55l39 -39l-53.998 -53.998c32.6104 -38.6494 58 -96.9287 58 -165c0 -122.533 -70.6992 -204.651 -160 -240c-32 -12.667 -65.667 -19 -101 -19c-67.6807 0 -125.47 24.0059 -166.002 55l-55 -55l-39 39l55 55
c-38 46.667 -57 101.667 -57 165c0 73.0508 24.1709 125.703 63.5 171.498c41.7578 48.6221 114.777 85.499 198.5 85.499zM417.998 400.002c-26.5957 19.6582 -69.499 37.001 -112.998 37.001c-52.7227 0 -92.2812 -19.332 -122.499 -44
c-34.3633 -28.0518 -65.5 -81.4023 -65.5 -146c0 -42.7178 16.0537 -87.6836 33.9971 -114.001zM189.998 94.0039c26.71 -20.9043 70.1455 -39 114.999 -39c86.3203 0 146.026 51.7549 171.501 115c9.66699 24 14.5 49.667 14.5 77c0 42.7549 -16.0225 86.6318 -34 113z" />
    <glyph glyph-name="ugrave" unicode="&#xf9;" horiz-adv-x="624" 
d="M385.163 704l54.3145 -140h-66l-77.3145 140h89zM474.282 80.9971c-44.2803 -51.5977 -112.639 -92.999 -202.398 -92.999c-85.9014 0 -138.449 42.0391 -158.839 111.502c-8.12207 27.667 -8.83301 60.5 -2.13184 98.5l52.0166 295h77l-49.5488 -281
c-15.7617 -89.3965 25.8867 -153 109.022 -153c118.506 0 186.576 88.334 205.736 197l41.79 237h77l-86.7539 -492.003h-77z" />
    <glyph glyph-name="uacute" unicode="&#xfa;" horiz-adv-x="624" 
d="M439.978 564h-67l104.686 140h89zM474.282 80.9971c-44.2803 -51.5977 -112.639 -92.999 -202.398 -92.999c-85.9014 0 -138.449 42.0391 -158.839 111.502c-8.12207 27.667 -8.83301 60.5 -2.13184 98.5l52.0166 295h77l-49.5488 -281
c-15.7617 -89.3965 25.8867 -153 109.022 -153c118.506 0 186.576 88.334 205.736 197l41.79 237h77l-86.7539 -492.003h-77z" />
    <glyph glyph-name="ucircumflex" unicode="&#xfb;" horiz-adv-x="624" 
d="M480.066 564l-58.6016 93l-92.3984 -93h-77l141.039 142h73l91.9609 -142h-78zM474.282 80.9971c-44.2803 -51.5977 -112.639 -92.999 -202.398 -92.999c-85.9014 0 -138.449 42.0391 -158.839 111.502c-8.12207 27.667 -8.83301 60.5 -2.13184 98.5l52.0166 295h77
l-49.5488 -281c-15.7617 -89.3965 25.8867 -153 109.022 -153c118.506 0 186.576 88.334 205.736 197l41.79 237h77l-86.7539 -492.003h-77z" />
    <glyph glyph-name="udieresis" unicode="&#xfc;" horiz-adv-x="624" 
d="M326.726 665.999c27.376 0 48.9824 -22.7939 44.0078 -50.999c-4.65137 -26.376 -31.6016 -51 -61.9922 -51c-27.9365 0 -48.1328 21.9365 -43.0078 51c4.50684 25.5518 31.1992 50.999 60.9922 50.999zM524.726 665.999c27.376 0 48.9824 -22.7939 44.0078 -50.999
c-4.65137 -26.376 -31.6016 -51 -61.9922 -51c-27.9365 0 -48.1328 21.9365 -43.0078 51c4.50684 25.5518 31.1992 50.999 60.9922 50.999zM474.282 80.9971c-44.2803 -51.5977 -112.639 -92.999 -202.398 -92.999c-85.9014 0 -138.449 42.0391 -158.839 111.502
c-8.12207 27.667 -8.83301 60.5 -2.13184 98.5l52.0166 295h77l-49.5488 -281c-15.7617 -89.3965 25.8867 -153 109.022 -153c118.506 0 186.576 88.334 205.736 197l41.79 237h77l-86.7539 -492.003h-77z" />
    <glyph glyph-name="yacute" unicode="&#xfd;" horiz-adv-x="563" 
d="M414.978 564h-67l104.686 140h89zM631.93 493l-418.905 -663h-85l112.21 177l-135.305 486h86l106.526 -394l249.474 394h85z" />
    <glyph glyph-name="thorn" unicode="&#xfe;" horiz-adv-x="649" 
d="M164 414c39.7637 51.8135 108.692 91.001 196 91.001c73.4434 0 132.829 -31.8311 172.5 -71.502c42.0088 -42.0088 73.5 -107 73.5 -187.5c0 -121.309 -66.1084 -204.778 -153 -240.499c-30 -12.333 -61 -18.5 -93 -18.5c-87.2549 0 -156.268 39.2266 -196 91v-248h-76
v890h76v-306zM348 54.999c52 0 95.6641 17.6699 130.997 53.0029s53 81.333 53 138c0 85.9697 -40.7207 143.2 -100.5 173.499c-24.333 12.333 -52.166 18.5 -83.499 18.5c-84.4883 0 -142.177 -52.8652 -168.498 -114c-10.333 -24 -15.5 -50 -15.5 -78
c0 -76.6084 42.7041 -139.62 95.5 -167.502c29.667 -15.667 59.167 -23.5 88.5 -23.5z" />
    <glyph glyph-name="ydieresis" unicode="&#xff;" horiz-adv-x="563" 
d="M301.726 665.999c27.376 0 48.9824 -22.7939 44.0078 -50.999c-4.65137 -26.376 -31.6016 -51 -61.9922 -51c-27.9365 0 -48.1328 21.9365 -43.0078 51c4.50684 25.5518 31.1992 50.999 60.9922 50.999zM499.726 665.999c27.376 0 48.9824 -22.7939 44.0078 -50.999
c-4.65137 -26.376 -31.6016 -51 -61.9922 -51c-27.9365 0 -48.1328 21.9365 -43.0078 51c4.50684 25.5518 31.1992 50.999 60.9922 50.999zM631.93 493l-418.905 -663h-85l112.21 177l-135.305 486h86l106.526 -394l249.474 394h85z" />
    <glyph glyph-name="Amacron" unicode="&#x100;" horiz-adv-x="693" 
d="M591.475 743h-284l10.9326 62h284zM683 0h-85l-45.0244 170h-353l-104.976 -170h-85l418.139 670h73zM534.495 241l-86.6357 331l-204.364 -331h291z" />
    <glyph glyph-name="amacron" unicode="&#x101;" horiz-adv-x="545" 
d="M521.975 565h-284l10.9326 62h284zM132.597 354.999c29.8779 84.0605 122.197 150.001 233.448 150.001c117.744 0 192.979 -62.502 171.38 -185l-56.4248 -320h-74l13.2246 75c-44.2949 -47.8184 -113.029 -88 -200.517 -88c-96.2148 0 -169.606 53.2725 -152.375 151
c17.1104 97.0342 107.199 154 225.155 154h166l4.05566 23c13.3955 75.9639 -29.5625 123 -104.312 123c-37.333 0 -69.8906 -8.83301 -97.6729 -26.5s-44.2227 -25.834 -54.9629 -56.501h-73zM241.816 50c65.6035 0 119.047 28.6797 156.579 68.498
c24.1924 25.667 39.1689 54.834 44.9287 87.501l4.58398 26h-167c-71.6387 0 -130.084 -34.5088 -140.397 -92.999c-10.4355 -59.1729 41.5986 -89 101.306 -89z" />
    <glyph glyph-name="Abreve" unicode="&#x102;" horiz-adv-x="693" 
d="M612.99 878.001c-13.7021 -77.707 -79.2178 -135.001 -168.804 -135.001c-82.0527 0 -136.21 49.8682 -121.198 135.001h64c-8.30176 -47.0801 22.4287 -80 66.8955 -80c48.4795 0 87.5576 37.1895 95.1064 80h64zM683 0h-85l-45.0244 170h-353l-104.976 -170h-85
l418.139 670h73zM534.495 241l-86.6357 331l-204.364 -331h291z" />
    <glyph glyph-name="abreve" unicode="&#x103;" horiz-adv-x="545" 
d="M543.49 700.001c-13.7021 -77.707 -79.2178 -135.001 -168.804 -135.001c-82.0527 0 -136.21 49.8682 -121.198 135.001h64c-8.30176 -47.0801 22.4287 -80 66.8955 -80c48.4795 0 87.5576 37.1895 95.1064 80h64zM132.597 354.999
c29.8779 84.0605 122.197 150.001 233.448 150.001c117.744 0 192.979 -62.502 171.38 -185l-56.4248 -320h-74l13.2246 75c-44.2949 -47.8184 -113.029 -88 -200.517 -88c-96.2148 0 -169.606 53.2725 -152.375 151c17.1104 97.0342 107.199 154 225.155 154h166
l4.05566 23c13.3955 75.9639 -29.5625 123 -104.312 123c-37.333 0 -69.8906 -8.83301 -97.6729 -26.5s-44.2227 -25.834 -54.9629 -56.501h-73zM241.816 50c65.6035 0 119.047 28.6797 156.579 68.498c24.1924 25.667 39.1689 54.834 44.9287 87.501l4.58398 26h-167
c-71.6387 0 -130.084 -34.5088 -140.397 -92.999c-10.4355 -59.1729 41.5986 -89 101.306 -89z" />
    <glyph glyph-name="Aogonek" unicode="&#x104;" horiz-adv-x="693" 
d="M595.486 -105c-4.38867 -24.8916 7.69336 -40 34.9463 -40c8.66699 0 24.5879 3.33301 47.7637 10l-2.81445 -49.998c-27.7637 -10 -51.3115 -15 -70.6445 -15c-50.7217 0 -78.2305 32.7236 -69.3652 82.999c3.40918 19.333 12.0332 38 25.874 56
s35.4258 38.333 64.7559 61h-28l-45.0244 170h-353l-104.976 -170h-85l418.14 670h73l181.86 -670c-31.6035 -28 -53.4443 -48.833 -65.5215 -62.5c-12.0762 -13.667 -19.4072 -27.834 -21.9941 -42.501zM534.497 241.002l-86.6357 331l-204.364 -331h291z" />
    <glyph glyph-name="aogonek" unicode="&#x105;" horiz-adv-x="545" 
d="M395.486 -105c-4.38867 -24.8916 7.69336 -40 34.9463 -40c8.66699 0 24.5879 3.33301 47.7637 10l-2.81445 -49.998c-27.7637 -10 -51.3115 -15 -70.6445 -15c-50.7217 0 -78.2305 32.7236 -69.3652 82.999c3.40918 19.333 12.0332 38 25.874 56
s35.4258 38.333 64.7559 61h-19l13.2246 75c-46.0547 -49.7178 -116.12 -88 -200.517 -88c-98.8184 0 -169.158 55.8184 -152.375 151c18.2158 103.303 114.499 154 225.155 154h166l4.05566 23c13.1514 74.585 -27.2441 123 -104.312 123
c-73.3076 0 -133.758 -37.0439 -155.457 -99.001l-70.1787 16c31.6982 89.1826 128 150.001 233.448 150.001c120.8 0 192.463 -65.4297 171.38 -185l-56.4248 -320h2c-31.6035 -28 -53.4443 -48.833 -65.5215 -62.5c-12.0762 -13.667 -19.4072 -27.834 -21.9941 -42.501z
M140.513 139.002c-10.2373 -58.0586 39.5186 -89 101.306 -89c62.8467 0 117.946 27.5107 156.579 68.498c24.1934 25.667 39.1689 54.834 44.9287 87.501l4.58496 26h-167c-67.1807 0 -129.422 -30.7461 -140.398 -92.999z" />
    <glyph glyph-name="Cacute" unicode="&#x106;" horiz-adv-x="777" 
d="M536.479 743h-67l104.686 140h89zM759.736 213.999c-58.0371 -122.338 -188.582 -227 -359.027 -227c-102.233 0 -180.99 42.4805 -229.191 101c-46.9482 56.999 -75.9541 142.04 -57.4473 247c18.1318 102.834 76.0957 188.805 144.553 247
c64.4424 54.7822 155.162 101 264.81 101c152.233 0 262.305 -87.6133 279.857 -221.999h-76c-7.26367 53.333 -33.9629 73 -72.3398 103s-86.5654 45 -144.565 45c-84.8271 0 -154.388 -36.8242 -204.02 -79.5c-53.1543 -45.7041 -98.0977 -113.974 -112.297 -194.5
c-22.2217 -126.023 35.8848 -214.479 119.891 -253c30.5312 -14 63.7969 -21 99.7969 -21c58.667 0 112.147 14.999 160.438 44.999s82.6885 54 109.543 108h76z" />
    <glyph glyph-name="cacute" unicode="&#x107;" horiz-adv-x="576" 
d="M433.478 565.002h-67l104.686 140h89zM516.012 329c-7.74023 64.5146 -68.6133 106 -139.311 106c-76.3486 0 -140.35 -42.8271 -175.31 -92.5c-21.3477 -30.333 -35.0205 -62.5 -41.0156 -96.5c-14.5039 -82.2705 17.0547 -139.518 70.1133 -169.5
c21.8252 -12.333 48.4043 -18.5 79.7373 -18.5c55.3193 0 97.21 19.0908 131.694 46.5029c20.5469 16.333 32.7412 27.833 46.1104 54.5l73.1768 1c-22.0322 -49.333 -59.0928 -98.833 -107.657 -128.5s-100.513 -44.5 -155.846 -44.5
c-111.581 0 -187.928 62.7998 -209.846 154c-15.584 64.8457 1.52441 137.822 24.1211 185c27.0107 56.3926 71.3008 105.39 127.246 137.499c45.8408 26.3096 92.71 41.5 149.819 41.5c70.876 0 125.971 -25.6631 163.833 -69.001
c23.2979 -26.667 34.9307 -70.334 39.1328 -107.001h-76z" />
    <glyph glyph-name="Ccircumflex" unicode="&#x108;" horiz-adv-x="777" 
d="M576.567 743l-58.6016 93l-92.3984 -93h-77l141.039 142h73l91.9609 -142h-78zM759.736 213.999c-58.0371 -122.338 -188.582 -227 -359.027 -227c-102.233 0 -180.99 42.4805 -229.191 101c-46.9482 56.999 -75.9541 142.04 -57.4473 247
c18.1318 102.834 76.0957 188.805 144.553 247c64.4424 54.7822 155.162 101 264.81 101c152.233 0 262.305 -87.6133 279.857 -221.999h-76c-7.26367 53.333 -33.9629 73 -72.3398 103s-86.5654 45 -144.565 45c-84.8271 0 -154.388 -36.8242 -204.02 -79.5
c-53.1543 -45.7041 -98.0977 -113.974 -112.297 -194.5c-22.2217 -126.023 35.8848 -214.479 119.891 -253c30.5312 -14 63.7969 -21 99.7969 -21c58.667 0 112.147 14.999 160.438 44.999s82.6885 54 109.543 108h76z" />
    <glyph glyph-name="ccircumflex" unicode="&#x109;" horiz-adv-x="576" 
d="M473.566 565.002l-58.6016 93l-92.3984 -93h-77l141.039 142h73l91.9609 -142h-78zM516.012 329c-7.74023 64.5146 -68.6133 106 -139.311 106c-76.3486 0 -140.35 -42.8271 -175.31 -92.5c-21.3477 -30.333 -35.0205 -62.5 -41.0156 -96.5
c-14.5039 -82.2705 17.0547 -139.518 70.1133 -169.5c21.8252 -12.333 48.4043 -18.5 79.7373 -18.5c55.3193 0 97.21 19.0908 131.694 46.5029c20.5469 16.333 32.7412 27.833 46.1104 54.5l73.1768 1c-22.0322 -49.333 -59.0928 -98.833 -107.657 -128.5
s-100.513 -44.5 -155.846 -44.5c-111.581 0 -187.928 62.7998 -209.846 154c-15.584 64.8457 1.52441 137.822 24.1211 185c27.0107 56.3926 71.3008 105.39 127.246 137.499c45.8408 26.3096 92.71 41.5 149.819 41.5c70.876 0 125.971 -25.6631 163.833 -69.001
c23.2979 -26.667 34.9307 -70.334 39.1328 -107.001h-76z" />
    <glyph glyph-name="Cdotaccent" unicode="&#x10a;" horiz-adv-x="777" 
d="M523.107 842c27.377 0 48.3359 -20.7812 43.3613 -49c-4.6582 -26.418 -30.3955 -50 -60.8164 -50c-27.96 0 -47.3125 20.9219 -42.1846 50c4.42969 25.127 30.6699 49 59.6396 49zM759.736 213.999c-58.0371 -122.338 -188.582 -227 -359.027 -227
c-102.233 0 -180.99 42.4805 -229.191 101c-46.9482 56.999 -75.9541 142.04 -57.4473 247c18.1318 102.834 76.0957 188.805 144.553 247c64.4424 54.7822 155.162 101 264.81 101c152.233 0 262.305 -87.6133 279.857 -221.999h-76
c-7.26367 53.333 -33.9629 73 -72.3398 103s-86.5654 45 -144.565 45c-84.8271 0 -154.388 -36.8242 -204.02 -79.5c-53.1543 -45.7041 -98.0977 -113.974 -112.297 -194.5c-22.2217 -126.023 35.8848 -214.479 119.891 -253c30.5312 -14 63.7969 -21 99.7969 -21
c58.667 0 112.147 14.999 160.438 44.999s82.6885 54 109.543 108h76z" />
    <glyph glyph-name="cdotaccent" unicode="&#x10b;" horiz-adv-x="576" 
d="M420.107 664.002c27.377 0 48.3359 -20.7812 43.3613 -49c-4.65918 -26.418 -30.3955 -50 -60.8164 -50c-27.9609 0 -47.3125 20.9219 -42.1846 50c4.42969 25.127 30.6699 49 59.6396 49zM516.012 329c-7.74023 64.5146 -68.6133 106 -139.311 106
c-76.3486 0 -140.35 -42.8271 -175.31 -92.5c-21.3477 -30.333 -35.0205 -62.5 -41.0156 -96.5c-14.5039 -82.2705 17.0547 -139.518 70.1133 -169.5c21.8252 -12.333 48.4043 -18.5 79.7373 -18.5c55.3193 0 97.21 19.0908 131.694 46.5029
c20.5469 16.333 32.7412 27.833 46.1104 54.5l73.1768 1c-22.0322 -49.333 -59.0928 -98.833 -107.657 -128.5s-100.513 -44.5 -155.846 -44.5c-111.581 0 -187.928 62.7998 -209.846 154c-15.584 64.8457 1.52441 137.822 24.1211 185
c27.0107 56.3926 71.3008 105.39 127.246 137.499c45.8408 26.3096 92.71 41.5 149.819 41.5c70.876 0 125.971 -25.6631 163.833 -69.001c23.2979 -26.667 34.9307 -70.334 39.1328 -107.001h-76z" />
    <glyph glyph-name="Ccaron" unicode="&#x10c;" horiz-adv-x="777" 
d="M679.782 885l-142.038 -142h-73l-90.9619 142h77l59.7783 -92l91.2217 92h78zM759.736 213.999c-58.0371 -122.338 -188.582 -227 -359.027 -227c-102.233 0 -180.99 42.4805 -229.191 101c-46.9482 56.999 -75.9541 142.04 -57.4473 247
c18.1318 102.834 76.0957 188.805 144.553 247c64.4424 54.7822 155.162 101 264.81 101c152.233 0 262.305 -87.6133 279.857 -221.999h-76c-7.26367 53.333 -33.9629 73 -72.3398 103s-86.5654 45 -144.565 45c-84.8271 0 -154.388 -36.8242 -204.02 -79.5
c-53.1543 -45.7041 -98.0977 -113.974 -112.297 -194.5c-22.2217 -126.023 35.8848 -214.479 119.891 -253c30.5312 -14 63.7969 -21 99.7969 -21c58.667 0 112.147 14.999 160.438 44.999s82.6885 54 109.543 108h76z" />
    <glyph glyph-name="ccaron" unicode="&#x10d;" horiz-adv-x="576" 
d="M576.781 707.002l-142.038 -142h-73l-90.9619 142h77l59.7783 -92l91.2217 92h78zM516.012 329c-7.74023 64.5146 -68.6133 106 -139.311 106c-76.3486 0 -140.35 -42.8271 -175.31 -92.5c-21.3477 -30.333 -35.0205 -62.5 -41.0156 -96.5
c-14.5039 -82.2705 17.0547 -139.518 70.1133 -169.5c21.8252 -12.333 48.4043 -18.5 79.7373 -18.5c55.3193 0 97.21 19.0908 131.694 46.5029c20.5469 16.333 32.7412 27.833 46.1104 54.5l73.1768 1c-22.0322 -49.333 -59.0928 -98.833 -107.657 -128.5
s-100.513 -44.5 -155.846 -44.5c-111.581 0 -187.928 62.7998 -209.846 154c-15.584 64.8457 1.52441 137.822 24.1211 185c27.0107 56.3926 71.3008 105.39 127.246 137.499c45.8408 26.3096 92.71 41.5 149.819 41.5c70.876 0 125.971 -25.6631 163.833 -69.001
c23.2979 -26.667 34.9307 -70.334 39.1328 -107.001h-76z" />
    <glyph glyph-name="Dcaron" unicode="&#x10e;" horiz-adv-x="736" 
d="M661.282 885l-142.038 -142h-73l-90.9619 142h77l59.7783 -92l91.2217 92h78zM206.139 670h222c163.401 0 280.312 -71.251 310.207 -203c22.7383 -100.209 -7.7168 -197.023 -46.4619 -263.5c-48.1914 -82.6836 -124.282 -144.42 -222.387 -178
c-49.6641 -17 -102.83 -25.5 -159.497 -25.5h-222zM179.695 72h142c145.089 0 246.884 66.5869 300.624 159.5c30.3047 52.3945 54.2764 128.254 36.5 207c-23.6309 104.68 -114.354 160.5 -244.199 160.5h-142z" />
    <glyph glyph-name="dcaron" unicode="&#x10f;" horiz-adv-x="649" 
d="M687.725 457h-60l112.374 263h90l-0.352539 -2zM378.045 505c83.7773 0 148.011 -36.9609 179.954 -91l53.9561 306h76l-126.955 -719.998h-76l13.7539 78c-47.1133 -49.9209 -121.467 -91 -212.046 -91c-107.944 0 -179.001 64.7646 -199.258 154.5
c-17.7686 78.7119 6.75293 156.959 36.8525 208.998c35.3447 61.1074 89.7588 110.042 157.48 136c32.1748 12.333 64.2617 18.5 96.2617 18.5zM310.698 55.002c74.4336 0 139.408 44.4248 174.899 92.9971c22.4072 30.667 36.667 63.334 42.7793 98.001
c14.748 83.6318 -20.5693 142.201 -73.4951 173.001c-21.7666 12.667 -47.3164 19 -76.6494 19c-86.5762 0 -144.191 -45.7158 -182.31 -101c-17.4678 -25.333 -29.3154 -55.666 -35.5459 -90.999c-19.7246 -111.86 45.8096 -191 150.321 -191z" />
    <glyph glyph-name="Dcroat" unicode="&#x110;" horiz-adv-x="743" 
d="M223.139 670h222.001c163.401 0 280.312 -71.251 310.207 -203c22.7383 -100.209 -7.7168 -197.023 -46.4619 -263.5c-48.1914 -82.6836 -124.283 -144.42 -222.388 -178c-49.6641 -17 -102.83 -25.5 -159.497 -25.5h-222l53.251 302h-75l12.5186 71h75zM196.696 72
h142.999c144.934 0 246.801 67.459 300.714 160c30.2705 51.96 54.127 128.02 36.4111 206.5c-23.6309 104.68 -114.354 160.5 -244.199 160.5h-143l-39.8506 -226h164l-12.5186 -71h-164z" />
    <glyph glyph-name="dcroat" unicode="&#x111;" horiz-adv-x="668" 
d="M378.045 505c83.7773 0 148.011 -36.96 179.954 -90.999l28.2129 160h-173l10.7559 61h173l14.9873 85h76l-14.9873 -85h75l-10.7559 -61l-75 0.00195312l-101.212 -574h-76l13.7539 78c-47.1133 -49.9209 -121.467 -91 -212.046 -91
c-107.944 0 -179.001 64.7646 -199.258 154.5c-17.7686 78.7119 6.75293 156.959 36.8525 208.998c35.3438 61.1074 89.7588 110.041 157.48 135.999c32.1748 12.333 64.2617 18.5 96.2617 18.5zM310.697 55.0029c74.4336 0 139.409 44.4248 174.9 92.9971
c22.4072 30.667 36.667 63.334 42.7793 98.001c14.748 83.6318 -20.5693 142.201 -73.4951 173.001c-21.7666 12.667 -47.3164 19 -76.6494 19c-86.5762 0 -144.192 -45.7158 -182.311 -101c-17.4678 -25.333 -29.3154 -55.666 -35.5459 -90.999
c-19.7246 -111.86 45.8096 -191 150.321 -191z" />
    <glyph glyph-name="Emacron" unicode="&#x112;" horiz-adv-x="637" 
d="M576.975 743h-284l10.9326 62h284zM589.695 72l-12.6953 -72h-489l118.139 670h488l-12.5186 -71h-409l-40.0264 -227h380l-12.5195 -71h-380l-40.3789 -229h410z" />
    <glyph glyph-name="emacron" unicode="&#x113;" horiz-adv-x="583" 
d="M542.975 565h-284l10.9326 62h284zM554.392 144.001c-49.1709 -88.1338 -136.22 -157 -263.684 -157c-71.0488 0 -126.991 30.6787 -161.98 71c-36.1709 41.6807 -56.6328 107.003 -42.5273 186.999c19.4844 110.494 96.3516 202.273 194.642 239
c37.4688 14 72.8701 21 106.203 21c106.541 0 174.416 -59.7119 195.08 -147c7.25977 -30.667 8.44043 -63.667 3.54395 -99l-4.93652 -27.999h-423c-8.63867 -78.7754 23.3115 -131.591 74.2871 -160c20.335 -11.333 43.835 -17 70.502 -17
c37.333 0 71.999 8.5 103.997 25.5c31.9971 17 51.7402 27.833 74.873 64.5h73zM513.784 288.001c3.62207 90.6543 -50.6953 150 -138.552 150c-18.667 0 -41.7637 -4.33301 -69.292 -13c-60.4971 -19.0469 -114.445 -74.2734 -135.156 -137h343z" />
    <glyph glyph-name="Ebreve" unicode="&#x114;" horiz-adv-x="637" 
d="M598.49 878.001c-13.7021 -77.707 -79.2178 -135.001 -168.804 -135.001c-82.0527 0 -136.21 49.8682 -121.198 135.001h64c-8.30176 -47.0801 22.4287 -80 66.8955 -80c48.4795 0 87.5576 37.1895 95.1064 80h64zM589.695 72l-12.6953 -72h-489l118.139 670h488
l-12.5186 -71h-409l-40.0264 -227h380l-12.5195 -71h-380l-40.3789 -229h410z" />
    <glyph glyph-name="ebreve" unicode="&#x115;" horiz-adv-x="583" 
d="M564.49 700.001c-13.7021 -77.707 -79.2178 -135.001 -168.804 -135.001c-82.0527 0 -136.21 49.8682 -121.198 135.001h64c-8.30176 -47.0801 22.4287 -80 66.8955 -80c48.4795 0 87.5576 37.1895 95.1064 80h64zM554.392 144.001
c-49.1709 -88.1338 -136.22 -157 -263.684 -157c-71.0488 0 -126.991 30.6787 -161.98 71c-36.1709 41.6807 -56.6328 107.003 -42.5273 186.999c19.4844 110.494 96.3516 202.273 194.642 239c37.4688 14 72.8701 21 106.203 21c106.541 0 174.416 -59.7119 195.08 -147
c7.25977 -30.667 8.44043 -63.667 3.54395 -99l-4.93652 -27.999h-423c-8.63867 -78.7754 23.3115 -131.591 74.2871 -160c20.335 -11.333 43.835 -17 70.502 -17c37.333 0 71.999 8.5 103.997 25.5c31.9971 17 51.7402 27.833 74.873 64.5h73zM513.784 288.001
c3.62207 90.6543 -50.6953 150 -138.552 150c-18.667 0 -41.7637 -4.33301 -69.292 -13c-60.4971 -19.0469 -114.445 -74.2734 -135.156 -137h343z" />
    <glyph glyph-name="Edotaccent" unicode="&#x116;" horiz-adv-x="637" 
d="M452.106 842c27.3779 0 48.3369 -20.7812 43.3613 -49c-4.6582 -26.418 -30.3945 -50 -60.8164 -50c-27.96 0 -47.3115 20.9219 -42.1846 50c4.43066 25.127 30.6709 49 59.6396 49zM589.695 72l-12.6953 -72h-489l118.139 670h488l-12.5186 -71h-409l-40.0264 -227h380
l-12.5195 -71h-380l-40.3789 -229h410z" />
    <glyph glyph-name="edotaccent" unicode="&#x117;" horiz-adv-x="583" 
d="M418.106 664c27.3779 0 48.3369 -20.7812 43.3613 -49c-4.6582 -26.418 -30.3945 -50 -60.8164 -50c-27.96 0 -47.3115 20.9219 -42.1846 50c4.43066 25.127 30.6709 49 59.6396 49zM554.392 144.001c-49.1709 -88.1338 -136.22 -157 -263.684 -157
c-71.0488 0 -126.991 30.6787 -161.98 71c-36.1709 41.6807 -56.6328 107.003 -42.5273 186.999c19.4844 110.494 96.3516 202.273 194.642 239c37.4688 14 72.8701 21 106.203 21c106.541 0 174.416 -59.7119 195.08 -147c7.25977 -30.667 8.44043 -63.667 3.54395 -99
l-4.93652 -27.999h-423c-8.63867 -78.7754 23.3115 -131.591 74.2871 -160c20.335 -11.333 43.835 -17 70.502 -17c37.333 0 71.999 8.5 103.997 25.5c31.9971 17 51.7402 27.833 74.873 64.5h73zM513.784 288.001c3.62207 90.6543 -50.6953 150 -138.552 150
c-18.667 0 -41.7637 -4.33301 -69.292 -13c-60.4971 -19.0469 -114.445 -74.2734 -135.156 -137h343z" />
    <glyph glyph-name="Eogonek" unicode="&#x118;" horiz-adv-x="637" 
d="M333.029 6.7666l53.4727 -2.99805c-31.6035 -28 -53.4443 -48.833 -65.5215 -62.5c-15.5391 -17.5859 -32.4912 -46.0273 -17.4307 -70.501c4.92188 -8 15.0498 -12 30.3828 -12c8.66699 0 24.5879 3.33301 47.7637 10l-2.81641 -50
c-27.7637 -10 -51.3125 -15 -70.6455 -15c-47.7031 0 -78.6074 30.582 -69.3643 82.999c2.58594 14.667 9.46582 31 20.6396 49s35.6797 41.667 73.5195 71zM589.695 72l-12.6953 -72h-489l118.139 670h488l-12.5186 -71h-409l-40.0264 -227h380l-12.5195 -71h-380
l-40.3789 -229h410z" />
    <glyph glyph-name="eogonek" unicode="&#x119;" horiz-adv-x="583" 
d="M266.528 -6.23242l53.4727 -2.99805c-31.6035 -28 -53.4443 -48.833 -65.5215 -62.5c-15.5391 -17.5859 -32.4912 -46.0273 -17.4307 -70.501c4.92188 -8 15.0498 -12 30.3828 -12c8.66699 0 24.5879 3.33301 47.7637 10l-2.81641 -50
c-27.7637 -10 -51.3125 -15 -70.6455 -15c-47.7031 0 -78.6074 30.582 -69.3643 82.999c2.58594 14.667 9.46582 31 20.6396 49s35.6797 41.667 73.5195 71zM554.392 144.001c-49.1709 -88.1338 -136.22 -157 -263.684 -157c-71.0488 0 -126.991 30.6787 -161.98 71
c-36.1709 41.6807 -56.6328 107.003 -42.5273 186.999c19.4844 110.494 96.3516 202.273 194.642 239c37.4688 14 72.8701 21 106.203 21c106.541 0 174.416 -59.7119 195.08 -147c7.25977 -30.667 8.44043 -63.667 3.54395 -99l-4.93652 -27.999h-423
c-8.63867 -78.7754 23.3115 -131.591 74.2871 -160c20.335 -11.333 43.835 -17 70.502 -17c37.333 0 71.999 8.5 103.997 25.5c31.9971 17 51.7402 27.833 74.873 64.5h73zM513.784 288.001c3.62207 90.6543 -50.6953 150 -138.552 150
c-18.667 0 -41.7637 -4.33301 -69.292 -13c-60.4971 -19.0469 -114.445 -74.2734 -135.156 -137h343z" />
    <glyph glyph-name="Ecaron" unicode="&#x11a;" horiz-adv-x="637" 
d="M608.781 885l-142.038 -142h-73l-90.9619 142h77l59.7783 -92l91.2217 92h78zM589.695 72l-12.6953 -72h-489l118.139 670h488l-12.5186 -71h-409l-40.0264 -227h380l-12.5195 -71h-380l-40.3789 -229h410z" />
    <glyph glyph-name="ecaron" unicode="&#x11b;" horiz-adv-x="583" 
d="M574.781 707l-142.038 -142h-73l-90.9619 142h77l59.7783 -92l91.2217 92h78zM554.392 144.001c-49.1709 -88.1338 -136.22 -157 -263.684 -157c-71.0488 0 -126.991 30.6787 -161.98 71c-36.1709 41.6807 -56.6328 107.003 -42.5273 186.999
c19.4844 110.494 96.3516 202.273 194.642 239c37.4688 14 72.8701 21 106.203 21c106.541 0 174.416 -59.7119 195.08 -147c7.25977 -30.667 8.44043 -63.667 3.54395 -99l-4.93652 -27.999h-423c-8.63867 -78.7754 23.3115 -131.591 74.2871 -160
c20.335 -11.333 43.835 -17 70.502 -17c37.333 0 71.999 8.5 103.997 25.5c31.9971 17 51.7402 27.833 74.873 64.5h73zM513.784 288.001c3.62207 90.6543 -50.6953 150 -138.552 150c-18.667 0 -41.7637 -4.33301 -69.292 -13
c-60.4971 -19.0469 -114.445 -74.2734 -135.156 -137h343z" />
    <glyph glyph-name="Gcircumflex" unicode="&#x11c;" horiz-adv-x="795" 
d="M575.565 743l-58.6016 93l-92.3984 -93h-77l141.039 142h73l91.9609 -142h-78zM721.46 479c-24.5146 79.2383 -106.039 130 -212.077 130c-83.6982 0 -154.768 -37.0957 -203.518 -79.5c-52.6377 -45.7852 -97.6387 -114.21 -111.796 -194.5
c-22.1631 -125.688 37.1973 -214.811 121.39 -253c30.8643 -14 64.6299 -21 101.297 -21c121.763 0 205.968 66.6719 256.038 142c19.0557 28.667 33.5215 59.667 43.3984 93h-296l12.6963 72l370.998 0.00195312l-4.99512 -34
c-17.8633 -101.311 -71.9365 -188.186 -137.465 -246.501c-61.9971 -55.1729 -150.739 -100.501 -259.721 -100.501c-102.117 0 -182.057 42.5596 -230.191 101c-46.9482 56.998 -75.9541 142.04 -57.4473 247c18.1338 102.833 76.0947 188.804 144.553 247
c64.0732 54.4688 155.089 101 263.811 101c73.333 0 135.306 -17.167 185.919 -51.5s80.8076 -91.833 94.1104 -152.5h-81z" />
    <glyph glyph-name="gcircumflex" unicode="&#x11d;" horiz-adv-x="633" 
d="M459.566 565l-58.6016 93l-92.3984 -93h-77l141.039 142h73l91.9609 -142h-78zM375.045 505c80.4561 0 140.216 -29.9658 170.895 -80l11.9902 68h74l-78.876 -453.002c-25.0986 -135.172 -132.47 -230 -288.556 -230c-82.7402 0 -151.72 24.3564 -186.333 69.001
c-16.0225 20.667 -34.3115 48.334 -37.1025 93.001h75c12.0049 -34 32.2432 -49.667 57.1865 -67s59.415 -26 103.415 -26c110.173 0 186.075 74.1494 203.152 171l10.5791 60c-44.6367 -47.208 -111.898 -81 -199.282 -81c-105.13 0 -175.9 60.0381 -198.021 144.502
c-18.7402 71.5684 3.67285 140.775 33.2373 188.499c34.8193 56.2021 88.6318 101.341 153.629 125.499c31.3906 11.667 63.0859 17.5 95.0859 17.5zM313.752 94.998c57.1709 0 98.7217 22.1895 133.405 50.502c46.3799 37.8594 90.5371 112.741 67.2646 199.998
c-14.1299 52.9707 -72.209 93.5 -140.014 93.5c-78.1328 0 -139.983 -40.0537 -174.163 -86c-29.2197 -39.2803 -53.1924 -110.218 -30.0635 -170.5c19.6865 -51.3105 71.1133 -87.5 143.57 -87.5z" />
    <glyph glyph-name="Gbreve" unicode="&#x11e;" horiz-adv-x="795" 
d="M668.489 878.001c-13.7021 -77.707 -79.2178 -135.001 -168.804 -135.001c-82.0527 0 -136.21 49.8682 -121.198 135.001h64c-8.30176 -47.0801 22.4287 -80 66.8955 -80c48.4795 0 87.5576 37.1895 95.1064 80h64zM721.46 479
c-24.5146 79.2383 -106.039 130 -212.077 130c-83.6982 0 -154.768 -37.0957 -203.518 -79.5c-52.6377 -45.7852 -97.6387 -114.21 -111.796 -194.5c-22.1631 -125.688 37.1973 -214.811 121.39 -253c30.8643 -14 64.6299 -21 101.297 -21
c121.763 0 205.968 66.6719 256.038 142c19.0557 28.667 33.5215 59.667 43.3984 93h-296l12.6963 72l370.998 0.00195312l-4.99512 -34c-17.8633 -101.311 -71.9365 -188.186 -137.465 -246.501c-61.9971 -55.1729 -150.739 -100.501 -259.721 -100.501
c-102.117 0 -182.057 42.5596 -230.191 101c-46.9482 56.998 -75.9541 142.04 -57.4473 247c18.1338 102.833 76.0947 188.804 144.553 247c64.0732 54.4688 155.089 101 263.811 101c73.333 0 135.306 -17.167 185.919 -51.5s80.8076 -91.833 94.1104 -152.5h-81z" />
    <glyph glyph-name="gbreve" unicode="&#x11f;" horiz-adv-x="633" 
d="M552.49 700.001c-13.7021 -77.707 -79.2178 -135.001 -168.804 -135.001c-82.0527 0 -136.21 49.8682 -121.198 135.001h64c-8.30176 -47.0801 22.4287 -80 66.8955 -80c48.4795 0 87.5576 37.1895 95.1064 80h64zM375.045 505c80.4561 0 140.216 -29.9658 170.895 -80
l11.9902 68h74l-78.876 -453.002c-25.0986 -135.172 -132.47 -230 -288.556 -230c-82.7402 0 -151.72 24.3564 -186.333 69.001c-16.0225 20.667 -34.3115 48.334 -37.1025 93.001h75c12.0049 -34 32.2432 -49.667 57.1865 -67s59.415 -26 103.415 -26
c110.173 0 186.075 74.1494 203.152 171l10.5791 60c-44.6367 -47.208 -111.898 -81 -199.282 -81c-105.13 0 -175.9 60.0381 -198.021 144.502c-18.7402 71.5684 3.67285 140.775 33.2373 188.499c34.8193 56.2021 88.6318 101.341 153.629 125.499
c31.3906 11.667 63.0859 17.5 95.0859 17.5zM313.752 94.998c57.1709 0 98.7217 22.1895 133.405 50.502c46.3799 37.8594 90.5371 112.741 67.2646 199.998c-14.1299 52.9707 -72.209 93.5 -140.014 93.5c-78.1328 0 -139.983 -40.0537 -174.163 -86
c-29.2197 -39.2803 -53.1924 -110.218 -30.0635 -170.5c19.6865 -51.3105 71.1133 -87.5 143.57 -87.5z" />
    <glyph glyph-name="Gdotaccent" unicode="&#x120;" horiz-adv-x="795" 
d="M522.106 842c27.377 0 48.3359 -20.7812 43.3613 -49c-4.6582 -26.418 -30.3955 -50 -60.8164 -50c-27.96 0 -47.3125 20.9219 -42.1846 50c4.42969 25.127 30.6699 49 59.6396 49zM721.46 479c-24.5146 79.2383 -106.039 130 -212.077 130
c-83.6982 0 -154.768 -37.0957 -203.518 -79.5c-52.6377 -45.7852 -97.6387 -114.21 -111.796 -194.5c-22.1631 -125.688 37.1973 -214.811 121.39 -253c30.8643 -14 64.6299 -21 101.297 -21c121.763 0 205.968 66.6719 256.038 142
c19.0557 28.667 33.5215 59.667 43.3984 93h-296l12.6963 72l370.998 0.00195312l-4.99512 -34c-17.8633 -101.311 -71.9365 -188.186 -137.465 -246.501c-61.9971 -55.1729 -150.739 -100.501 -259.721 -100.501c-102.117 0 -182.057 42.5596 -230.191 101
c-46.9482 56.998 -75.9541 142.04 -57.4473 247c18.1338 102.833 76.0947 188.804 144.553 247c64.0732 54.4688 155.089 101 263.811 101c73.333 0 135.306 -17.167 185.919 -51.5s80.8076 -91.833 94.1104 -152.5h-81z" />
    <glyph glyph-name="gdotaccent" unicode="&#x121;" horiz-adv-x="633" 
d="M406.106 664c27.3779 0 48.3369 -20.7812 43.3613 -49c-4.6582 -26.418 -30.3945 -50 -60.8164 -50c-27.96 0 -47.3115 20.9219 -42.1846 50c4.43066 25.127 30.6709 49 59.6396 49zM375.045 505c80.4561 0 140.216 -29.9658 170.895 -80l11.9902 68h74l-78.876 -453.002
c-25.0986 -135.172 -132.47 -230 -288.556 -230c-82.7402 0 -151.72 24.3564 -186.333 69.001c-16.0225 20.667 -34.3115 48.334 -37.1025 93.001h75c12.0049 -34 32.2432 -49.667 57.1865 -67s59.415 -26 103.415 -26c110.173 0 186.075 74.1494 203.152 171l10.5791 60
c-44.6367 -47.208 -111.898 -81 -199.282 -81c-105.13 0 -175.9 60.0381 -198.021 144.502c-18.7402 71.5684 3.67285 140.775 33.2373 188.499c34.8193 56.2021 88.6318 101.341 153.629 125.499c31.3906 11.667 63.0859 17.5 95.0859 17.5zM313.752 94.998
c57.1709 0 98.7217 22.1895 133.405 50.502c46.3799 37.8594 90.5371 112.741 67.2646 199.998c-14.1299 52.9707 -72.209 93.5 -140.014 93.5c-78.1328 0 -139.983 -40.0537 -174.163 -86c-29.2197 -39.2803 -53.1924 -110.218 -30.0635 -170.5
c19.6865 -51.3105 71.1133 -87.5 143.57 -87.5z" />
    <glyph glyph-name="uni0122" unicode="&#x122;" horiz-adv-x="795" 
d="M271.851 -188l73.2148 143h83l-96.2148 -143h-60zM721.46 479c-24.5146 79.2383 -106.039 130 -212.077 130c-83.6982 0 -154.768 -37.0957 -203.518 -79.5c-52.6377 -45.7852 -97.6387 -114.21 -111.796 -194.5c-22.1631 -125.688 37.1973 -214.811 121.39 -253
c30.8643 -14 64.6299 -21 101.297 -21c121.763 0 205.968 66.6719 256.038 142c19.0557 28.667 33.5215 59.667 43.3984 93h-296l12.6963 72l370.998 0.00195312l-4.99512 -34c-17.8633 -101.311 -71.9365 -188.186 -137.465 -246.501
c-61.9971 -55.1729 -150.739 -100.501 -259.721 -100.501c-102.117 0 -182.057 42.5596 -230.191 101c-46.9482 56.998 -75.9541 142.04 -57.4473 247c18.1338 102.833 76.0947 188.804 144.553 247c64.0732 54.4688 155.089 101 263.811 101
c73.333 0 135.306 -17.167 185.919 -51.5s80.8076 -91.833 94.1104 -152.5h-81z" />
    <glyph glyph-name="uni0123" unicode="&#x123;" horiz-adv-x="638" 
d="M356 569h-83l72 143h59zM286 505c83.6367 0 147.162 -32.0703 185.001 -80v68h74l1.00098 -453.002c-1.34863 -144.243 -101.398 -230 -247.999 -230c-85.6475 0 -157.72 26.1465 -198.501 69.001c-19.667 20.667 -33.834 40.334 -42.501 59.001l64 44
c33.7402 -63.7314 83.2207 -103 177 -103c103.557 0 173 67.3926 173 171v60c-37.6738 -48.9756 -100.821 -81 -185.001 -81c-111.495 0 -188.663 65.002 -223.5 144.502c-13 29.667 -19.5 61.167 -19.5 94.5c0 73.7617 32.7383 132.106 73 169.998
c39.8047 37.4619 97.8164 67 170 67zM297.002 94.998c54.8516 0 93.9248 21.3467 124.501 50.502c27.1826 25.9199 49.499 70.2812 49.499 122.499c0 97.9746 -74.0791 170.999 -174 170.999c-75.3174 0 -131.644 -37.8018 -158.999 -86c-14 -24.667 -21 -53 -21 -85
c0 -72.1621 34.8506 -118.64 83 -148c27.333 -16.667 59.666 -25 96.999 -25z" />
    <glyph glyph-name="Hcircumflex" unicode="&#x124;" horiz-adv-x="736" 
d="M541.566 743l-58.6016 93l-92.3984 -93h-77l141.039 142h73l91.9609 -142h-78zM766.139 670l-118.139 -670h-79l53.251 302h-402l-53.251 -302h-79l118.139 670h79l-52.3691 -297h402l52.3691 297h79z" />
    <glyph glyph-name="hcircumflex" unicode="&#x125;" horiz-adv-x="625" 
d="M491.565 780l-58.6016 93l-92.3984 -93h-77l141.039 142h73l91.9609 -142h-78zM236.47 411c44.625 52.9385 111.327 94 202.575 94c85.9033 0 138.449 -42.0352 158.839 -111.499c8.12207 -27.667 8.83203 -60.5 2.13184 -98.5l-52.0166 -295h-76l49.5479 281
c15.7598 89.376 -26.7256 154 -109.846 154c-118.46 0 -186.766 -89.4199 -205.913 -198.001l-41.7891 -237h-76l126.955 720h76z" />
    <glyph glyph-name="Hbar" unicode="&#x126;" horiz-adv-x="758" 
d="M808.168 466h-70l-82.168 -466h-79l49.7246 282h-398l-49.7246 -282h-79l82.168 466h-70l11.6377 66h70l24.333 138h79l-24.333 -138h398l24.333 138h79l-24.333 -138h70zM659.168 466h-398l-19.9248 -113h398z" />
    <glyph glyph-name="hbar" unicode="&#x127;" horiz-adv-x="627" 
d="M254.646 412.001c44.2793 51.5977 112.642 92.999 202.4 92.999c85.9053 0 138.449 -42.0332 158.839 -111.498c8.12207 -27.667 8.83203 -60.5 2.13184 -98.5l-52.0166 -295h-77l49.5479 281c15.7568 89.3584 -25.71 154 -108.847 154
c-118.46 0 -186.767 -89.4199 -205.912 -198.001l-41.79 -237h-77l102.094 579h-75l9.87402 56h75l14.9883 85h77l-14.9883 -85h172l-9.87402 -56h-172z" />
    <glyph glyph-name="Itilde" unicode="&#x128;" horiz-adv-x="254" 
d="M180.997 791c-25.46 0 -40.8604 -21.9014 -44.9346 -44.999l-54.001 -0.000976562c9.88184 56.04 46.1299 102 104.985 102c21.333 0 40.9316 -7 58.7959 -21c17.8652 -14 30.4541 -22 37.7686 -24s12.9707 -3 16.9707 -3c25.9043 0 41.0977 23.2354 45.2881 47h54
c-9.47168 -53.707 -43.6289 -104 -105.337 -104c-21.333 0 -40.9326 7 -58.7969 21s-30.4531 22 -37.7676 24s-12.9717 3 -16.9717 3zM167 0h-79l118.139 670h79z" />
    <glyph glyph-name="itilde" unicode="&#x129;" horiz-adv-x="279" 
d="M192.997 612c-25.46 0 -40.8604 -21.9014 -44.9346 -44.999l-54.001 -0.000976562c9.88184 56.04 46.1299 102 104.985 102c21.333 0 40.9316 -7 58.7959 -21c17.8652 -14 30.4541 -22 37.7686 -24s12.9707 -3 16.9707 -3c25.9043 0 41.0977 23.2354 45.2881 47h54
c-9.47168 -53.707 -43.6289 -104 -105.337 -104c-21.333 0 -40.9326 7 -58.7969 21s-30.4531 22 -37.7676 24s-12.9717 3 -16.9717 3zM178 0h-77v493h77v-493z" />
    <glyph glyph-name="Imacron" unicode="&#x12a;" horiz-adv-x="254" 
d="M372.475 743h-284l10.9326 62h284zM167 0h-79l118.139 670h79z" />
    <glyph glyph-name="imacron" unicode="&#x12b;" horiz-adv-x="279" 
d="M384.475 564h-284l10.9326 62h284zM178 0h-77v493h77v-493z" />
    <glyph glyph-name="Ibreve" unicode="&#x12c;" horiz-adv-x="254" 
d="M393.99 878.001c-13.7021 -77.707 -79.2178 -135.001 -168.804 -135.001c-82.0527 0 -136.21 49.8682 -121.198 135.001h64c-8.30176 -47.0801 22.4287 -80 66.8955 -80c48.4795 0 87.5576 37.1895 95.1064 80h64zM167 0h-79l118.139 670h79z" />
    <glyph glyph-name="ibreve" unicode="&#x12d;" horiz-adv-x="279" 
d="M405.99 699.001c-13.7021 -77.707 -79.2178 -135.001 -168.804 -135.001c-82.0527 0 -136.21 49.8682 -121.198 135.001h64c-8.30176 -47.0801 22.4287 -80 66.8955 -80c48.4795 0 87.5576 37.1895 95.1064 80h64zM178 0h-77v493h77v-493z" />
    <glyph glyph-name="Iogonek" unicode="&#x12e;" horiz-adv-x="254" 
d="M101.028 6.7666l53.4727 -2.99805c-31.6035 -28 -53.4443 -48.833 -65.5215 -62.5c-15.5391 -17.5859 -32.4912 -46.0273 -17.4307 -70.501c4.92188 -8 15.0498 -12 30.3828 -12c8.66699 0 24.5879 3.33301 47.7637 10l-2.81641 -50
c-27.7637 -10 -51.3125 -15 -70.6455 -15c-47.7031 0 -78.6074 30.582 -69.3643 82.999c2.58594 14.667 9.46582 31 20.6396 49s35.6797 41.667 73.5195 71zM167 0h-79l118.139 670h79z" />
    <glyph glyph-name="iogonek" unicode="&#x12f;" horiz-adv-x="279" 
d="M113.028 6.7666l53.4727 -2.99805c-31.6035 -28 -53.4443 -48.833 -65.5215 -62.5c-15.5391 -17.5859 -32.4912 -46.0273 -17.4307 -70.501c4.92188 -8 15.0498 -12 30.3828 -12c8.66699 0 24.5879 3.33301 47.7637 10l-2.81641 -50
c-27.7637 -10 -51.3125 -15 -70.6455 -15c-47.7031 0 -78.6074 30.582 -69.3643 82.999c2.58594 14.667 9.46582 31 20.6396 49s35.6797 41.667 73.5195 71zM376.513 663c27.377 0 44.6719 -20.7812 34.7207 -49c-9.31641 -26.418 -39.2119 -50 -69.6328 -50
c-27.96 0 -43.623 20.9219 -33.3682 50c8.86035 25.127 39.3105 49 68.2803 49zM178 0h-77l86.9297 493h77z" />
    <glyph glyph-name="Idotaccent" unicode="&#x130;" horiz-adv-x="254" 
d="M247.607 842c27.377 0 48.3359 -20.7812 43.3613 -49c-4.6582 -26.418 -30.3955 -50 -60.8164 -50c-27.96 0 -47.3125 20.9219 -42.1846 50c4.42969 25.127 30.6699 49 59.6396 49zM167 0h-79l118.139 670h79z" />
    <glyph glyph-name="dotlessi" unicode="&#x131;" horiz-adv-x="279" 
d="M178 0h-77v493h77v-493z" />
    <glyph glyph-name="IJ" unicode="&#x132;" horiz-adv-x="849" 
d="M206.139 670h79l-118.139 -670h-79zM888.139 670l-75.1143 -426.004c-19.0508 -108.024 -87.9092 -198.651 -183.525 -235.497c-37.1943 -14.333 -73.791 -21.5 -109.791 -21.5c-130.067 0 -210.087 85.5986 -205.914 216.001h75
c-2.58105 -48.667 11.54 -70.667 36.3682 -100c24.8271 -29.333 60.5742 -44 107.241 -44c109.006 0 184.523 88.0361 201.62 185l75.1152 426h79z" />
    <glyph glyph-name="ij" unicode="&#x133;" horiz-adv-x="554" 
d="M256.194 693c27.377 0 48.9805 -22.7939 44.0078 -50.999c-4.65137 -26.377 -31.6025 -51 -61.9932 -51c-27.9365 0 -48.1318 21.9375 -43.0068 51c4.50488 25.5518 31.2012 50.999 60.9922 50.999zM542.194 693c27.4268 0 47.9834 -22.7832 43.0088 -51
c-4.65039 -26.375 -30.5928 -51 -60.9932 -51c-29.2422 0 -49.376 20.5488 -44.0068 51.001c4.50391 25.5498 32.2168 50.999 61.9912 50.999zM173.001 -0.000976562h-77l86.9287 493h77zM225.26 -163.001l27.6367 66c15.374 -7.33301 30.3936 -11 45.0605 -11
c39.8145 0 69.6816 26.5537 75.7568 61l95.2158 540h77l-96.8027 -549c-11.7461 -66.6074 -66.1309 -124 -145.865 -124c-29.333 0 -55.334 5.66699 -78.002 17z" />
    <glyph glyph-name="Jcircumflex" unicode="&#x134;" horiz-adv-x="595" 
d="M650.066 743l-58.6016 93l-92.3984 -93h-77l141.039 142h73l91.9609 -142h-78zM634.139 670l-75.1152 -426.004c-19.0508 -108.024 -87.9082 -198.651 -183.524 -235.497c-37.1943 -14.333 -73.791 -21.5 -109.791 -21.5c-130.067 0 -210.087 85.5986 -205.914 216.001
h75c-2.58105 -48.667 11.54 -70.667 36.3682 -100c24.8271 -29.333 60.5742 -44 107.241 -44c109.006 0 184.523 88.0361 201.62 185l75.1152 426h79z" />
    <glyph glyph-name="jcircumflex" unicode="&#x135;" horiz-adv-x="285" 
d="M324.566 753l-58.6016 93l-92.3984 -93h-77l141.039 142h73l91.9609 -142h-78zM273.194 693c27.4268 0 47.9824 -22.7832 43.0078 -51c-4.65039 -26.374 -30.5928 -51 -60.9932 -51c-29.2422 0 -49.376 20.5488 -44.0068 51.001
c4.50391 25.5498 32.2178 50.999 61.9922 50.999zM-27.7412 -163.001l11.6367 66c15.374 -7.33301 30.3936 -11 45.0605 -11c39.8145 0 69.6816 26.5537 75.7568 61l95.2158 540h77l-96.8027 -549c-11.7461 -66.6074 -66.1309 -124 -145.865 -124
c-28.667 0 -38.001 5.66699 -62.002 17z" />
    <glyph glyph-name="uni0136" unicode="&#x136;" horiz-adv-x="704" 
d="M206.851 -188l73.2148 143h83l-96.2148 -143h-60zM689 0h-100l-200.518 326l-195.21 -177l-26.2725 -149h-79l118.139 670h79l-74.7627 -424l464.763 424h92l-315.605 -287z" />
    <glyph glyph-name="uni0137" unicode="&#x137;" horiz-adv-x="599" 
d="M159.851 -188l73.2148 143h83l-96.2148 -143h-60zM589 0h-97l-169.092 232l-139.865 -124l-19.043 -108h-76l126.955 720h76l-89.9268 -510l324.901 283h92l-233.5 -207z" />
    <glyph glyph-name="Lacute" unicode="&#x139;" horiz-adv-x="586" 
d="M260.478 743h-67l104.686 140h89zM563.695 72l-12.6953 -72h-463l118.139 670h79l-105.443 -598h384z" />
    <glyph glyph-name="lacute" unicode="&#x13a;" horiz-adv-x="252" 
d="M259.478 780h-67l104.686 140h89zM164 0h-76l126.955 720h76z" />
    <glyph glyph-name="uni013B" unicode="&#x13b;" horiz-adv-x="586" 
d="M199.851 -188l73.2148 143h83l-96.2148 -143h-60zM563.695 72l-12.6953 -72h-463l118.139 670h79l-105.443 -598h384z" />
    <glyph glyph-name="uni013C" unicode="&#x13c;" horiz-adv-x="252" 
d="M3.85059 -188l73.2148 143h83l-96.2148 -143h-60zM164 0h-76l126.955 720h76z" />
    <glyph glyph-name="Lcaron" unicode="&#x13d;" horiz-adv-x="586" 
d="M677.725 420h-60l112.374 263h90l-0.352539 -2zM563.695 72l-12.6953 -72h-463l118.139 670h79l-105.443 -598h384z" />
    <glyph glyph-name="lcaron" unicode="&#x13e;" horiz-adv-x="252" 
d="M252.725 457h-60l112.374 263h90l-0.352539 -2zM164 0h-76l126.955 720h76z" />
    <glyph glyph-name="Ldot" unicode="&#x13f;" horiz-adv-x="586" 
d="M374.866 391.999c27.4268 0 47.9844 -22.7812 43.0078 -50.999c-4.6582 -26.417 -30.3945 -50 -60.8164 -50c-27.916 0 -48.3096 20.9287 -43.1836 50c4.50684 25.5518 31.2002 50.999 60.9922 50.999zM563.695 72l-12.6953 -72h-463l118.139 670h79l-105.443 -598h384z
" />
    <glyph glyph-name="ldot" unicode="&#x140;" horiz-adv-x="456" 
d="M409.366 314c27.4268 0 47.9844 -22.7822 43.0078 -50.999c-4.6582 -26.418 -30.3945 -50 -60.8164 -50c-27.916 0 -48.3096 20.9287 -43.1836 50c4.50684 25.5518 31.2002 50.999 60.9922 50.999zM164 0h-76l126.955 720h76z" />
    <glyph glyph-name="Lslash" unicode="&#x141;" horiz-adv-x="596" 
d="M578.695 72l-12.6953 -72h-463l43.9053 249l-79.1709 -35l13.0479 74l79.1719 35l61.1846 347h79l-54.3086 -308l171.401 76l-13.0488 -74l-171.4 -76l-38.0869 -216h384z" />
    <glyph glyph-name="lslash" unicode="&#x142;" horiz-adv-x="301" 
d="M339.415 388l-90.9932 -51l-59.4219 -337h-76l51.1348 290l-92.1689 -52l13.2246 75l92.1689 52l62.5957 355h76l-54.3086 -308l90.9932 51z" />
    <glyph glyph-name="Nacute" unicode="&#x143;" horiz-adv-x="760" 
d="M513.978 743h-67l104.686 140h89zM791.139 670l-118.139 -670h-68l-344.194 532l-93.8057 -532h-79l118.139 670h68l343.137 -538l94.8633 538h79z" />
    <glyph glyph-name="nacute" unicode="&#x144;" horiz-adv-x="624" 
d="M451.477 565h-67l104.686 140h89zM236.47 411c44.625 52.9385 111.327 94 202.575 94c85.9033 0 138.449 -42.0352 158.839 -111.499c8.12207 -27.667 8.83203 -60.5 2.13184 -98.5l-52.0166 -295h-76l49.5479 281c15.7598 89.376 -26.7256 154 -109.846 154
c-118.46 0 -186.766 -89.4199 -205.913 -198.001l-41.7891 -237h-76l86.9297 493h76z" />
    <glyph glyph-name="uni0145" unicode="&#x145;" horiz-adv-x="760" 
d="M276.851 -188l73.2148 143h83l-96.2148 -143h-60zM791.139 670l-118.139 -670h-68l-344.194 532l-93.8057 -532h-79l118.139 670h68l343.137 -538l94.8633 538h79z" />
    <glyph glyph-name="uni0146" unicode="&#x146;" horiz-adv-x="624" 
d="M198.851 -188l73.2148 143h83l-96.2148 -143h-60zM236.47 411c44.625 52.9385 111.327 94 202.575 94c85.9033 0 138.449 -42.0352 158.839 -111.499c8.12207 -27.667 8.83203 -60.5 2.13184 -98.5l-52.0166 -295h-76l49.5479 281
c15.7598 89.376 -26.7256 154 -109.846 154c-118.46 0 -186.766 -89.4199 -205.913 -198.001l-41.7891 -237h-76l86.9297 493h76z" />
    <glyph glyph-name="Ncaron" unicode="&#x147;" horiz-adv-x="760" 
d="M657.281 885l-142.038 -142h-73l-90.9619 142h77l59.7783 -92l91.2217 92h78zM791.139 670l-118.139 -670h-68l-344.194 532l-93.8057 -532h-79l118.139 670h68l343.137 -538l94.8633 538h79z" />
    <glyph glyph-name="ncaron" unicode="&#x148;" horiz-adv-x="624" 
d="M594.78 707l-142.038 -142h-73l-90.9619 142h77l59.7783 -92l91.2217 92h78zM236.47 411c44.625 52.9385 111.327 94 202.575 94c85.9033 0 138.449 -42.0352 158.839 -111.499c8.12207 -27.667 8.83203 -60.5 2.13184 -98.5l-52.0166 -295h-76l49.5479 281
c15.7598 89.376 -26.7256 154 -109.846 154c-118.46 0 -186.766 -89.4199 -205.913 -198.001l-41.7891 -237h-76l86.9297 493h76z" />
    <glyph glyph-name="Eng" unicode="&#x14a;" horiz-adv-x="750" 
d="M531 -112c37.3965 0 65 23.1465 65 60v63l-429 521v-532h-79v670h68l438 -538v538h79v-722c0 -72.0664 -49.4766 -128 -124 -128c-32.667 0 -63.667 7.33301 -93 22l16 60c20 -9.33301 39.667 -14 59 -14z" />
    <glyph glyph-name="eng" unicode="&#x14b;" horiz-adv-x="625" 
d="M163.999 411c36.6816 55.0215 98.2441 94 186.002 94c91.0439 0 147.729 -46.0137 178.498 -111.499c13 -27.667 19.5 -60.5 19.5 -98.5v-347c0 -72.0664 -49.4766 -128 -124 -128c-32 0 -62.667 7.33301 -92 22l16 59c20 -9.33301 39.667 -14 59 -14
c37.4053 0 65 24.1611 65 61v333c0 87.165 -52.082 154 -137 154c-111.387 0 -171 -81.8027 -171 -198.001v-237h-76v493h76v-82z" />
    <glyph glyph-name="Omacron" unicode="&#x14c;" horiz-adv-x="803" 
d="M646.975 743h-284l10.9326 62h284zM522.432 683c100.82 0 180.074 -43.7949 227.604 -101.5c46.3096 -56.2236 75.3047 -142.893 57.0361 -246.5c-18.0898 -102.598 -76.1123 -188.728 -144.054 -247c-63.5957 -54.5459 -154.796 -101 -263.311 -101
c-101.902 0 -181.045 42.4121 -228.692 101c-46.4355 57.0977 -75.4053 142.322 -56.9482 247c17.8867 101.443 76.4473 189.103 143.966 246.5c63.8701 54.2959 155.386 101.5 264.398 101.5zM412.933 62c83.8096 0 153.473 35.9951 202.341 78.502
c52.6377 45.7852 97.6387 114.21 111.796 194.5c22.084 125.258 -35.1943 214.431 -118.39 253c-30.1982 14 -63.2969 21 -99.2969 21c-83.6982 0 -154.769 -37.0957 -203.519 -79.5c-52.6367 -45.7852 -97.6396 -114.21 -111.795 -194.5
c-20.7383 -117.604 30.9844 -211.601 113.006 -249.502c33.9043 -15.667 69.1904 -23.5 105.857 -23.5z" />
    <glyph glyph-name="omacron" unicode="&#x14d;" horiz-adv-x="608" 
d="M549.975 564h-284l10.9326 62h284zM393.869 504c113.334 0 191.258 -62.5479 213.758 -154.496c18.8926 -77.2061 -5.75293 -154.096 -36.2354 -205.501c-36.5781 -61.6846 -93.6787 -110.923 -164.157 -137c-34.2334 -12.667 -69.0166 -19 -104.35 -19
c-114.831 0 -192.05 62.6123 -214.493 156c-16.7402 69.6553 1.57617 136.102 26.6494 187.999c30.3682 62.8564 96.3135 124.188 167.037 150.498c38.5273 14.333 75.791 21.5 111.791 21.5zM314.698 55.0039c57.7373 0 106.032 24.7334 140.435 53.5
c38.0156 31.7871 69.2676 80.9102 79.4219 138.5c15.8223 89.7354 -23.998 149.376 -83.9668 176.001c-21.0215 9.33301 -43.8652 14 -68.5322 14c-54.2793 0 -96.665 -20.0283 -130.257 -44c-57.5908 -41.0957 -121.277 -141.178 -83.5244 -244.001
c20.0566 -54.626 76.0713 -94 146.424 -94z" />
    <glyph glyph-name="Obreve" unicode="&#x14e;" horiz-adv-x="803" 
d="M668.49 878.001c-13.7021 -77.707 -79.2178 -135.001 -168.804 -135.001c-82.0527 0 -136.21 49.8682 -121.198 135.001h64c-8.30176 -47.0801 22.4287 -80 66.8955 -80c48.4795 0 87.5576 37.1895 95.1064 80h64zM522.432 683c100.82 0 180.074 -43.7949 227.604 -101.5
c46.3096 -56.2236 75.3047 -142.893 57.0361 -246.5c-18.0898 -102.598 -76.1123 -188.728 -144.054 -247c-63.5957 -54.5459 -154.796 -101 -263.311 -101c-101.902 0 -181.045 42.4121 -228.692 101c-46.4355 57.0977 -75.4053 142.322 -56.9482 247
c17.8867 101.443 76.4473 189.103 143.966 246.5c63.8701 54.2959 155.386 101.5 264.398 101.5zM412.933 62c83.8096 0 153.473 35.9951 202.341 78.502c52.6377 45.7852 97.6387 114.21 111.796 194.5c22.084 125.258 -35.1943 214.431 -118.39 253
c-30.1982 14 -63.2969 21 -99.2969 21c-83.6982 0 -154.769 -37.0957 -203.519 -79.5c-52.6367 -45.7852 -97.6396 -114.21 -111.795 -194.5c-20.7383 -117.604 30.9844 -211.601 113.006 -249.502c33.9043 -15.667 69.1904 -23.5 105.857 -23.5z" />
    <glyph glyph-name="obreve" unicode="&#x14f;" horiz-adv-x="608" 
d="M571.49 699.001c-13.7021 -77.707 -79.2178 -135.001 -168.804 -135.001c-82.0527 0 -136.21 49.8682 -121.198 135.001h64c-8.30176 -47.0801 22.4287 -80 66.8955 -80c48.4795 0 87.5576 37.1895 95.1064 80h64zM393.869 504
c113.334 0 191.258 -62.5479 213.758 -154.496c18.8926 -77.2061 -5.75293 -154.096 -36.2354 -205.501c-36.5781 -61.6846 -93.6787 -110.923 -164.157 -137c-34.2334 -12.667 -69.0166 -19 -104.35 -19c-114.831 0 -192.05 62.6123 -214.493 156
c-16.7402 69.6553 1.57617 136.102 26.6494 187.999c30.3682 62.8564 96.3135 124.188 167.037 150.498c38.5273 14.333 75.791 21.5 111.791 21.5zM314.698 55.0039c57.7373 0 106.032 24.7334 140.435 53.5c38.0156 31.7871 69.2676 80.9102 79.4219 138.5
c15.8223 89.7354 -23.998 149.376 -83.9668 176.001c-21.0215 9.33301 -43.8652 14 -68.5322 14c-54.2793 0 -96.665 -20.0283 -130.257 -44c-57.5908 -41.0957 -121.277 -141.178 -83.5244 -244.001c20.0566 -54.626 76.0713 -94 146.424 -94z" />
    <glyph glyph-name="Ohungarumlaut" unicode="&#x150;" horiz-adv-x="803" 
d="M459.978 743h-70l103.686 140h95zM613.978 743h-70l103.686 140h95zM522.432 683c100.82 0 180.074 -43.7949 227.604 -101.5c46.3096 -56.2236 75.3047 -142.893 57.0361 -246.5c-18.0898 -102.598 -76.1123 -188.728 -144.054 -247
c-63.5957 -54.5459 -154.796 -101 -263.311 -101c-101.902 0 -181.045 42.4121 -228.692 101c-46.4355 57.0977 -75.4053 142.322 -56.9482 247c17.8867 101.443 76.4473 189.103 143.966 246.5c63.8701 54.2959 155.386 101.5 264.398 101.5zM412.933 62
c83.8096 0 153.473 35.9951 202.341 78.502c52.6377 45.7852 97.6387 114.21 111.796 194.5c22.084 125.258 -35.1943 214.431 -118.39 253c-30.1982 14 -63.2969 21 -99.2969 21c-83.6982 0 -154.769 -37.0957 -203.519 -79.5
c-52.6367 -45.7852 -97.6396 -114.21 -111.795 -194.5c-20.7383 -117.604 30.9844 -211.601 113.006 -249.502c33.9043 -15.667 69.1904 -23.5 105.857 -23.5z" />
    <glyph glyph-name="ohungarumlaut" unicode="&#x151;" horiz-adv-x="608" 
d="M362.978 564h-70l103.686 140h95zM516.978 564h-70l103.686 140h95zM393.869 504c113.334 0 191.258 -62.5479 213.758 -154.496c18.8926 -77.2061 -5.75293 -154.096 -36.2354 -205.501c-36.5781 -61.6846 -93.6787 -110.923 -164.157 -137
c-34.2334 -12.667 -69.0166 -19 -104.35 -19c-114.831 0 -192.05 62.6123 -214.493 156c-16.7402 69.6553 1.57617 136.102 26.6494 187.999c30.3682 62.8564 96.3135 124.188 167.037 150.498c38.5273 14.333 75.791 21.5 111.791 21.5zM314.698 55.0039
c57.7373 0 106.032 24.7334 140.435 53.5c38.0156 31.7871 69.2676 80.9102 79.4219 138.5c15.8223 89.7354 -23.998 149.376 -83.9668 176.001c-21.0215 9.33301 -43.8652 14 -68.5322 14c-54.2793 0 -96.665 -20.0283 -130.257 -44
c-57.5908 -41.0957 -121.277 -141.178 -83.5244 -244.001c20.0566 -54.626 76.0713 -94 146.424 -94z" />
    <glyph glyph-name="OE" unicode="&#x152;" horiz-adv-x="1046" 
d="M986 72l0.000976562 -71.999h-536c-181.012 0 -311.84 76.5166 -367.497 202c-18.333 41.333 -27.5 85.666 -27.5 132.999c0 106.26 45.9365 187.08 106.499 240c66.083 57.7432 166.564 95 288.497 95h535v-71h-409v-227h380v-71h-380v-229h410zM497.001 72.001
l0.000976562 527h-47c-144.772 0 -250.766 -57.1152 -294.002 -158c-14 -32.667 -21 -68 -21 -106c0 -133.159 78.6758 -210.846 182.5 -244c39.667 -12.667 83.834 -19 132.501 -19h47z" />
    <glyph glyph-name="oe" unicode="&#x153;" horiz-adv-x="1032" 
d="M529 384c39.1396 66.418 117.901 121 218.001 121c113.076 0 187.115 -64.9658 220.999 -147c12.667 -30.667 19.667 -63.667 21 -99l0.00195312 -27.9951h-423c5.17969 -77.7129 45.3994 -131.024 102.499 -160c22.333 -11.333 46.833 -17 73.5 -17
c85.8955 0 138.871 41.916 168.001 106l68 -16c-35.2939 -92.4961 -114.178 -157 -236 -157c-101.53 0 -175.714 58.7842 -214.001 120.998c-39.1455 -63.6084 -118.684 -120 -223 -120c-121.946 0 -205.4 68.1572 -242.001 156c-13.333 32 -20 66.333 -20 103
c0 73.0508 24.1709 125.703 63.5 171.498c41.7578 48.6221 114.777 85.499 198.5 85.499c104.651 0 184.736 -56.1992 224 -120zM912.004 288.005c-11.5566 84.7441 -70.9199 150 -165.001 150c-93.3125 0 -164.86 -64.5938 -177.999 -150h343zM305.003 55.0049
c86.3203 0 146.026 51.7549 171.501 115c9.66699 24 14.5 49.667 14.5 77c0 90.335 -50.1836 149.313 -115 176.001c-22.667 9.33301 -46.334 14 -71.001 14c-52.7227 0 -92.2812 -19.332 -122.499 -44c-34.3633 -28.0518 -65.5 -81.4023 -65.5 -146
c0 -77.4033 41.8193 -139.686 95.5 -168.001c30.333 -16 61.166 -24 92.499 -24z" />
    <glyph glyph-name="Racute" unicode="&#x154;" horiz-adv-x="670" 
d="M376.478 743h-67l104.686 140h89zM645 0h-99l-205.395 287h-123l-50.6055 -287h-79l118.139 670h310c94.2549 0 164.149 -39.207 183.487 -113.5c13.4258 -51.5791 -0.823242 -102.82 -19.9502 -141.5c-24.4316 -49.4082 -69.083 -86.1934 -124.72 -109
c-30.9004 -12.667 -66.3506 -19 -106.351 -19h-12zM230.302 359h231c83.7959 0 148.583 48.6748 161.159 120c13.7441 77.9502 -42.3281 120 -118.841 120h-231z" />
    <glyph glyph-name="racute" unicode="&#x155;" horiz-adv-x="412" 
d="M376.479 564h-67l104.686 140h89zM230.594 371.999c46.9062 64.4287 118.979 126.001 220.217 126.001c14 0 25.4336 -1.33301 34.2959 -4l-18.8721 -73l-28.8232 1c-101.396 0 -162.388 -55.502 -201.866 -124.001c-17.2891 -30 -29.6377 -66 -37.043 -108l-33.502 -190
h-77l86.9287 493h77z" />
    <glyph glyph-name="uni0156" unicode="&#x156;" horiz-adv-x="670" 
d="M215.851 -188l73.2148 143h83l-96.2148 -143h-60zM645 0h-99l-205.395 287h-123l-50.6055 -287h-79l118.139 670h310c94.2549 0 164.149 -39.207 183.487 -113.5c13.4258 -51.5791 -0.823242 -102.82 -19.9502 -141.5c-24.4316 -49.4082 -69.083 -86.1934 -124.72 -109
c-30.9004 -12.667 -66.3506 -19 -106.351 -19h-12zM230.302 359h231c83.7959 0 148.583 48.6748 161.159 120c13.7441 77.9502 -42.3281 120 -118.841 120h-231z" />
    <glyph glyph-name="uni0157" unicode="&#x157;" horiz-adv-x="412" 
d="M4.85059 -188l73.2148 143h83l-96.2148 -143h-60zM230.594 371.999c46.9062 64.4287 118.979 126.001 220.217 126.001c14 0 25.4336 -1.33301 34.2959 -4l-18.8721 -73l-28.8232 1c-101.396 0 -162.388 -55.502 -201.866 -124.001
c-17.2891 -30 -29.6377 -66 -37.043 -108l-33.502 -190h-77l86.9287 493h77z" />
    <glyph glyph-name="Rcaron" unicode="&#x158;" horiz-adv-x="670" 
d="M519.781 885l-142.038 -142h-73l-90.9619 142h77l59.7783 -92l91.2217 92h78zM645 0h-99l-205.395 287h-123l-50.6055 -287h-79l118.139 670h310c94.2549 0 164.149 -39.207 183.487 -113.5c13.4258 -51.5791 -0.823242 -102.82 -19.9502 -141.5
c-24.4316 -49.4082 -69.083 -86.1934 -124.72 -109c-30.9004 -12.667 -66.3506 -19 -106.351 -19h-12zM230.302 359h231c83.7959 0 148.583 48.6748 161.159 120c13.7441 77.9502 -42.3281 120 -118.841 120h-231z" />
    <glyph glyph-name="rcaron" unicode="&#x159;" horiz-adv-x="412" 
d="M519.782 706l-142.038 -142h-73l-90.9619 142h77l59.7783 -92l91.2217 92h78zM230.594 371.999c46.9062 64.4287 118.979 126.001 220.217 126.001c14 0 25.4336 -1.33301 34.2959 -4l-18.8721 -73l-28.8232 1c-101.396 0 -162.388 -55.502 -201.866 -124.001
c-17.2891 -30 -29.6377 -66 -37.043 -108l-33.502 -190h-77l86.9287 493h77z" />
    <glyph glyph-name="Sacute" unicode="&#x15a;" horiz-adv-x="627" 
d="M444.478 743h-67l104.686 140h89zM431.432 683c66 0 118.531 -16.834 157.595 -50.501s57.9736 -86.167 59.5498 -141.5h-79c-0.160156 29.333 -9.92773 44.833 -25.7744 66.5c-26.1787 35.7959 -71.5078 56.5 -126.537 56.5c-85.166 0 -160.213 -46.5771 -173.336 -121
c-11.2402 -63.752 29.7412 -88.6465 83.3672 -100l140.182 -33c21.8438 -4.66699 45.208 -13 70.0918 -25c48.8057 -23.5361 81.7783 -72.1494 68.2275 -149c-16.1611 -91.6387 -79.7021 -148.655 -162.651 -179.5c-34.959 -13 -75.4375 -19.5 -121.438 -19.5
c-107.722 0 -189.596 41.2979 -222.458 116.5c-10.9248 25 -15.6846 52.833 -14.2773 83.5h83c-0.777344 -46 17.2051 -65 47.9531 -91c30.749 -26 72.457 -39 125.124 -39c94.5361 0 171.262 46.8535 185.041 125c5.28906 30 0.648438 52.833 -13.9219 68.5
s-40.0928 27.834 -76.5645 36.501l-145.181 33c-103.102 24 -146.718 81 -130.849 171c16.4912 93.5186 86.6602 152.3 172.887 178c31.3125 9.33301 64.3027 14 98.9697 14z" />
    <glyph glyph-name="sacute" unicode="&#x15b;" horiz-adv-x="506" 
d="M383.479 565h-67l104.686 140h89zM69.4512 133l76.0029 0.000976562c0.981445 -13.333 11.6523 -38.833 35.5371 -56.5s55.4941 -26.5 94.8271 -26.5c65.5508 0 123.325 30.1963 132.812 83.999c8.10352 45.9541 -29.1455 61.5371 -68.4805 71l-108.592 25
c-65.6006 14.2832 -119.354 49.0303 -105.783 126c16.0527 91.041 104.741 149 213.272 149c98.4912 0 172.116 -48.1416 176.843 -137h-73c-2.62988 15.333 -13.623 33.333 -33.6836 50c-20.0615 16.667 -47.7588 25 -83.0918 25
c-60.4971 0 -114.083 -28.8252 -123.283 -80.999c-2.46777 -14 -0.09375 -27 7.12402 -39c7.2168 -12 25.8457 -21.667 55.8848 -29l114.416 -26c61.9258 -13.791 118.328 -49.1689 104.254 -129.001c-17.1035 -96.9941 -109.994 -152 -225.802 -152
c-104.438 0 -194.101 44.5762 -189.257 146z" />
    <glyph glyph-name="Scircumflex" unicode="&#x15c;" horiz-adv-x="627" 
d="M484.566 743l-58.6016 93l-92.3984 -93h-77l141.039 142h73l91.9609 -142h-78zM431.432 683c66 0 118.531 -16.834 157.595 -50.501s57.9736 -86.167 59.5498 -141.5h-79c-0.160156 29.333 -9.92773 44.833 -25.7744 66.5c-26.1787 35.7959 -71.5078 56.5 -126.537 56.5
c-85.166 0 -160.213 -46.5771 -173.336 -121c-11.2402 -63.752 29.7412 -88.6465 83.3672 -100l140.182 -33c21.8438 -4.66699 45.208 -13 70.0918 -25c48.8057 -23.5361 81.7783 -72.1494 68.2275 -149c-16.1611 -91.6387 -79.7021 -148.655 -162.651 -179.5
c-34.959 -13 -75.4375 -19.5 -121.438 -19.5c-107.722 0 -189.596 41.2979 -222.458 116.5c-10.9248 25 -15.6846 52.833 -14.2773 83.5h83c-0.777344 -46 17.2051 -65 47.9531 -91c30.749 -26 72.457 -39 125.124 -39c94.5361 0 171.262 46.8535 185.041 125
c5.28906 30 0.648438 52.833 -13.9219 68.5s-40.0928 27.834 -76.5645 36.501l-145.181 33c-103.102 24 -146.718 81 -130.849 171c16.4912 93.5186 86.6602 152.3 172.887 178c31.3125 9.33301 64.3027 14 98.9697 14z" />
    <glyph glyph-name="scircumflex" unicode="&#x15d;" horiz-adv-x="506" 
d="M423.568 565l-58.6016 93l-92.3984 -93h-77l141.039 142h73l91.9609 -142h-78zM69.4512 133l76.0029 0.000976562c0.981445 -13.333 11.6523 -38.833 35.5371 -56.5s55.4941 -26.5 94.8271 -26.5c65.5508 0 123.325 30.1963 132.812 83.999
c8.10352 45.9541 -29.1455 61.5371 -68.4805 71l-108.592 25c-65.6006 14.2832 -119.354 49.0303 -105.783 126c16.0527 91.041 104.741 149 213.272 149c98.4912 0 172.116 -48.1416 176.843 -137h-73c-2.62988 15.333 -13.623 33.333 -33.6836 50
c-20.0615 16.667 -47.7588 25 -83.0918 25c-60.4971 0 -114.083 -28.8252 -123.283 -80.999c-2.46777 -14 -0.09375 -27 7.12402 -39c7.2168 -12 25.8457 -21.667 55.8848 -29l114.416 -26c61.9258 -13.791 118.328 -49.1689 104.254 -129.001
c-17.1035 -96.9941 -109.994 -152 -225.802 -152c-104.438 0 -194.101 44.5762 -189.257 146z" />
    <glyph glyph-name="Scedilla" unicode="&#x15e;" horiz-adv-x="627" 
d="M294.5 -7.33398h59l-106.976 -170h-83zM431.432 683c66 0 118.531 -16.834 157.595 -50.501s57.9736 -86.167 59.5498 -141.5h-79c-0.160156 29.333 -9.92773 44.833 -25.7744 66.5c-26.1787 35.7959 -71.5078 56.5 -126.537 56.5
c-85.166 0 -160.213 -46.5771 -173.336 -121c-11.2402 -63.752 29.7412 -88.6465 83.3672 -100l140.182 -33c21.8438 -4.66699 45.208 -13 70.0918 -25c48.8057 -23.5361 81.7783 -72.1494 68.2275 -149c-16.1611 -91.6387 -79.7021 -148.655 -162.651 -179.5
c-34.959 -13 -75.4375 -19.5 -121.438 -19.5c-107.722 0 -189.596 41.2979 -222.458 116.5c-10.9248 25 -15.6846 52.833 -14.2773 83.5h83c-0.777344 -46 17.2051 -65 47.9531 -91c30.749 -26 72.457 -39 125.124 -39c94.5361 0 171.262 46.8535 185.041 125
c5.28906 30 0.648438 52.833 -13.9219 68.5s-40.0928 27.834 -76.5645 36.501l-145.181 33c-103.102 24 -146.718 81 -130.849 171c16.4912 93.5186 86.6602 152.3 172.887 178c31.3125 9.33301 64.3027 14 98.9697 14z" />
    <glyph glyph-name="scedilla" unicode="&#x15f;" horiz-adv-x="506" 
d="M231.5 -7.33301h59l-106.976 -170h-83zM69.4512 133l76.0029 0.000976562c0.981445 -13.333 11.6523 -38.833 35.5371 -56.5s55.4941 -26.5 94.8271 -26.5c65.5508 0 123.325 30.1963 132.812 83.999c8.10352 45.9541 -29.1455 61.5371 -68.4805 71l-108.592 25
c-65.6006 14.2832 -119.354 49.0303 -105.783 126c16.0527 91.041 104.741 149 213.272 149c98.4912 0 172.116 -48.1416 176.843 -137h-73c-2.62988 15.333 -13.623 33.333 -33.6836 50c-20.0615 16.667 -47.7588 25 -83.0918 25
c-60.4971 0 -114.083 -28.8252 -123.283 -80.999c-2.46777 -14 -0.09375 -27 7.12402 -39c7.2168 -12 25.8457 -21.667 55.8848 -29l114.416 -26c61.9258 -13.791 118.328 -49.1689 104.254 -129.001c-17.1035 -96.9941 -109.994 -152 -225.802 -152
c-104.438 0 -194.101 44.5762 -189.257 146z" />
    <glyph glyph-name="Scaron" unicode="&#x160;" horiz-adv-x="627" 
d="M587.781 885l-142.038 -142h-73l-90.9619 142h77l59.7783 -92l91.2217 92h78zM431.432 683c66 0 118.531 -16.834 157.595 -50.501s57.9736 -86.167 59.5498 -141.5h-79c-0.160156 29.333 -9.92773 44.833 -25.7744 66.5c-26.1787 35.7959 -71.5078 56.5 -126.537 56.5
c-85.166 0 -160.213 -46.5771 -173.336 -121c-11.2402 -63.752 29.7412 -88.6465 83.3672 -100l140.182 -33c21.8438 -4.66699 45.208 -13 70.0918 -25c48.8057 -23.5361 81.7783 -72.1494 68.2275 -149c-16.1611 -91.6387 -79.7021 -148.655 -162.651 -179.5
c-34.959 -13 -75.4375 -19.5 -121.438 -19.5c-107.722 0 -189.596 41.2979 -222.458 116.5c-10.9248 25 -15.6846 52.833 -14.2773 83.5h83c-0.777344 -46 17.2051 -65 47.9531 -91c30.749 -26 72.457 -39 125.124 -39c94.5361 0 171.262 46.8535 185.041 125
c5.28906 30 0.648438 52.833 -13.9219 68.5s-40.0928 27.834 -76.5645 36.501l-145.181 33c-103.102 24 -146.718 81 -130.849 171c16.4912 93.5186 86.6602 152.3 172.887 178c31.3125 9.33301 64.3027 14 98.9697 14z" />
    <glyph glyph-name="scaron" unicode="&#x161;" horiz-adv-x="506" 
d="M526.783 707l-142.038 -142h-73l-90.9619 142h77l59.7783 -92l91.2217 92h78zM69.4512 133l76.0029 0.000976562c0.981445 -13.333 11.6523 -38.833 35.5371 -56.5s55.4941 -26.5 94.8271 -26.5c65.5508 0 123.325 30.1963 132.812 83.999
c8.10352 45.9541 -29.1455 61.5371 -68.4805 71l-108.592 25c-65.6006 14.2832 -119.354 49.0303 -105.783 126c16.0527 91.041 104.741 149 213.272 149c98.4912 0 172.116 -48.1416 176.843 -137h-73c-2.62988 15.333 -13.623 33.333 -33.6836 50
c-20.0615 16.667 -47.7588 25 -83.0918 25c-60.4971 0 -114.083 -28.8252 -123.283 -80.999c-2.46777 -14 -0.09375 -27 7.12402 -39c7.2168 -12 25.8457 -21.667 55.8848 -29l114.416 -26c61.9258 -13.791 118.328 -49.1689 104.254 -129.001
c-17.1035 -96.9941 -109.994 -152 -225.802 -152c-104.438 0 -194.101 44.5762 -189.257 146z" />
    <glyph glyph-name="uni0162" unicode="&#x162;" horiz-adv-x="627" 
d="M284.5 5.66699h59l-106.976 -170h-83zM707.62 599h-248l-105.62 -599h-80l105.62 599h-249l12.5186 71h577z" />
    <glyph glyph-name="uni0163" unicode="&#x163;" horiz-adv-x="394" 
d="M240.499 -7.33398h59l-106.976 -170h-83zM374.693 89l-12.873 -73.001c-41.5654 -24 -55.4463 -29 -94.1133 -29c-99.8662 0 -152.318 60.585 -133.554 167l48.4902 275h-107l11.2842 64h107l27.6836 157h77l-27.6836 -157h175l-11.2842 -64h-175l-47.6084 -270
c-10.708 -60.7207 17.1865 -100 73.3672 -100c31.209 0 68.1201 16.4385 89.291 30.001z" />
    <glyph glyph-name="Tcaron" unicode="&#x164;" horiz-adv-x="627" 
d="M590.281 885l-142.038 -142h-73l-90.9619 142h77l59.7783 -92l91.2217 92h78zM707.62 599h-248l-105.62 -599h-80l105.62 599h-249l12.5186 71h577z" />
    <glyph glyph-name="tcaron" unicode="&#x165;" horiz-adv-x="394" 
d="M311.725 433h-60l112.374 216.999h90l-0.352539 -1.65039zM374.693 89l-12.873 -73.001c-41.5654 -24 -55.4463 -29 -94.1133 -29c-99.8662 0 -152.318 60.585 -133.554 167l48.4902 275h-107l11.2842 64h107l27.6836 157h77l-27.6836 -157h175l-11.2842 -64h-175
l-47.6084 -270c-10.708 -60.7207 17.1865 -100 73.3672 -100c31.209 0 68.1201 16.4385 89.291 30.001z" />
    <glyph glyph-name="Tbar" unicode="&#x166;" horiz-adv-x="637" 
d="M459.62 599l-40.5557 -230h132l-11.6377 -66h-132l-53.4268 -303h-80l53.4268 303h-132l11.6377 66h132l40.5557 230h-249l12.5186 71h577l-12.5186 -71h-248z" />
    <glyph glyph-name="tbar" unicode="&#x167;" horiz-adv-x="394" 
d="M271.001 58.999c31.6035 0 64.3701 15.8867 84.999 30.001l18 -65.001c-33.333 -24.667 -69.333 -37 -108 -37c-101.39 0 -161.999 63.667 -161.999 167v116h-96v63h96v96h-103v64h103v157h76v-157h177v-64h-177v-96h142v-63h-142v-111c0 -58.4072 34.0605 -100 91 -100z
" />
    <glyph glyph-name="Utilde" unicode="&#x168;" horiz-adv-x="721" 
d="M414.998 791c-25.46 0 -40.8613 -21.9014 -44.9346 -44.999l-54.001 -0.000976562c9.88086 56.04 46.1299 102 104.985 102c21.333 0 40.9316 -7 58.7959 -21c17.8652 -14 30.4541 -22 37.7686 -24s12.9707 -3 16.9707 -3c25.9043 0 41.0967 23.2354 45.2881 47h54
c-9.47168 -53.707 -43.6299 -104 -105.337 -104c-21.333 0 -40.9326 7 -58.7969 21s-30.4531 22 -37.7676 24s-12.9717 3 -16.9717 3zM210.663 292.998c-23.0811 -130.901 35.2324 -230 162.445 -230c127.925 0 217.732 100.564 240.556 230.002l66.4746 377h79
l-66.4736 -377.002c-25.085 -142.265 -107.715 -241.336 -216.077 -284c-37.2539 -14.667 -76.2139 -22 -116.881 -22c-138.143 0 -211.715 77.7637 -229.908 182c-6.63281 38 -6.01172 79.333 1.86426 124l66.4756 377h79z" />
    <glyph glyph-name="utilde" unicode="&#x169;" horiz-adv-x="624" 
d="M359.997 612c-25.459 0 -40.8604 -21.9014 -44.9346 -44.999l-54.001 -0.000976562c9.88184 56.04 46.1309 102 104.985 102c21.333 0 40.9316 -7 58.7959 -21c17.8652 -14 30.4541 -22 37.7686 -24s12.9707 -3 16.9707 -3c25.9053 0 41.0977 23.2354 45.2881 47h54
c-9.4707 -53.707 -43.6289 -104 -105.337 -104c-21.333 0 -40.9326 7 -58.7969 21s-30.4531 22 -37.7676 24s-12.9717 3 -16.9717 3zM474.282 80.9971c-44.2803 -51.5977 -112.639 -92.999 -202.398 -92.999c-85.9014 0 -138.449 42.0391 -158.839 111.502
c-8.12207 27.667 -8.83301 60.5 -2.13184 98.5l52.0166 295h77l-49.5488 -281c-15.7617 -89.3965 25.8867 -153 109.022 -153c118.506 0 186.576 88.334 205.736 197l41.79 237h77l-86.7539 -492.003h-77z" />
    <glyph glyph-name="Umacron" unicode="&#x16a;" horiz-adv-x="721" 
d="M502 762h-284v62h284v-62zM159 292.998c0 -130.901 75.7881 -229.999 203 -229.999c127.925 0 200 100.564 200 230.002v377h79l0.00195312 -377.002c0 -142.265 -65.1611 -241.337 -166.001 -284.001c-34.667 -14.667 -72.334 -22 -113.001 -22
c-138.144 0 -225.427 77.7637 -262 182c-13.333 38 -20 79.333 -20 124v377h79v-377z" />
    <glyph glyph-name="umacron" unicode="&#x16b;" horiz-adv-x="624" 
d="M551.475 564h-284l10.9326 62h284zM474.282 80.9971c-44.2803 -51.5977 -112.639 -92.999 -202.398 -92.999c-85.9014 0 -138.449 42.0391 -158.839 111.502c-8.12207 27.667 -8.83301 60.5 -2.13184 98.5l52.0166 295h77l-49.5488 -281
c-15.7617 -89.3965 25.8867 -153 109.022 -153c118.506 0 186.576 88.334 205.736 197l41.79 237h77l-86.7539 -492.003h-77z" />
    <glyph glyph-name="Ubreve" unicode="&#x16c;" horiz-adv-x="721" 
d="M867.99 878.001c-13.7021 -77.707 -79.2178 -135.001 -168.804 -135.001c-82.0527 0 -136.21 49.8682 -121.198 135.001h64c-8.30176 -47.0801 22.4287 -80 66.8955 -80c48.4795 0 87.5576 37.1895 95.1064 80h64zM210.663 292.998
c-23.0811 -130.901 35.2324 -230 162.445 -230c127.925 0 217.732 100.564 240.556 230.002l66.4746 377h79l-66.4736 -377.002c-25.085 -142.265 -107.715 -241.336 -216.077 -284c-37.2539 -14.667 -76.2139 -22 -116.881 -22c-138.143 0 -211.715 77.7637 -229.908 182
c-6.63281 38 -6.01172 79.333 1.86426 124l66.4756 377h79z" />
    <glyph glyph-name="ubreve" unicode="&#x16d;" horiz-adv-x="624" 
d="M572.99 699.001c-13.7021 -77.707 -79.2178 -135.001 -168.804 -135.001c-82.0527 0 -136.21 49.8682 -121.198 135.001h64c-8.30176 -47.0801 22.4287 -80 66.8955 -80c48.4795 0 87.5576 37.1895 95.1064 80h64zM474.282 80.9971
c-44.2803 -51.5977 -112.639 -92.999 -202.398 -92.999c-85.9014 0 -138.449 42.0391 -158.839 111.502c-8.12207 27.667 -8.83301 60.5 -2.13184 98.5l52.0166 295h77l-49.5488 -281c-15.7617 -89.3965 25.8867 -153 109.022 -153c118.506 0 186.576 88.334 205.736 197
l41.79 237h77l-86.7539 -492.003h-77z" />
    <glyph glyph-name="Uring" unicode="&#x16e;" horiz-adv-x="721" 
d="M811.811 899c32.5293 -62.1143 -22.2275 -128.668 -67.7441 -146c-17.5078 -6.66699 -32.9287 -10 -46.2617 -10c-52.793 0 -95.5566 42.2158 -85.1914 101c9.06641 51.4199 59.0664 100.001 120.633 100.001c35.5361 0 64.5742 -18.2871 78.5645 -45.001z
M706.091 789.999c42.2812 0 89.0352 53.0352 55.7227 92.002c-9.11914 10.667 -21.3457 16 -36.6787 16c-42.2822 0 -89.0352 -53.0352 -55.7227 -92.002c9.11914 -10.667 21.3457 -16 36.6787 -16zM210.663 292.998c-23.0811 -130.901 35.2324 -230 162.445 -230
c127.925 0 217.732 100.564 240.556 230.002l66.4746 377h79l-66.4736 -377.002c-25.085 -142.265 -107.715 -241.336 -216.077 -284c-37.2539 -14.667 -76.2139 -22 -116.881 -22c-138.143 0 -211.715 77.7637 -229.908 182c-6.63281 38 -6.01172 79.333 1.86426 124
l66.4756 377h79z" />
    <glyph glyph-name="uring" unicode="&#x16f;" horiz-adv-x="624" 
d="M516.81 720c32.5293 -62.1143 -22.2266 -128.668 -67.7441 -146c-17.5078 -6.66699 -32.9287 -10 -46.2617 -10c-52.793 0 -95.5557 42.2158 -85.1914 101c9.06641 51.4199 59.0674 100.001 120.633 100.001c35.5361 0 64.5752 -18.2871 78.5645 -45.001zM411.09 610.999
c42.2812 0 89.0352 53.0352 55.7227 92.002c-9.11914 10.667 -21.3457 16 -36.6787 16c-42.2822 0 -89.0342 -53.0352 -55.7227 -92.002c9.11914 -10.667 21.3457 -16 36.6787 -16zM474.282 80.9971c-44.2803 -51.5977 -112.639 -92.999 -202.398 -92.999
c-85.9014 0 -138.449 42.0391 -158.839 111.502c-8.12207 27.667 -8.83301 60.5 -2.13184 98.5l52.0166 295h77l-49.5488 -281c-15.7617 -89.3965 25.8867 -153 109.022 -153c118.506 0 186.576 88.334 205.736 197l41.79 237h77l-86.7539 -492.003h-77z" />
    <glyph glyph-name="Uhungarumlaut" unicode="&#x170;" horiz-adv-x="721" 
d="M659.478 743h-70l103.686 140h95zM813.478 743h-70l103.686 140h95zM210.663 292.998c-23.0811 -130.901 35.2324 -230 162.445 -230c127.925 0 217.732 100.564 240.556 230.002l66.4746 377h79l-66.4736 -377.002c-25.085 -142.265 -107.715 -241.336 -216.077 -284
c-37.2539 -14.667 -76.2139 -22 -116.881 -22c-138.143 0 -211.715 77.7637 -229.908 182c-6.63281 38 -6.01172 79.333 1.86426 124l66.4756 377h79z" />
    <glyph glyph-name="uhungarumlaut" unicode="&#x171;" horiz-adv-x="624" 
d="M364.478 564h-70l103.686 140h95zM518.478 564h-70l103.686 140h95zM474.282 80.9971c-44.2803 -51.5977 -112.639 -92.999 -202.398 -92.999c-85.9014 0 -138.449 42.0391 -158.839 111.502c-8.12207 27.667 -8.83301 60.5 -2.13184 98.5l52.0166 295h77l-49.5488 -281
c-15.7617 -89.3965 25.8867 -153 109.022 -153c118.506 0 186.576 88.334 205.736 197l41.79 237h77l-86.7539 -492.003h-77z" />
    <glyph glyph-name="Uogonek" unicode="&#x172;" horiz-adv-x="721" 
d="M335.528 -6.23535l53.4727 -2.99805c-31.6035 -28 -53.4443 -48.833 -65.5215 -62.5c-15.5391 -17.5859 -32.4912 -46.0273 -17.4307 -70.501c4.92188 -8 15.0498 -12 30.3828 -12c8.66699 0 24.5879 3.33301 47.7637 10l-2.81641 -50
c-27.7637 -10 -51.3125 -15 -70.6455 -15c-47.7031 0 -78.6074 30.582 -69.3643 82.999c2.58594 14.667 9.46582 31 20.6396 49s35.6797 41.667 73.5195 71zM210.663 292.998c-23.0811 -130.901 35.2324 -230 162.445 -230c127.925 0 217.732 100.564 240.556 230.002
l66.4746 377h79l-66.4736 -377.002c-25.085 -142.265 -107.715 -241.336 -216.077 -284c-37.2539 -14.667 -76.2139 -22 -116.881 -22c-138.143 0 -211.715 77.7637 -229.908 182c-6.63281 38 -6.01172 79.333 1.86426 124l66.4756 377h79z" />
    <glyph glyph-name="uogonek" unicode="&#x173;" horiz-adv-x="624" 
d="M472.042 4.76465l64.0264 -2.99805c-37.8408 -28 -63.9922 -48.833 -78.4531 -62.5c-18.6055 -17.5859 -38.9033 -46.0273 -20.8711 -70.501c5.89355 -8 18.0205 -12 36.3789 -12c10.3779 0 29.4414 3.33301 57.1914 10l-3.37207 -50
c-33.2441 -10 -61.4404 -15 -84.5889 -15c-57.1182 0 -94.1221 30.582 -83.0547 82.999c3.0957 14.667 11.334 31 24.7129 49s42.7217 41.667 88.0303 71zM474.282 80.9971c-44.2803 -51.5977 -112.639 -92.999 -202.398 -92.999
c-85.9014 0 -138.449 42.0391 -158.839 111.502c-8.12207 27.667 -8.83301 60.5 -2.13184 98.5l52.0166 295h77l-49.5488 -281c-15.7617 -89.3965 25.8867 -153 109.022 -153c118.506 0 186.576 88.334 205.736 197l41.79 237h77l-86.7539 -492.003h-77z" />
    <glyph glyph-name="Wcircumflex" unicode="&#x174;" horiz-adv-x="953" 
d="M650.566 743l-58.6016 93l-92.3984 -93h-77l141.039 142h73l91.9609 -142h-78zM1054.14 670l-324.139 -670h-83l-74.0781 544l-266.922 -544h-82l-87.8613 670h82l70.1973 -549l267.803 549h77l74.1973 -549l263.803 549h83z" />
    <glyph glyph-name="wcircumflex" unicode="&#x175;" horiz-adv-x="769" 
d="M558.066 564l-58.6016 93l-92.3984 -93h-77l141.039 142h73l91.9609 -142h-78zM837.93 493l-253.282 -495h-71l-63.0537 374l-195.946 -374h-71l-78.7178 495h77l59.6426 -382l199.357 382h61l64.6426 -382l194.357 382h77z" />
    <glyph glyph-name="Ycircumflex" unicode="&#x176;" horiz-adv-x="671" 
d="M509.066 743l-58.6016 93l-92.3984 -93h-77l141.039 142h73l91.9609 -142h-78zM415.437 235l-41.4365 -235h-79l41.2607 234l-200.122 436h88l165.052 -357l290.948 357h91z" />
    <glyph glyph-name="ycircumflex" unicode="&#x177;" horiz-adv-x="563" 
d="M455.066 564l-58.6016 93l-92.3984 -93h-77l141.039 142h73l91.9609 -142h-78zM631.93 493l-418.905 -663h-85l112.21 177l-135.305 486h86l106.526 -394l249.474 394h85z" />
    <glyph glyph-name="Ydieresis" unicode="&#x178;" horiz-adv-x="671" 
d="M355.726 844.999c27.376 0 48.9824 -22.7939 44.0078 -50.999c-4.65137 -26.376 -31.6016 -51 -61.9922 -51c-27.9365 0 -48.1328 21.9365 -43.0078 51c4.50684 25.5518 31.1992 50.999 60.9922 50.999zM553.726 844.999c27.376 0 48.9824 -22.7939 44.0078 -50.999
c-4.65137 -26.376 -31.6016 -51 -61.9922 -51c-27.9365 0 -48.1328 21.9365 -43.0078 51c4.50684 25.5518 31.1992 50.999 60.9922 50.999zM415.437 235l-41.4365 -235h-79l41.2607 234l-200.122 436h88l165.052 -357l290.948 357h91z" />
    <glyph glyph-name="Zacute" unicode="&#x179;" horiz-adv-x="626" 
d="M454.478 743h-67l104.686 140h89zM586.99 68l-11.9902 -68h-516l8.81641 50l507.332 552h-398l11.9902 68h500l-10.0498 -57l-497.099 -545h405z" />
    <glyph glyph-name="zacute" unicode="&#x17a;" horiz-adv-x="506" 
d="M385.978 564h-67l104.686 140h89zM477.285 64l-11.2852 -64h-426l9.16895 52l387.476 377h-312l11.2852 64h407l-9.3457 -53l-387.299 -376h331z" />
    <glyph glyph-name="Zdotaccent" unicode="&#x17b;" horiz-adv-x="626" 
d="M441.106 842c27.3779 0 48.3369 -20.7812 43.3613 -49c-4.6582 -26.418 -30.3945 -50 -60.8164 -50c-27.96 0 -47.3115 20.9219 -42.1846 50c4.43066 25.127 30.6709 49 59.6396 49zM586.99 68l-11.9902 -68h-516l8.81641 50l507.332 552h-398l11.9902 68h500
l-10.0498 -57l-497.099 -545h405z" />
    <glyph glyph-name="zdotaccent" unicode="&#x17c;" horiz-adv-x="506" 
d="M372.606 663c27.3779 0 48.3369 -20.7812 43.3613 -49c-4.6582 -26.418 -30.3945 -50 -60.8164 -50c-27.96 0 -47.3115 20.9219 -42.1846 50c4.43066 25.127 30.6709 49 59.6396 49zM477.285 64l-11.2852 -64h-426l9.16895 52l387.476 377h-312l11.2852 64h407
l-9.3457 -53l-387.299 -376h331z" />
    <glyph glyph-name="Zcaron" unicode="&#x17d;" horiz-adv-x="626" 
d="M597.781 885l-142.038 -142h-73l-90.9619 142h77l59.7783 -92l91.2217 92h78zM586.99 68l-11.9902 -68h-516l8.81641 50l507.332 552h-398l11.9902 68h500l-10.0498 -57l-497.099 -545h405z" />
    <glyph glyph-name="zcaron" unicode="&#x17e;" horiz-adv-x="506" 
d="M529.281 706l-142.038 -142h-73l-90.9619 142h77l59.7783 -92l91.2217 92h78zM477.285 64l-11.2852 -64h-426l9.16895 52l387.476 377h-312l11.2852 64h407l-9.3457 -53l-387.299 -376h331z" />
    <glyph glyph-name="florin" unicode="&#x192;" horiz-adv-x="552" 
d="M504.999 583c-18.7646 16.418 -54.3467 31 -88 31c-67.1562 0 -109.23 -50.1592 -120.002 -109.999l-25 -139h188v-64h-200l-59 -327c-15.0527 -76.9385 -71.4609 -139.001 -158.998 -139.001c-31.333 0 -58.666 8.33301 -81.999 25l27 61c17.333 -9.33301 36 -14 56 -14
c43.0684 0 75.6934 29.1592 82 67l59 327h-120v64h132l25 139c17.2197 99.6348 88.4893 178 200.999 178c44 0 81.333 -12.667 112 -38z" />
    <glyph glyph-name="Ohorn" unicode="&#x1a0;" horiz-adv-x="803" 
d="M698.725 420h-60l112.374 263h90l-0.352539 -2zM522.432 683c100.82 0 180.074 -43.7949 227.604 -101.5c46.3096 -56.2236 75.3047 -142.893 57.0361 -246.5c-18.0898 -102.598 -76.1123 -188.728 -144.054 -247c-63.5957 -54.5459 -154.796 -101 -263.311 -101
c-101.902 0 -181.045 42.4121 -228.692 101c-46.4355 57.0977 -75.4053 142.322 -56.9482 247c17.8867 101.443 76.4473 189.103 143.966 246.5c63.8701 54.2959 155.386 101.5 264.398 101.5zM412.933 62c83.8096 0 153.473 35.9951 202.341 78.502
c52.6377 45.7852 97.6387 114.21 111.796 194.5c22.084 125.258 -35.1943 214.431 -118.39 253c-30.1982 14 -63.2969 21 -99.2969 21c-83.6982 0 -154.769 -37.0957 -203.519 -79.5c-52.6367 -45.7852 -97.6396 -114.21 -111.795 -194.5
c-20.7383 -117.604 30.9844 -211.601 113.006 -249.502c33.9043 -15.667 69.1904 -23.5 105.857 -23.5z" />
    <glyph glyph-name="ohorn" unicode="&#x1a1;" horiz-adv-x="608" 
d="M531.725 241h-60l112.374 263h90l-0.352539 -2zM393.869 504c113.334 0 191.258 -62.5479 213.758 -154.496c18.8926 -77.2061 -5.75293 -154.096 -36.2354 -205.501c-36.5781 -61.6846 -93.6787 -110.923 -164.157 -137c-34.2334 -12.667 -69.0166 -19 -104.35 -19
c-114.831 0 -192.05 62.6123 -214.493 156c-16.7402 69.6553 1.57617 136.102 26.6494 187.999c30.3682 62.8564 96.3135 124.188 167.037 150.498c38.5273 14.333 75.791 21.5 111.791 21.5zM314.698 55.0039c57.7373 0 106.032 24.7334 140.435 53.5
c38.0156 31.7871 69.2676 80.9102 79.4219 138.5c15.8223 89.7354 -23.998 149.376 -83.9668 176.001c-21.0215 9.33301 -43.8652 14 -68.5322 14c-54.2793 0 -96.665 -20.0283 -130.257 -44c-57.5908 -41.0957 -121.277 -141.178 -83.5244 -244.001
c20.0566 -54.626 76.0713 -94 146.424 -94z" />
    <glyph glyph-name="Uhorn" unicode="&#x1af;" horiz-adv-x="721" 
d="M617.725 407h-60l112.374 263h90l-0.352539 -2zM210.663 292.998c-23.0811 -130.901 35.2324 -230 162.445 -230c127.925 0 217.732 100.564 240.556 230.002l66.4746 377h79l-66.4736 -377.002c-25.085 -142.265 -107.715 -241.336 -216.077 -284
c-37.2539 -14.667 -76.2139 -22 -116.881 -22c-138.143 0 -211.715 77.7637 -229.908 182c-6.63281 38 -6.01172 79.333 1.86426 124l66.4756 377h79z" />
    <glyph glyph-name="uhorn" unicode="&#x1b0;" horiz-adv-x="624" 
d="M513.725 230h-60l112.374 263h90l-0.352539 -2zM474.282 80.9971c-44.2803 -51.5977 -112.639 -92.999 -202.398 -92.999c-85.9014 0 -138.449 42.0391 -158.839 111.502c-8.12207 27.667 -8.83301 60.5 -2.13184 98.5l52.0166 295h77l-49.5488 -281
c-15.7617 -89.3965 25.8867 -153 109.022 -153c118.506 0 186.576 88.334 205.736 197l41.79 237h77l-86.7539 -492.003h-77z" />
    <glyph glyph-name="uni01CD" unicode="&#x1cd;" horiz-adv-x="693" 
d="M623.281 885l-142.038 -142h-73l-90.9619 142h77l59.7783 -92l91.2217 92h78zM683 0h-85l-45.0244 170h-353l-104.976 -170h-85l418.139 670h73zM534.495 241l-86.6357 331l-204.364 -331h291z" />
    <glyph glyph-name="uni01CE" unicode="&#x1ce;" horiz-adv-x="545" 
d="M553.781 707l-142.038 -142h-73l-90.9619 142h77l59.7783 -92l91.2217 92h78zM132.597 354.999c29.8779 84.0605 122.197 150.001 233.448 150.001c117.744 0 192.979 -62.502 171.38 -185l-56.4248 -320h-74l13.2246 75c-44.2949 -47.8184 -113.029 -88 -200.517 -88
c-96.2148 0 -169.606 53.2725 -152.375 151c17.1104 97.0342 107.199 154 225.155 154h166l4.05566 23c13.3955 75.9639 -29.5625 123 -104.312 123c-37.333 0 -69.8906 -8.83301 -97.6729 -26.5s-44.2227 -25.834 -54.9629 -56.501h-73zM241.816 50
c65.6035 0 119.047 28.6797 156.579 68.498c24.1924 25.667 39.1689 54.834 44.9287 87.501l4.58398 26h-167c-71.6387 0 -130.084 -34.5088 -140.397 -92.999c-10.4355 -59.1729 41.5986 -89 101.306 -89z" />
    <glyph glyph-name="uni01CF" unicode="&#x1cf;" horiz-adv-x="254" 
d="M404.281 885l-142.038 -142h-73l-90.9619 142h77l59.7783 -92l91.2217 92h78zM167 0h-79l118.139 670h79z" />
    <glyph glyph-name="uni01D0" unicode="&#x1d0;" horiz-adv-x="279" 
d="M416.281 706l-142.038 -142h-73l-90.9619 142h77l59.7783 -92l91.2217 92h78zM178 0h-77v493h77v-493z" />
    <glyph glyph-name="uni01D1" unicode="&#x1d1;" horiz-adv-x="803" 
d="M678.781 885l-142.038 -142h-73l-90.9619 142h77l59.7783 -92l91.2217 92h78zM522.432 683c100.82 0 180.074 -43.7949 227.604 -101.5c46.3096 -56.2236 75.3047 -142.893 57.0361 -246.5c-18.0898 -102.598 -76.1123 -188.728 -144.054 -247
c-63.5957 -54.5459 -154.796 -101 -263.311 -101c-101.902 0 -181.045 42.4121 -228.692 101c-46.4355 57.0977 -75.4053 142.322 -56.9482 247c17.8867 101.443 76.4473 189.103 143.966 246.5c63.8701 54.2959 155.386 101.5 264.398 101.5zM412.933 62
c83.8096 0 153.473 35.9951 202.341 78.502c52.6377 45.7852 97.6387 114.21 111.796 194.5c22.084 125.258 -35.1943 214.431 -118.39 253c-30.1982 14 -63.2969 21 -99.2969 21c-83.6982 0 -154.769 -37.0957 -203.519 -79.5
c-52.6367 -45.7852 -97.6396 -114.21 -111.795 -194.5c-20.7383 -117.604 30.9844 -211.601 113.006 -249.502c33.9043 -15.667 69.1904 -23.5 105.857 -23.5z" />
    <glyph glyph-name="uni01D2" unicode="&#x1d2;" horiz-adv-x="608" 
d="M581.781 706l-142.038 -142h-73l-90.9619 142h77l59.7783 -92l91.2217 92h78zM393.869 504c113.334 0 191.258 -62.5479 213.758 -154.496c18.8926 -77.2061 -5.75293 -154.096 -36.2354 -205.501c-36.5781 -61.6846 -93.6787 -110.923 -164.157 -137
c-34.2334 -12.667 -69.0166 -19 -104.35 -19c-114.831 0 -192.05 62.6123 -214.493 156c-16.7402 69.6553 1.57617 136.102 26.6494 187.999c30.3682 62.8564 96.3135 124.188 167.037 150.498c38.5273 14.333 75.791 21.5 111.791 21.5zM314.698 55.0039
c57.7373 0 106.032 24.7334 140.435 53.5c38.0156 31.7871 69.2676 80.9102 79.4219 138.5c15.8223 89.7354 -23.998 149.376 -83.9668 176.001c-21.0215 9.33301 -43.8652 14 -68.5322 14c-54.2793 0 -96.665 -20.0283 -130.257 -44
c-57.5908 -41.0957 -121.277 -141.178 -83.5244 -244.001c20.0566 -54.626 76.0713 -94 146.424 -94z" />
    <glyph glyph-name="uni01D3" unicode="&#x1d3;" horiz-adv-x="721" 
d="M638.281 885l-142.038 -142h-73l-90.9619 142h77l59.7783 -92l91.2217 92h78zM210.663 292.998c-23.0811 -130.901 35.2324 -230 162.445 -230c127.925 0 217.732 100.564 240.556 230.002l66.4746 377h79l-66.4736 -377.002
c-25.085 -142.265 -107.715 -241.336 -216.077 -284c-37.2539 -14.667 -76.2139 -22 -116.881 -22c-138.143 0 -211.715 77.7637 -229.908 182c-6.63281 38 -6.01172 79.333 1.86426 124l66.4756 377h79z" />
    <glyph glyph-name="uni01D4" unicode="&#x1d4;" horiz-adv-x="624" 
d="M583.281 706l-142.038 -142h-73l-90.9619 142h77l59.7783 -92l91.2217 92h78zM474.282 80.9971c-44.2803 -51.5977 -112.639 -92.999 -202.398 -92.999c-85.9014 0 -138.449 42.0391 -158.839 111.502c-8.12207 27.667 -8.83301 60.5 -2.13184 98.5l52.0166 295h77
l-49.5488 -281c-15.7617 -89.3965 25.8867 -153 109.022 -153c118.506 0 186.576 88.334 205.736 197l41.79 237h77l-86.7539 -492.003h-77z" />
    <glyph glyph-name="uni01D5" unicode="&#x1d5;" horiz-adv-x="721" 
d="M615.975 904.999h-284l10.9326 62h284zM314 806c0 -28.2881 -24.4453 -51 -53 -51c-28.5908 0 -52 22.7051 -52 51c0 27.4443 23.9482 50.999 52 50.999c28.0176 0 53 -23.5605 53 -50.999zM512 806c0 -28.2881 -24.4453 -51 -53 -51c-28.5908 0 -52 22.7051 -52 51
c0 27.4443 23.9482 50.999 52 50.999c28.0176 0 53 -23.5605 53 -50.999zM159 292.998c0 -130.901 75.7881 -230 203 -230c127.925 0 200 100.564 200 230.002v377h79l0.00195312 -377.002c0 -142.265 -65.1611 -241.336 -166.001 -284
c-34.667 -14.667 -72.334 -22 -113.001 -22c-138.144 0 -225.427 77.7637 -262 182c-13.333 38 -20 79.333 -20 124v377h79v-377z" />
    <glyph glyph-name="uni01D6" unicode="&#x1d6;" horiz-adv-x="624" 
d="M550.975 725.999h-284l10.9326 62h284zM326.726 665.999c27.376 0 48.9824 -22.7939 44.0078 -50.999c-4.65137 -26.376 -31.6016 -51 -61.9922 -51c-27.9365 0 -48.1328 21.9365 -43.0078 51c4.50684 25.5518 31.1992 50.999 60.9922 50.999zM524.726 665.999
c27.376 0 48.9824 -22.7939 44.0078 -50.999c-4.65137 -26.376 -31.6016 -51 -61.9922 -51c-27.9365 0 -48.1328 21.9365 -43.0078 51c4.50684 25.5518 31.1992 50.999 60.9922 50.999zM474.282 80.9971c-44.2803 -51.5977 -112.639 -92.999 -202.398 -92.999
c-85.9014 0 -138.449 42.0391 -158.839 111.502c-8.12207 27.667 -8.83301 60.5 -2.13184 98.5l52.0166 295h77l-49.5488 -281c-15.7617 -89.3965 25.8867 -153 109.022 -153c118.506 0 186.576 88.334 205.736 197l41.79 237h77l-86.7539 -492.003h-77z" />
    <glyph glyph-name="uni01D7" unicode="&#x1d7;" horiz-adv-x="721" 
d="M454.478 904.999h-67l104.686 140h89zM314 806c0 -28.2881 -24.4453 -51 -53 -51c-28.5908 0 -52 22.7051 -52 51c0 27.4443 23.9482 50.999 52 50.999c28.0176 0 53 -23.5605 53 -50.999zM512 806c0 -28.2881 -24.4453 -51 -53 -51c-28.5908 0 -52 22.7051 -52 51
c0 27.4443 23.9482 50.999 52 50.999c28.0176 0 53 -23.5605 53 -50.999zM159 292.998c0 -130.901 75.7881 -230 203 -230c127.925 0 200 100.564 200 230.002v377h79l0.00195312 -377.002c0 -142.265 -65.1611 -241.336 -166.001 -284
c-34.667 -14.667 -72.334 -22 -113.001 -22c-138.144 0 -225.427 77.7637 -262 182c-13.333 38 -20 79.333 -20 124v377h79v-377z" />
    <glyph glyph-name="uni01D8" unicode="&#x1d8;" horiz-adv-x="624" 
d="M439.478 725.999h-67l104.686 140h89zM326.726 665.999c27.376 0 48.9824 -22.7939 44.0078 -50.999c-4.65137 -26.376 -31.6016 -51 -61.9922 -51c-27.9365 0 -48.1328 21.9365 -43.0078 51c4.50684 25.5518 31.1992 50.999 60.9922 50.999zM524.726 665.999
c27.376 0 48.9824 -22.7939 44.0078 -50.999c-4.65137 -26.376 -31.6016 -51 -61.9922 -51c-27.9365 0 -48.1328 21.9365 -43.0078 51c4.50684 25.5518 31.1992 50.999 60.9922 50.999zM474.282 80.9971c-44.2803 -51.5977 -112.639 -92.999 -202.398 -92.999
c-85.9014 0 -138.449 42.0391 -158.839 111.502c-8.12207 27.667 -8.83301 60.5 -2.13184 98.5l52.0166 295h77l-49.5488 -281c-15.7617 -89.3965 25.8867 -153 109.022 -153c118.506 0 186.576 88.334 205.736 197l41.79 237h77l-86.7539 -492.003h-77z" />
    <glyph glyph-name="uni01D9" unicode="&#x1d9;" horiz-adv-x="721" 
d="M647.781 1047l-142.038 -142h-73l-90.9619 142h77l59.7783 -92l91.2217 92h78zM314 806c0 -28.2881 -24.4453 -51 -53 -51c-28.5908 0 -52 22.7051 -52 51c0 27.4443 23.9482 50.999 52 50.999c28.0176 0 53 -23.5605 53 -50.999zM512 806
c0 -28.2881 -24.4453 -51 -53 -51c-28.5908 0 -52 22.7051 -52 51c0 27.4443 23.9482 50.999 52 50.999c28.0176 0 53 -23.5605 53 -50.999zM159 292.998c0 -130.901 75.7881 -230 203 -230c127.925 0 200 100.564 200 230.002v377h79l0.00195312 -377.002
c0 -142.265 -65.1611 -241.336 -166.001 -284c-34.667 -14.667 -72.334 -22 -113.001 -22c-138.144 0 -225.427 77.7637 -262 182c-13.333 38 -20 79.333 -20 124v377h79v-377z" />
    <glyph glyph-name="uni01DA" unicode="&#x1da;" horiz-adv-x="624" 
d="M582.781 867.999l-142.038 -142h-73l-90.9619 142h77l59.7783 -92l91.2217 92h78zM326.726 665.999c27.376 0 48.9824 -22.7939 44.0078 -50.999c-4.65137 -26.376 -31.6016 -51 -61.9922 -51c-27.9365 0 -48.1328 21.9365 -43.0078 51
c4.50684 25.5518 31.1992 50.999 60.9922 50.999zM524.726 665.999c27.376 0 48.9824 -22.7939 44.0078 -50.999c-4.65137 -26.376 -31.6016 -51 -61.9922 -51c-27.9365 0 -48.1328 21.9365 -43.0078 51c4.50684 25.5518 31.1992 50.999 60.9922 50.999zM474.282 80.9971
c-44.2803 -51.5977 -112.639 -92.999 -202.398 -92.999c-85.9014 0 -138.449 42.0391 -158.839 111.502c-8.12207 27.667 -8.83301 60.5 -2.13184 98.5l52.0166 295h77l-49.5488 -281c-15.7617 -89.3965 25.8867 -153 109.022 -153c118.506 0 186.576 88.334 205.736 197
l41.79 237h77l-86.7539 -492.003h-77z" />
    <glyph glyph-name="uni01DB" unicode="&#x1db;" horiz-adv-x="721" 
d="M449.663 1045l54.3145 -140h-66l-77.3145 140h89zM314 806c0 -28.2881 -24.4453 -51 -53 -51c-28.5908 0 -52 22.7051 -52 51c0 27.4443 23.9482 50.999 52 50.999c28.0176 0 53 -23.5605 53 -50.999zM512 806c0 -28.2881 -24.4453 -51 -53 -51
c-28.5908 0 -52 22.7051 -52 51c0 27.4443 23.9482 50.999 52 50.999c28.0176 0 53 -23.5605 53 -50.999zM159 292.998c0 -130.901 75.7881 -230 203 -230c127.925 0 200 100.564 200 230.002v377h79l0.00195312 -377.002c0 -142.265 -65.1611 -241.336 -166.001 -284
c-34.667 -14.667 -72.334 -22 -113.001 -22c-138.144 0 -225.427 77.7637 -262 182c-13.333 38 -20 79.333 -20 124v377h79v-377z" />
    <glyph glyph-name="uni01DC" unicode="&#x1dc;" horiz-adv-x="624" 
d="M384.663 865.999l54.3145 -140h-66l-77.3145 140h89zM326.726 665.999c27.376 0 48.9824 -22.7939 44.0078 -50.999c-4.65137 -26.376 -31.6016 -51 -61.9922 -51c-27.9365 0 -48.1328 21.9365 -43.0078 51c4.50684 25.5518 31.1992 50.999 60.9922 50.999z
M524.726 665.999c27.376 0 48.9824 -22.7939 44.0078 -50.999c-4.65137 -26.376 -31.6016 -51 -61.9922 -51c-27.9365 0 -48.1328 21.9365 -43.0078 51c4.50684 25.5518 31.1992 50.999 60.9922 50.999zM474.282 80.9971
c-44.2803 -51.5977 -112.639 -92.999 -202.398 -92.999c-85.9014 0 -138.449 42.0391 -158.839 111.502c-8.12207 27.667 -8.83301 60.5 -2.13184 98.5l52.0166 295h77l-49.5488 -281c-15.7617 -89.3965 25.8867 -153 109.022 -153c118.506 0 186.576 88.334 205.736 197
l41.79 237h77l-86.7539 -492.003h-77z" />
    <glyph glyph-name="uni01DE" unicode="&#x1de;" horiz-adv-x="693" 
d="M590.975 904.999h-284l10.9326 62h284zM366.726 844.999c27.376 0 48.9824 -22.7939 44.0078 -50.999c-4.65137 -26.376 -31.6016 -51 -61.9922 -51c-27.9365 0 -48.1328 21.9365 -43.0078 51c4.50684 25.5518 31.1992 50.999 60.9922 50.999zM564.726 844.999
c27.376 0 48.9824 -22.7939 44.0078 -50.999c-4.65137 -26.376 -31.6016 -51 -61.9922 -51c-27.9365 0 -48.1328 21.9365 -43.0078 51c4.50684 25.5518 31.1992 50.999 60.9922 50.999zM683 0h-85l-45.0244 170h-353l-104.976 -170h-85l418.139 670h73zM534.495 241
l-86.6357 331l-204.364 -331h291z" />
    <glyph glyph-name="uni01DF" unicode="&#x1df;" horiz-adv-x="545" 
d="M521.475 726.999h-284l10.9326 62h284zM297.226 666.999c27.376 0 48.9824 -22.7939 44.0078 -50.999c-4.65137 -26.376 -31.6016 -51 -61.9922 -51c-27.9365 0 -48.1328 21.9365 -43.0078 51c4.50684 25.5518 31.1992 50.999 60.9922 50.999zM495.226 666.999
c27.376 0 48.9824 -22.7939 44.0078 -50.999c-4.65137 -26.376 -31.6016 -51 -61.9922 -51c-27.9365 0 -48.1328 21.9365 -43.0078 51c4.50684 25.5518 31.1992 50.999 60.9922 50.999zM132.597 354.999c29.8779 84.0605 122.197 150.001 233.448 150.001
c117.744 0 192.979 -62.502 171.38 -185l-56.4248 -320h-74l13.2246 75c-44.2949 -47.8184 -113.029 -88 -200.517 -88c-96.2148 0 -169.606 53.2725 -152.375 151c17.1104 97.0342 107.199 154 225.155 154h166l4.05566 23c13.3955 75.9639 -29.5625 123 -104.312 123
c-37.333 0 -69.8906 -8.83301 -97.6729 -26.5s-44.2227 -25.834 -54.9629 -56.501h-73zM241.816 50c65.6035 0 119.047 28.6797 156.579 68.498c24.1924 25.667 39.1689 54.834 44.9287 87.501l4.58398 26h-167c-71.6387 0 -130.084 -34.5088 -140.397 -92.999
c-10.4355 -59.1729 41.5986 -89 101.306 -89z" />
    <glyph glyph-name="uni01E2" unicode="&#x1e2;" horiz-adv-x="1040" 
d="M1120.49 743h-284l21.8652 62h284zM1012.7 72l-12.6953 -72h-489l27.3311 155h-300l-136.331 -155h-92l598.139 670h509l-12.5186 -71h-409l-40.0264 -227h380l-12.5195 -71h-380l-40.3789 -229h410zM550.85 226l62.5967 355l-312.597 -355h250z" />
    <glyph glyph-name="uni01E3" unicode="&#x1e3;" horiz-adv-x="927" 
d="M808.598 564.998h-284l21.8652 62h284zM529.116 408.997c48.5977 54.377 120.167 96.001 207.928 96.001c66.4463 0 109.667 -22.9775 144.921 -59.999c39.5 -41.4814 59.9053 -114.017 46.9404 -195.999l-4.76074 -27l-405 -0.00292969
c-8.34863 -96.4297 40.3037 -168 141.377 -168c46.248 0 85.6865 18.6348 119.168 43.501c21.0957 15.667 38.9365 36.5 53.5205 62.5h72c-37.1914 -78.0791 -77.4473 -117.656 -149.949 -150c-34.3701 -15.333 -70.2227 -23 -107.556 -23
c-100.973 0 -162.203 52.041 -187.841 119.999c-46.7324 -67.2549 -133.753 -120 -233.16 -120c-104.881 0 -176.961 51.2549 -159.727 149c17.4668 99.0557 110.865 143 216.215 143h175l7.22949 41c13.127 74.4473 -36.4229 120 -108.841 120
c-18.667 0 -38.6953 -3 -60.0869 -9c-21.3906 -6 -39.4658 -18.8633 -58.4062 -33.5c-14.666 -11.333 -30.4375 -30.833 -33.6709 -43.5h-72c29.334 97.3496 124.719 151 236.627 151c84.2119 0 143.405 -40.4209 160.072 -96zM856.194 278.999
c5.9502 87.2217 -36.7393 161 -127.611 161c-99.0449 0 -174.515 -70.2197 -200.389 -161.002zM140.509 138.999c-10.4883 -59.4805 40.9658 -89 105.307 -89c73.498 0 130.553 37.9326 168.34 87c16.4287 21.333 27.1699 46.333 32.2246 75l1.76367 10h-175
c-62.9131 0 -122.41 -25.0127 -132.635 -83z" />
    <glyph glyph-name="Gcaron" unicode="&#x1e6;" horiz-adv-x="795" 
d="M678.78 885l-142.038 -142h-73l-90.9619 142h77l59.7783 -92l91.2217 92h78zM721.46 479c-24.5146 79.2383 -106.039 130 -212.077 130c-83.6982 0 -154.768 -37.0957 -203.518 -79.5c-52.6377 -45.7852 -97.6387 -114.21 -111.796 -194.5
c-22.1631 -125.688 37.1973 -214.811 121.39 -253c30.8643 -14 64.6299 -21 101.297 -21c121.763 0 205.968 66.6719 256.038 142c19.0557 28.667 33.5215 59.667 43.3984 93h-296l12.6963 72l370.998 0.00195312l-4.99512 -34
c-17.8633 -101.311 -71.9365 -188.186 -137.465 -246.501c-61.9971 -55.1729 -150.739 -100.501 -259.721 -100.501c-102.117 0 -182.057 42.5596 -230.191 101c-46.9482 56.998 -75.9541 142.04 -57.4473 247c18.1338 102.833 76.0947 188.804 144.553 247
c64.0732 54.4688 155.089 101 263.811 101c73.333 0 135.306 -17.167 185.919 -51.5s80.8076 -91.833 94.1104 -152.5h-81z" />
    <glyph glyph-name="gcaron" unicode="&#x1e7;" horiz-adv-x="633" 
d="M562.781 707l-142.038 -142h-73l-90.9619 142h77l59.7783 -92l91.2217 92h78zM375.045 505c80.4561 0 140.216 -29.9658 170.895 -80l11.9902 68h74l-78.876 -453.002c-25.0986 -135.172 -132.47 -230 -288.556 -230c-82.7402 0 -151.72 24.3564 -186.333 69.001
c-16.0225 20.667 -34.3115 48.334 -37.1025 93.001h75c12.0049 -34 32.2432 -49.667 57.1865 -67s59.415 -26 103.415 -26c110.173 0 186.075 74.1494 203.152 171l10.5791 60c-44.6367 -47.208 -111.898 -81 -199.282 -81c-105.13 0 -175.9 60.0381 -198.021 144.502
c-18.7402 71.5684 3.67285 140.775 33.2373 188.499c34.8193 56.2021 88.6318 101.341 153.629 125.499c31.3906 11.667 63.0859 17.5 95.0859 17.5zM313.752 94.998c57.1709 0 98.7217 22.1895 133.405 50.502c46.3799 37.8594 90.5371 112.741 67.2646 199.998
c-14.1299 52.9707 -72.209 93.5 -140.014 93.5c-78.1328 0 -139.983 -40.0537 -174.163 -86c-29.2197 -39.2803 -53.1924 -110.218 -30.0635 -170.5c19.6865 -51.3105 71.1133 -87.5 143.57 -87.5z" />
    <glyph glyph-name="uni01E8" unicode="&#x1e8;" horiz-adv-x="704" 
d="M633.781 885l-142.038 -142h-73l-90.9619 142h77l59.7783 -92l91.2217 92h78zM689 0h-100l-200.518 326l-195.21 -177l-26.2725 -149h-79l118.139 670h79l-74.7627 -424l464.763 424h92l-315.605 -287z" />
    <glyph glyph-name="uni01E9" unicode="&#x1e9;" horiz-adv-x="599" 
d="M592.781 922l-142.038 -142h-73l-90.9619 142h77l59.7783 -92l91.2217 92h78zM589 0h-97l-169.092 232l-139.865 -124l-19.043 -108h-76l126.955 720h76l-89.9268 -510l324.901 283h92l-233.5 -207z" />
    <glyph glyph-name="uni01EA" unicode="&#x1ea;" horiz-adv-x="803" 
d="M375.528 -6.2334l53.4727 -2.99805c-31.6035 -28 -53.4443 -48.833 -65.5215 -62.5c-15.5391 -17.5859 -32.4912 -46.0273 -17.4307 -70.501c4.92188 -8 15.0498 -12 30.3828 -12c8.66699 0 24.5879 3.33301 47.7637 10l-2.81641 -50
c-27.7637 -10 -51.3125 -15 -70.6455 -15c-47.7031 0 -78.6074 30.582 -69.3643 82.999c2.58594 14.667 9.46582 31 20.6396 49s35.6797 41.667 73.5195 71zM522.432 683c100.82 0 180.074 -43.7949 227.604 -101.5c46.3096 -56.2236 75.3047 -142.893 57.0361 -246.5
c-18.0898 -102.598 -76.1123 -188.728 -144.054 -247c-63.5957 -54.5459 -154.796 -101 -263.311 -101c-101.902 0 -181.045 42.4121 -228.692 101c-46.4355 57.0977 -75.4053 142.322 -56.9482 247c17.8867 101.443 76.4473 189.103 143.966 246.5
c63.8701 54.2959 155.386 101.5 264.398 101.5zM412.933 62c83.8096 0 153.473 35.9951 202.341 78.502c52.6377 45.7852 97.6387 114.21 111.796 194.5c22.084 125.258 -35.1943 214.431 -118.39 253c-30.1982 14 -63.2969 21 -99.2969 21
c-83.6982 0 -154.769 -37.0957 -203.519 -79.5c-52.6367 -45.7852 -97.6396 -114.21 -111.795 -194.5c-20.7383 -117.604 30.9844 -211.601 113.006 -249.502c33.9043 -15.667 69.1904 -23.5 105.857 -23.5z" />
    <glyph glyph-name="uni01EB" unicode="&#x1eb;" horiz-adv-x="608" 
d="M278.528 -5.23047l53.4727 -2.99805c-31.6035 -28 -53.4443 -48.833 -65.5215 -62.5c-15.5391 -17.5859 -32.4912 -46.0273 -17.4307 -70.501c4.92188 -8 15.0498 -12 30.3828 -12c8.66699 0 24.5879 3.33301 47.7637 10l-2.81641 -50
c-27.7637 -10 -51.3125 -15 -70.6455 -15c-47.7031 0 -78.6074 30.582 -69.3643 82.999c2.58594 14.667 9.46582 31 20.6396 49s35.6797 41.667 73.5195 71zM393.869 504c113.334 0 191.258 -62.5479 213.758 -154.496
c18.8926 -77.2061 -5.75293 -154.096 -36.2354 -205.501c-36.5781 -61.6846 -93.6787 -110.923 -164.157 -137c-34.2334 -12.667 -69.0166 -19 -104.35 -19c-114.831 0 -192.05 62.6123 -214.493 156c-16.7402 69.6553 1.57617 136.102 26.6494 187.999
c30.3682 62.8564 96.3135 124.188 167.037 150.498c38.5273 14.333 75.791 21.5 111.791 21.5zM314.698 55.0039c57.7373 0 106.032 24.7334 140.435 53.5c38.0156 31.7871 69.2676 80.9102 79.4219 138.5c15.8223 89.7354 -23.998 149.376 -83.9668 176.001
c-21.0215 9.33301 -43.8652 14 -68.5322 14c-54.2793 0 -96.665 -20.0283 -130.257 -44c-57.5908 -41.0957 -121.277 -141.178 -83.5244 -244.001c20.0566 -54.626 76.0713 -94 146.424 -94z" />
    <glyph glyph-name="uni01EC" unicode="&#x1ec;" horiz-adv-x="803" 
d="M646.975 743h-284l10.9326 62h284zM375.528 -6.2334l53.4727 -2.99805c-31.6035 -28 -53.4443 -48.833 -65.5215 -62.5c-15.5391 -17.5859 -32.4912 -46.0273 -17.4307 -70.501c4.92188 -8 15.0498 -12 30.3828 -12c8.66699 0 24.5879 3.33301 47.7637 10l-2.81641 -50
c-27.7637 -10 -51.3125 -15 -70.6455 -15c-47.7031 0 -78.6074 30.582 -69.3643 82.999c2.58594 14.667 9.46582 31 20.6396 49s35.6797 41.667 73.5195 71zM522.432 683c100.82 0 180.074 -43.7949 227.604 -101.5c46.3096 -56.2236 75.3047 -142.893 57.0361 -246.5
c-18.0898 -102.598 -76.1123 -188.728 -144.054 -247c-63.5957 -54.5459 -154.796 -101 -263.311 -101c-101.902 0 -181.045 42.4121 -228.692 101c-46.4355 57.0977 -75.4053 142.322 -56.9482 247c17.8867 101.443 76.4473 189.103 143.966 246.5
c63.8701 54.2959 155.386 101.5 264.398 101.5zM412.933 62c83.8096 0 153.473 35.9951 202.341 78.502c52.6377 45.7852 97.6387 114.21 111.796 194.5c22.084 125.258 -35.1943 214.431 -118.39 253c-30.1982 14 -63.2969 21 -99.2969 21
c-83.6982 0 -154.769 -37.0957 -203.519 -79.5c-52.6367 -45.7852 -97.6396 -114.21 -111.795 -194.5c-20.7383 -117.604 30.9844 -211.601 113.006 -249.502c33.9043 -15.667 69.1904 -23.5 105.857 -23.5z" />
    <glyph glyph-name="uni01ED" unicode="&#x1ed;" horiz-adv-x="608" 
d="M549.975 564h-284l10.9326 62h284zM278.528 -5.23047l53.4727 -2.99805c-31.6035 -28 -53.4443 -48.833 -65.5215 -62.5c-15.5391 -17.5859 -32.4912 -46.0273 -17.4307 -70.501c4.92188 -8 15.0498 -12 30.3828 -12c8.66699 0 24.5879 3.33301 47.7637 10l-2.81641 -50
c-27.7637 -10 -51.3125 -15 -70.6455 -15c-47.7031 0 -78.6074 30.582 -69.3643 82.999c2.58594 14.667 9.46582 31 20.6396 49s35.6797 41.667 73.5195 71zM393.869 504c113.334 0 191.258 -62.5479 213.758 -154.496
c18.8926 -77.2061 -5.75293 -154.096 -36.2354 -205.501c-36.5781 -61.6846 -93.6787 -110.923 -164.157 -137c-34.2334 -12.667 -69.0166 -19 -104.35 -19c-114.831 0 -192.05 62.6123 -214.493 156c-16.7402 69.6553 1.57617 136.102 26.6494 187.999
c30.3682 62.8564 96.3135 124.188 167.037 150.498c38.5273 14.333 75.791 21.5 111.791 21.5zM314.698 55.0039c57.7373 0 106.032 24.7334 140.435 53.5c38.0156 31.7871 69.2676 80.9102 79.4219 138.5c15.8223 89.7354 -23.998 149.376 -83.9668 176.001
c-21.0215 9.33301 -43.8652 14 -68.5322 14c-54.2793 0 -96.665 -20.0283 -130.257 -44c-57.5908 -41.0957 -121.277 -141.178 -83.5244 -244.001c20.0566 -54.626 76.0713 -94 146.424 -94z" />
    <glyph glyph-name="uni01F0" unicode="&#x1f0;" horiz-adv-x="285" 
d="M427.781 895l-142.038 -142h-73l-90.9619 142h77l59.7783 -92l91.2217 92h78zM273.194 693c27.4268 0 47.9824 -22.7832 43.0078 -51c-4.65039 -26.374 -30.5928 -51 -60.9932 -51c-29.2422 0 -49.376 20.5488 -44.0068 51.001
c4.50391 25.5498 32.2178 50.999 61.9922 50.999zM-27.7412 -163.001l11.6367 66c15.374 -7.33301 30.3936 -11 45.0605 -11c39.8145 0 69.6816 26.5537 75.7568 61l95.2158 540h77l-96.8027 -549c-11.7461 -66.6074 -66.1309 -124 -145.865 -124
c-28.667 0 -38.001 5.66699 -62.002 17z" />
    <glyph glyph-name="uni01F4" unicode="&#x1f4;" horiz-adv-x="795" 
d="M535.477 743h-67l104.686 140h89zM721.46 479c-24.5146 79.2383 -106.039 130 -212.077 130c-83.6982 0 -154.768 -37.0957 -203.518 -79.5c-52.6377 -45.7852 -97.6387 -114.21 -111.796 -194.5c-22.1631 -125.688 37.1973 -214.811 121.39 -253
c30.8643 -14 64.6299 -21 101.297 -21c121.763 0 205.968 66.6719 256.038 142c19.0557 28.667 33.5215 59.667 43.3984 93h-296l12.6963 72l370.998 0.00195312l-4.99512 -34c-17.8633 -101.311 -71.9365 -188.186 -137.465 -246.501
c-61.9971 -55.1729 -150.739 -100.501 -259.721 -100.501c-102.117 0 -182.057 42.5596 -230.191 101c-46.9482 56.998 -75.9541 142.04 -57.4473 247c18.1338 102.833 76.0947 188.804 144.553 247c64.0732 54.4688 155.089 101 263.811 101
c73.333 0 135.306 -17.167 185.919 -51.5s80.8076 -91.833 94.1104 -152.5h-81z" />
    <glyph glyph-name="uni01F5" unicode="&#x1f5;" horiz-adv-x="633" 
d="M419.478 565h-67l104.686 140h89zM375.045 505c80.4561 0 140.216 -29.9658 170.895 -80l11.9902 68h74l-78.876 -453.002c-25.0986 -135.172 -132.47 -230 -288.556 -230c-82.7402 0 -151.72 24.3564 -186.333 69.001c-16.0225 20.667 -34.3115 48.334 -37.1025 93.001
h75c12.0049 -34 32.2432 -49.667 57.1865 -67s59.415 -26 103.415 -26c110.173 0 186.075 74.1494 203.152 171l10.5791 60c-44.6367 -47.208 -111.898 -81 -199.282 -81c-105.13 0 -175.9 60.0381 -198.021 144.502c-18.7402 71.5684 3.67285 140.775 33.2373 188.499
c34.8193 56.2021 88.6318 101.341 153.629 125.499c31.3906 11.667 63.0859 17.5 95.0859 17.5zM313.752 94.998c57.1709 0 98.7217 22.1895 133.405 50.502c46.3799 37.8594 90.5371 112.741 67.2646 199.998c-14.1299 52.9707 -72.209 93.5 -140.014 93.5
c-78.1328 0 -139.983 -40.0537 -174.163 -86c-29.2197 -39.2803 -53.1924 -110.218 -30.0635 -170.5c19.6865 -51.3105 71.1133 -87.5 143.57 -87.5z" />
    <glyph glyph-name="uni01F8" unicode="&#x1f8;" horiz-adv-x="760" 
d="M459.163 883l54.3145 -140h-66l-77.3145 140h89zM791.139 670l-118.139 -670h-68l-344.194 532l-93.8057 -532h-79l118.139 670h68l343.137 -538l94.8633 538h79z" />
    <glyph glyph-name="uni01F9" unicode="&#x1f9;" horiz-adv-x="624" 
d="M396.662 705l54.3145 -140h-66l-77.3145 140h89zM236.47 411c44.625 52.9385 111.327 94 202.575 94c85.9033 0 138.449 -42.0352 158.839 -111.499c8.12207 -27.667 8.83203 -60.5 2.13184 -98.5l-52.0166 -295h-76l49.5479 281
c15.7598 89.376 -26.7256 154 -109.846 154c-118.46 0 -186.766 -89.4199 -205.913 -198.001l-41.7891 -237h-76l86.9297 493h76z" />
    <glyph glyph-name="Aringacute" unicode="&#x1fa;" horiz-adv-x="693" 
d="M479.478 937.301h-67l104.686 140h89zM556.81 832.3c32.5293 -62.1133 -22.2266 -128.668 -67.7441 -146c-17.5078 -6.66699 -32.9287 -10 -46.2617 -10c-52.793 0 -95.5557 42.2158 -85.1914 101c9.06641 51.4209 59.0674 100.001 120.633 100.001
c35.5361 0 64.5752 -18.2871 78.5645 -45.001zM451.09 723.299c42.2812 0 89.0352 53.0352 55.7227 92.002c-9.11914 10.667 -21.3457 16 -36.6787 16c-42.2822 0 -89.0342 -53.0352 -55.7227 -92.002c9.11914 -10.667 21.3457 -16 36.6787 -16zM683 0h-85l-45.0244 170
h-353l-104.976 -170h-85l418.139 670h73zM534.495 241l-86.6357 331l-204.364 -331h291z" />
    <glyph glyph-name="aringacute" unicode="&#x1fb;" horiz-adv-x="545" 
d="M409.978 826.001h-67l104.686 140h89zM487.31 721c32.5293 -62.1143 -22.2266 -128.668 -67.7441 -146c-17.5078 -6.66699 -32.9287 -10 -46.2617 -10c-52.793 0 -95.5557 42.2158 -85.1914 101c9.06641 51.4199 59.0674 100.001 120.633 100.001
c35.5361 0 64.5752 -18.2871 78.5645 -45.001zM381.59 611.999c42.2812 0 89.0352 53.0352 55.7227 92.002c-9.11914 10.667 -21.3457 16 -36.6787 16c-42.2822 0 -89.0342 -53.0352 -55.7227 -92.002c9.11914 -10.667 21.3457 -16 36.6787 -16zM132.597 354.999
c29.8779 84.0605 122.197 150.001 233.448 150.001c117.744 0 192.979 -62.502 171.38 -185l-56.4248 -320h-74l13.2246 75c-44.2949 -47.8184 -113.029 -88 -200.517 -88c-96.2148 0 -169.606 53.2725 -152.375 151c17.1104 97.0342 107.199 154 225.155 154h166
l4.05566 23c13.3955 75.9639 -29.5625 123 -104.312 123c-37.333 0 -69.8906 -8.83301 -97.6729 -26.5s-44.2227 -25.834 -54.9629 -56.501h-73zM241.816 50c65.6035 0 119.047 28.6797 156.579 68.498c24.1924 25.667 39.1689 54.834 44.9287 87.501l4.58398 26h-167
c-71.6387 0 -130.084 -34.5088 -140.397 -92.999c-10.4355 -59.1729 41.5986 -89 101.306 -89z" />
    <glyph glyph-name="AEacute" unicode="&#x1fc;" horiz-adv-x="1040" 
d="M1008.99 743h-67l129.371 140h89zM1012.7 72l-12.6953 -72h-489l27.3311 155h-300l-136.331 -155h-92l598.139 670h509l-12.5186 -71h-409l-40.0264 -227h380l-12.5195 -71h-380l-40.3789 -229h410zM550.85 226l62.5967 355l-312.597 -355h250z" />
    <glyph glyph-name="aeacute" unicode="&#x1fd;" horiz-adv-x="927" 
d="M697.101 564.998h-67l129.372 140h89zM529.116 408.997c48.5977 54.377 120.167 96.001 207.928 96.001c66.4463 0 109.667 -22.9775 144.921 -59.999c39.5 -41.4814 59.9053 -114.017 46.9404 -195.999l-4.76074 -27l-405 -0.00292969
c-8.34863 -96.4297 40.3037 -168 141.377 -168c46.248 0 85.6865 18.6348 119.168 43.501c21.0957 15.667 38.9365 36.5 53.5205 62.5h72c-37.1914 -78.0791 -77.4473 -117.656 -149.949 -150c-34.3701 -15.333 -70.2227 -23 -107.556 -23
c-100.973 0 -162.203 52.041 -187.841 119.999c-46.7324 -67.2549 -133.753 -120 -233.16 -120c-104.881 0 -176.961 51.2549 -159.727 149c17.4668 99.0557 110.865 143 216.215 143h175l7.22949 41c13.127 74.4473 -36.4229 120 -108.841 120
c-18.667 0 -38.6953 -3 -60.0869 -9c-21.3906 -6 -39.4658 -18.8633 -58.4062 -33.5c-14.666 -11.333 -30.4375 -30.833 -33.6709 -43.5h-72c29.334 97.3496 124.719 151 236.627 151c84.2119 0 143.405 -40.4209 160.072 -96zM856.194 278.999
c5.9502 87.2217 -36.7393 161 -127.611 161c-99.0449 0 -174.515 -70.2197 -200.389 -161.002zM140.509 138.999c-10.4883 -59.4805 40.9658 -89 105.307 -89c73.498 0 130.553 37.9326 168.34 87c16.4287 21.333 27.1699 46.333 32.2246 75l1.76367 10h-175
c-62.9131 0 -122.41 -25.0127 -132.635 -83z" />
    <glyph glyph-name="Oslashacute" unicode="&#x1fe;" horiz-adv-x="803" 
d="M534.977 743h-67l104.686 140h89zM402 683c92.873 0 171.704 -36.9951 225 -82l60 60l46 -46l-61.001 -61c42.8428 -52.3633 76 -128.991 76 -219c0 -105.652 -44.5703 -190.481 -100.501 -247c-55.6807 -56.2656 -140.621 -101 -245.502 -101
c-89.8213 0 -167.798 34.2891 -219.999 77l-65 -65l-46 46l65 65c-45.1094 53.4199 -80.999 131.952 -80.999 225c0 104.527 44.833 190.832 100.501 246.5c56.0264 56.0264 141.073 101.5 246.501 101.5zM572.998 547c-41.4219 34.3213 -99.7695 62 -170.999 62
c-80.9141 0 -146.887 -35.7188 -189.5 -79.5c-43.292 -44.4785 -77.5 -111.69 -77.5 -194.5c0 -64 18.666 -120.667 55.999 -170zM236.998 119c40.3721 -32.0596 96.7988 -57 165 -57c81.0088 0 145.797 34.627 188.5 78.5c43.292 44.4785 77.5 111.69 77.5 194.5
c0 62 -17 116.667 -51 164z" />
    <glyph glyph-name="oslashacute" unicode="&#x1ff;" horiz-adv-x="606" 
d="M437.979 565h-67l104.686 140h89zM305 503.999c67.3389 0 123.312 -22.7305 163 -53.999l55 55l39 -39l-53.998 -53.998c32.6104 -38.6494 58 -96.9287 58 -165c0 -122.533 -70.6992 -204.651 -160 -240c-32 -12.667 -65.667 -19 -101 -19
c-67.6807 0 -125.47 24.0059 -166.002 55l-55 -55l-39 39l55 55c-38 46.667 -57 101.667 -57 165c0 73.0508 24.1709 125.703 63.5 171.498c41.7578 48.6221 114.777 85.499 198.5 85.499zM417.999 400.002c-26.5957 19.6582 -69.499 37 -112.998 37
c-52.7227 0 -92.2812 -19.332 -122.499 -44c-34.3633 -28.0518 -65.5 -81.4023 -65.5 -146c0 -42.7178 16.0537 -87.6826 33.9971 -114zM189.999 94.0029c26.71 -20.9043 70.1465 -39 115 -39c86.3203 0 146.025 51.7549 171.5 115c9.66699 24 14.5 49.667 14.5 77
c0 42.7549 -16.0225 86.6318 -34 113z" />
    <glyph glyph-name="uni0202" unicode="&#x202;" horiz-adv-x="693" 
d="M586.371 742.999c13.877 77.707 -31.3037 135.001 -120.89 135.001c-82.0527 0 -153.909 -49.8682 -169.112 -135.001h64c8.4082 47.0801 50.8223 80 95.2891 80c48.4795 0 74.3584 -37.1895 66.7129 -80h64zM683 0h-85l-45.0244 170h-353l-104.976 -170h-85l418.139 670
h73zM534.495 241l-86.6357 331l-204.364 -331h291z" />
    <glyph glyph-name="uni0203" unicode="&#x203;" horiz-adv-x="545" 
d="M132.597 354.999c29.8779 84.0605 122.197 150.001 233.448 150.001c117.744 0 192.979 -62.502 171.38 -185l-56.4248 -320h-74l13.2246 75c-44.2949 -47.8184 -113.029 -88 -200.517 -88c-96.2148 0 -169.606 53.2725 -152.375 151
c17.1104 97.0342 107.199 154 225.155 154h166l4.05566 23c13.3955 75.9639 -29.5625 123 -104.312 123c-37.333 0 -69.8906 -8.83301 -97.6729 -26.5s-44.2227 -25.834 -54.9629 -56.501h-73zM241.816 50c65.6035 0 119.047 28.6797 156.579 68.498
c24.1924 25.667 39.1689 54.834 44.9287 87.501l4.58398 26h-167c-71.6387 0 -130.084 -34.5088 -140.397 -92.999c-10.4355 -59.1729 41.5986 -89 101.306 -89zM515.146 564.999c9.98145 77.707 -38.0723 135.001 -127.658 135.001
c-82.0527 0 -151.409 -49.8682 -162.344 -135.001h64c6.04785 47.0801 46.8105 80 91.2783 80c48.4785 0 76.2227 -37.1895 70.7236 -80h64z" />
    <glyph glyph-name="uni0206" unicode="&#x206;" horiz-adv-x="637" 
d="M598.49 742.999c-13.7021 77.707 -79.2178 135.001 -168.804 135.001c-82.0527 0 -136.21 -49.8682 -121.198 -135.001h64c-8.30176 47.0801 22.4287 80 66.8955 80c48.4795 0 87.5576 -37.1895 95.1064 -80h64zM589.695 72l-12.6953 -72h-489l118.139 670h488
l-12.5186 -71h-409l-40.0264 -227h380l-12.5195 -71h-380l-40.3789 -229h410z" />
    <glyph glyph-name="uni0207" unicode="&#x207;" horiz-adv-x="583" 
d="M528.275 564.999c17.917 77.707 -24.2852 135.001 -113.871 135.001c-82.0527 0 -156.502 -49.8682 -176.131 -135.001h64c10.8555 47.0801 54.9805 80 99.4482 80c48.4785 0 72.4248 -37.1895 62.5537 -80h64zM554.392 144.001
c-49.1709 -88.1338 -136.22 -157 -263.684 -157c-71.0488 0 -126.991 30.6787 -161.98 71c-36.1709 41.6807 -56.6328 107.003 -42.5273 186.999c19.4844 110.494 96.3516 202.273 194.642 239c37.4688 14 72.8701 21 106.203 21c106.541 0 174.416 -59.7119 195.08 -147
c7.25977 -30.667 8.44043 -63.667 3.54395 -99l-4.93652 -27.999h-423c-8.63867 -78.7754 23.3115 -131.591 74.2871 -160c20.335 -11.333 43.835 -17 70.502 -17c37.333 0 71.999 8.5 103.997 25.5c31.9971 17 51.7402 27.833 74.873 64.5h73zM513.784 288.001
c3.62207 90.6543 -50.6953 150 -138.552 150c-18.667 0 -41.7637 -4.33301 -69.292 -13c-60.4971 -19.0469 -114.445 -74.2734 -135.156 -137h343z" />
    <glyph glyph-name="uni020A" unicode="&#x20a;" horiz-adv-x="254" 
d="M393.99 742.999c-13.7021 77.707 -79.2178 135.001 -168.804 135.001c-82.0527 0 -136.21 -49.8682 -121.198 -135.001h64c-8.30176 47.0801 22.4287 80 66.8955 80c48.4795 0 87.5576 -37.1895 95.1064 -80h64zM167 0h-79l118.139 670h79z" />
    <glyph glyph-name="uni020B" unicode="&#x20b;" horiz-adv-x="279" 
d="M405.99 563.999c-13.7021 77.707 -79.2178 135.001 -168.804 135.001c-82.0527 0 -136.21 -49.8682 -121.198 -135.001h64c-8.30176 47.0801 22.4287 80 66.8955 80c48.4795 0 87.5576 -37.1895 95.1064 -80h64zM178 0h-77v493h77v-493z" />
    <glyph glyph-name="uni020E" unicode="&#x20e;" horiz-adv-x="803" 
d="M668.49 742.999c-13.7021 77.707 -79.2178 135.001 -168.804 135.001c-82.0527 0 -136.21 -49.8682 -121.198 -135.001h64c-8.30176 47.0801 22.4287 80 66.8955 80c48.4795 0 87.5576 -37.1895 95.1064 -80h64zM522.432 683c100.82 0 180.074 -43.7949 227.604 -101.5
c46.3096 -56.2236 75.3047 -142.893 57.0361 -246.5c-18.0898 -102.598 -76.1123 -188.728 -144.054 -247c-63.5957 -54.5459 -154.796 -101 -263.311 -101c-101.902 0 -181.045 42.4121 -228.692 101c-46.4355 57.0977 -75.4053 142.322 -56.9482 247
c17.8867 101.443 76.4473 189.103 143.966 246.5c63.8701 54.2959 155.386 101.5 264.398 101.5zM412.933 62c83.8096 0 153.473 35.9951 202.341 78.502c52.6377 45.7852 97.6387 114.21 111.796 194.5c22.084 125.258 -35.1943 214.431 -118.39 253
c-30.1982 14 -63.2969 21 -99.2969 21c-83.6982 0 -154.769 -37.0957 -203.519 -79.5c-52.6367 -45.7852 -97.6396 -114.21 -111.795 -194.5c-20.7383 -117.604 30.9844 -211.601 113.006 -249.502c33.9043 -15.667 69.1904 -23.5 105.857 -23.5z" />
    <glyph glyph-name="uni020F" unicode="&#x20f;" horiz-adv-x="608" 
d="M571.49 563.999c-13.7021 77.707 -79.2178 135.001 -168.804 135.001c-82.0527 0 -136.21 -49.8682 -121.198 -135.001h64c-8.30176 47.0801 22.4287 80 66.8955 80c48.4795 0 87.5576 -37.1895 95.1064 -80h64zM393.869 504
c113.334 0 191.258 -62.5479 213.758 -154.496c18.8926 -77.2061 -5.75293 -154.096 -36.2354 -205.501c-36.5781 -61.6846 -93.6787 -110.923 -164.157 -137c-34.2334 -12.667 -69.0166 -19 -104.35 -19c-114.831 0 -192.05 62.6123 -214.493 156
c-16.7402 69.6553 1.57617 136.102 26.6494 187.999c30.3682 62.8564 96.3135 124.188 167.037 150.498c38.5273 14.333 75.791 21.5 111.791 21.5zM314.698 55.0039c57.7373 0 106.032 24.7334 140.435 53.5c38.0156 31.7871 69.2676 80.9102 79.4219 138.5
c15.8223 89.7354 -23.998 149.376 -83.9668 176.001c-21.0215 9.33301 -43.8652 14 -68.5322 14c-54.2793 0 -96.665 -20.0283 -130.257 -44c-57.5908 -41.0957 -121.277 -141.178 -83.5244 -244.001c20.0566 -54.626 76.0713 -94 146.424 -94z" />
    <glyph glyph-name="uni0212" unicode="&#x212;" horiz-adv-x="670" 
d="M588.545 742.999c23.8418 77.707 -13.9922 135.001 -103.578 135.001c-82.0527 0 -160.304 -49.8682 -186.424 -135.001h64c14.4453 47.0801 61.0801 80 105.547 80c48.4795 0 69.5908 -37.1895 56.4551 -80h64zM645 0h-99l-205.395 287h-123l-50.6055 -287h-79
l118.139 670h310c94.2549 0 164.149 -39.207 183.487 -113.5c13.4258 -51.5791 -0.823242 -102.82 -19.9502 -141.5c-24.4316 -49.4082 -69.083 -86.1934 -124.72 -109c-30.9004 -12.667 -66.3506 -19 -106.351 -19h-12zM230.302 359h231
c83.7959 0 148.583 48.6748 161.159 120c13.7441 77.9502 -42.3281 120 -118.841 120h-231z" />
    <glyph glyph-name="uni0213" unicode="&#x213;" horiz-adv-x="412" 
d="M481.27 563.999c13.2539 77.707 -32.3857 135.001 -121.973 135.001c-82.0518 0 -153.509 -49.8682 -168.029 -135.001h64c8.03027 47.0801 50.1807 80 94.6475 80c48.4795 0 74.6572 -37.1895 67.3545 -80h64zM230.594 371.999
c46.9062 64.4287 118.979 126.001 220.217 126.001c14 0 25.4336 -1.33301 34.2959 -4l-18.8721 -73l-28.8232 1c-101.396 0 -162.388 -55.502 -201.866 -124.001c-17.2891 -30 -29.6377 -66 -37.043 -108l-33.502 -190h-77l86.9287 493h77z" />
    <glyph glyph-name="uni0216" unicode="&#x216;" horiz-adv-x="721" 
d="M627.99 742.999c-13.7021 77.707 -79.2178 135.001 -168.804 135.001c-82.0527 0 -136.21 -49.8682 -121.198 -135.001h64c-8.30176 47.0801 22.4287 80 66.8955 80c48.4795 0 87.5576 -37.1895 95.1064 -80h64zM210.663 292.998
c-23.0811 -130.901 35.2324 -230 162.445 -230c127.925 0 217.732 100.564 240.556 230.002l66.4746 377h79l-66.4736 -377.002c-25.085 -142.265 -107.715 -241.336 -216.077 -284c-37.2539 -14.667 -76.2139 -22 -116.881 -22c-138.143 0 -211.715 77.7637 -229.908 182
c-6.63281 38 -6.01172 79.333 1.86426 124l66.4756 377h79z" />
    <glyph glyph-name="uni0217" unicode="&#x217;" horiz-adv-x="624" 
d="M572.99 563.999c-13.7021 77.707 -79.2178 135.001 -168.804 135.001c-82.0527 0 -136.21 -49.8682 -121.198 -135.001h64c-8.30176 47.0801 22.4287 80 66.8955 80c48.4795 0 87.5576 -37.1895 95.1064 -80h64zM474.282 80.9971
c-44.2803 -51.5977 -112.639 -92.999 -202.398 -92.999c-85.9014 0 -138.449 42.0391 -158.839 111.502c-8.12207 27.667 -8.83301 60.5 -2.13184 98.5l52.0166 295h77l-49.5488 -281c-15.7617 -89.3965 25.8867 -153 109.022 -153c118.506 0 186.576 88.334 205.736 197
l41.79 237h77l-86.7539 -492.003h-77z" />
    </font>
</defs>
</svg>
